<?xml version="1.0" encoding="iso-8859-1"?>
<!-- Generator: Adobe Illustrator 19.0.0, SVG Export Plug-In . SVG Version: 6.00 Build 0)  -->
<svg version="1.1" id="Capa_1" xmlns="http://www.w3.org/2000/svg" xmlns:xlink="http://www.w3.org/1999/xlink" x="0px" y="0px"
	 viewBox="0 0 504 504" style="enable-background:new 0 0 504 504;" xml:space="preserve">
<path style="fill:#263238;" d="M164,255.96h-64c-2.208,0-4-1.792-4-4s1.792-4,4-4h64c2.208,0,4,1.792,4,4
	C168,254.168,166.208,255.96,164,255.96z"/>
<path style="fill:#FF5252;" d="M64,292H24c-11.048,0-20-8.952-20-20v-40c0-11.048,8.952-20,20-20h40c11.048,0,20,8.952,20,20v40
	C84,283.048,75.048,292,64,292z"/>
<g>
	<path style="fill:#263238;" d="M64,296H24c-13.232,0-24-10.768-24-24v-40c0-13.232,10.768-24,24-24h40c13.232,0,24,10.768,24,24v40
		C88,285.232,77.232,296,64,296z M24,216c-8.824,0-16,7.176-16,16v40c0,8.824,7.176,16,16,16h40c8.824,0,16-7.176,16-16v-40
		c0-8.824-7.176-16-16-16H24z"/>
	<path style="fill:#263238;" d="M404,256.04h-64c-2.208,0-4-1.792-4-4s1.792-4,4-4h64c2.208,0,4,1.792,4,4
		C408,254.248,406.208,256.04,404,256.04z"/>
</g>
<path style="fill:#FF5252;" d="M440,212h40c11.048,0,20,8.952,20,20v40c0,11.048-8.952,20-20,20h-40c-11.048,0-20-8.952-20-20v-40
	C420,220.952,428.952,212,440,212z"/>
<g>
	<path style="fill:#263238;" d="M480,296h-40c-13.232,0-24-10.768-24-24v-40c0-13.232,10.768-24,24-24h40c13.232,0,24,10.768,24,24
		v40C504,285.232,493.232,296,480,296z M440,216c-8.824,0-16,7.176-16,16v40c0,8.824,7.176,16,16,16h40c8.824,0,16-7.176,16-16v-40
		c0-8.824-7.176-16-16-16H440z"/>
	<path style="fill:#263238;" d="M252.04,168c-2.208,0-4-1.792-4-4v-64c0-2.208,1.792-4,4-4c2.208,0,4,1.792,4,4v64
		C256.04,166.208,254.248,168,252.04,168z"/>
	<path style="fill:#263238;" d="M272,88h-40c-13.232,0-24-10.768-24-24V24c0-13.232,10.768-24,24-24h40c13.232,0,24,10.768,24,24v40
		C296,77.232,285.232,88,272,88z M232,8c-8.824,0-16,7.176-16,16v40c0,8.824,7.176,16,16,16h40c8.824,0,16-7.176,16-16V24
		c0-8.824-7.176-16-16-16H232z"/>
	<path style="fill:#263238;" d="M251.96,408c-2.208,0-4-1.792-4-4v-64c0-2.208,1.792-4,4-4s4,1.792,4,4v64
		C255.96,406.208,254.168,408,251.96,408z"/>
	<path style="fill:#263238;" d="M272,504h-40c-13.232,0-24-10.768-24-24v-40c0-13.232,10.768-24,24-24h40c13.232,0,24,10.768,24,24
		v40C296,493.232,285.232,504,272,504z M232,424c-8.824,0-16,7.176-16,16v40c0,8.824,7.176,16,16,16h40c8.824,0,16-7.176,16-16v-40
		c0-8.824-7.176-16-16-16H232z"/>
</g>
<path style="fill:#FFD740;" d="M316,323.96H188c-4.416,0-8-3.584-8-8v-128c0-4.416,3.584-8,8-8h128c4.416,0,8,3.584,8,8v128
	C324,320.384,320.416,323.96,316,323.96z"/>
<g>
	<path style="fill:#263238;" d="M316,327.96H188c-6.616,0-12-5.384-12-12v-128c0-6.616,5.384-12,12-12h128c6.616,0,12,5.384,12,12
		v128C328,322.576,322.616,327.96,316,327.96z M188,183.96c-2.2,0-4,1.792-4,4v128c0,2.208,1.8,4,4,4h128c2.2,0,4-1.792,4-4v-128
		c0-2.208-1.8-4-4-4L188,183.96L188,183.96z"/>
	<path style="fill:#263238;" d="M230,275.96c-1.024,0-2.048-0.392-2.832-1.168l-20-20c-1.56-1.56-1.56-4.096,0-5.656l20-20
		c1.56-1.56,4.096-1.56,5.656,0s1.56,4.096,0,5.656l-17.168,17.168l17.168,17.168c1.56,1.56,1.56,4.096,0,5.656
		C232.048,275.568,231.024,275.96,230,275.96z"/>
	<path style="fill:#263238;" d="M274,275.96c-1.024,0-2.048-0.392-2.832-1.168c-1.56-1.56-1.56-4.096,0-5.656l17.168-17.168
		L271.168,234.8c-1.56-1.56-1.56-4.096,0-5.656s4.096-1.56,5.656,0l20,20c1.56,1.56,1.56,4.096,0,5.656l-20,20
		C276.048,275.568,275.024,275.96,274,275.96z"/>
	<path style="fill:#263238;" d="M242,279.96c-0.512,0-1.04-0.096-1.536-0.312c-2.04-0.848-3-3.192-2.16-5.232l20-48
		c0.848-2.04,3.208-3.008,5.232-2.152c2.04,0.848,3,3.192,2.16,5.232l-20,48C245.056,279.032,243.56,279.96,242,279.96z"/>
	<path style="fill:#263238;" d="M365.168,369.112c-1.024,0-2.048-0.392-2.832-1.168L328.392,334c-1.56-1.56-1.56-4.096,0-5.656
		s4.096-1.56,5.656,0l33.944,33.944c1.56,1.56,1.56,4.096,0,5.656C367.208,368.72,366.184,369.112,365.168,369.112z"/>
	<path style="fill:#263238;" d="M172.832,176.776c-1.024,0-2.048-0.392-2.832-1.168l-33.936-33.944c-1.56-1.56-1.56-4.096,0-5.656
		s4.096-1.56,5.656,0l33.936,33.944c1.56,1.56,1.56,4.096,0,5.656C174.872,176.384,173.848,176.776,172.832,176.776z"/>
</g>
<ellipse style="fill:#40C4FF;" cx="104.915" cy="104.92" rx="32" ry="32"/>
<path style="fill:#263238;" d="M104.92,140.92c-9.616,0-18.656-3.744-25.456-10.544c-14.04-14.032-14.04-36.88,0-50.912
	c6.8-6.8,15.832-10.544,25.456-10.544s18.656,3.744,25.456,10.544c14.04,14.032,14.04,36.88,0,50.912
	C123.576,137.176,114.536,140.92,104.92,140.92z M104.92,76.92c-7.48,0-14.504,2.912-19.8,8.2c-10.912,10.92-10.912,28.68,0,39.6
	c10.576,10.576,29.016,10.576,39.592,0l0,0c10.912-10.92,10.912-28.68,0-39.6C119.432,79.832,112.4,76.92,104.92,76.92z"/>
<ellipse style="fill:#40C4FF;" cx="399.019" cy="399.04" rx="32" ry="32"/>
<g>
	<path style="fill:#263238;" d="M399.08,435.08c-9.616,0-18.656-3.744-25.456-10.544c-14.04-14.032-14.04-36.88,0-50.912
		c6.8-6.8,15.832-10.544,25.456-10.544s18.656,3.744,25.456,10.544c14.04,14.032,14.04,36.88,0,50.912
		C417.736,431.336,408.696,435.08,399.08,435.08z M399.08,371.08c-7.48,0-14.504,2.912-19.8,8.2c-10.912,10.92-10.912,28.68,0,39.6
		c10.576,10.576,29.016,10.576,39.592,0l0,0c10.912-10.92,10.912-28.68,0-39.6C413.584,373.992,406.552,371.08,399.08,371.08z"/>
	<path style="fill:#263238;" d="M138.888,369.168c-1.024,0-2.048-0.392-2.832-1.168c-1.56-1.56-1.56-4.096,0-5.656l33.936-33.944
		c1.56-1.56,4.096-1.56,5.656,0s1.56,4.096,0,5.656L141.712,368C140.936,368.776,139.912,369.168,138.888,369.168z"/>
	<path style="fill:#263238;" d="M331.216,176.832c-1.024,0-2.048-0.392-2.832-1.168c-1.56-1.56-1.56-4.096,0-5.656l33.944-33.944
		c1.56-1.56,4.096-1.56,5.656,0s1.56,4.096,0,5.656l-33.944,33.944C333.264,176.44,332.24,176.832,331.216,176.832z"/>
</g>
<ellipse style="fill:#40C4FF;" cx="399.047" cy="104.948" rx="32" ry="32"/>
<path style="fill:#263238;" d="M399.08,140.92c-9.616,0-18.656-3.744-25.456-10.544l0,0c-14.04-14.032-14.04-36.88,0-50.912
	c6.8-6.8,15.832-10.544,25.456-10.544s18.656,3.744,25.456,10.544c14.04,14.032,14.04,36.88,0,50.912
	C417.736,137.176,408.696,140.92,399.08,140.92z M399.08,76.92c-7.48,0-14.504,2.912-19.8,8.2c-10.912,10.92-10.912,28.68,0,39.6
	l0,0c10.576,10.576,29.016,10.576,39.592,0c10.912-10.92,10.912-28.68,0-39.6C413.584,79.832,406.552,76.92,399.08,76.92z"/>
<ellipse style="fill:#40C4FF;" cx="104.887" cy="399.052" rx="32" ry="32"/>
<path style="fill:#263238;" d="M104.92,435.08c-9.616,0-18.656-3.744-25.456-10.544l0,0c-14.04-14.032-14.04-36.88,0-50.912
	c6.8-6.8,15.832-10.544,25.456-10.544s18.656,3.744,25.456,10.544c14.04,14.032,14.04,36.88,0,50.912
	C123.576,431.336,114.536,435.08,104.92,435.08z M104.92,371.08c-7.48,0-14.504,2.912-19.8,8.2c-10.912,10.92-10.912,28.68,0,39.6
	l0,0c10.576,10.576,29.016,10.576,39.592,0c10.912-10.92,10.912-28.68,0-39.6C119.432,373.992,112.4,371.08,104.92,371.08z"/>
<g>
</g>
<g>
</g>
<g>
</g>
<g>
</g>
<g>
</g>
<g>
</g>
<g>
</g>
<g>
</g>
<g>
</g>
<g>
</g>
<g>
</g>
<g>
</g>
<g>
</g>
<g>
</g>
<g>
</g>
</svg>
