<?xml version="1.0" encoding="UTF-8"?>
<svg width="1132px" height="817px" viewBox="0 0 1132 817" version="1.1" xmlns="http://www.w3.org/2000/svg" xmlns:xlink="http://www.w3.org/1999/xlink">
    <title>Untitled 5</title>
    <g id="Page-1" stroke="none" stroke-width="1" fill="none" fill-rule="evenodd">
        <g id="Group-11">
            <rect id="Rectangle" fill="#3F3D56" fill-rule="nonzero" x="0" y="0" width="734" height="817"></rect>
            <path d="M571.950351,817 C612.057512,590.724519 616.795534,284.88683 459,0 L734.027136,0 C853.193306,119.614834 1050.51388,375.831535 1132,817 L571.950351,817 Z" id="Path" fill="#D0CDE1" fill-rule="nonzero"></path>
            <ellipse id="Oval" fill="#D0CDE1" fill-rule="nonzero" cx="68" cy="105.5" rx="10" ry="10.5"></ellipse>
            <ellipse id="Oval" fill="#D0CDE1" fill-rule="nonzero" cx="142" cy="724.5" rx="5" ry="4.5"></ellipse>
            <ellipse id="Oval" fill="#FF6584" fill-rule="nonzero" cx="250" cy="534.5" rx="5" ry="4.5"></ellipse>
            <polygon id="Path" fill="#D0CDE1" fill-rule="nonzero" points="85 194.400661 83 194.400661 83 192 82 192 82 194.400661 80 194.400661 80 195.600992 82 195.600992 82 198 83 198 83 195.600992 85 195.600992"></polygon>
            <polygon id="Path" fill="#D0CDE1" fill-rule="nonzero" points="80 440.4 78 440.4 78 438 77 438 77 440.4 75 440.4 75 441.6 77 441.6 77 444 78 444 78 441.6 80 441.6"></polygon>
            <polygon id="Path" fill="#D0CDE1" fill-rule="nonzero" points="216 51.4 214 51.4 214 49 213 49 213 51.4 211 51.4 211 52.6 213 52.6 213 55 214 55 214 52.6 216 52.6"></polygon>
            <polygon id="Path" fill="#D0CDE1" fill-rule="nonzero" points="195 250.4 193 250.4 193 248 192 248 192 250.4 190 250.4 190 251.6 192 251.6 192 254 193 254 193 251.6 195 251.6"></polygon>
            <polygon id="Path" fill="#D0CDE1" fill-rule="nonzero" points="344 660.4 342 660.4 342 658 341 658 341 660.4 339 660.4 339 661.6 341 661.6 341 664 342 664 342 661.6 344 661.6"></polygon>
            <polygon id="Path" fill="#D0CDE1" fill-rule="nonzero" points="347 381.4 345.000827 381.4 345.000827 379 344.000551 379 344.000551 381.4 342 381.4 342 382.6 344.000551 382.6 344.000551 385 345.000827 385 345.000827 382.6 347 382.6"></polygon>
            <polygon id="Path" fill="#D0CDE1" fill-rule="nonzero" points="246 351.4 244 351.4 244 349 243 349 243 351.4 241 351.4 241 352.6 243 352.6 243 355 244 355 244 352.6 246 352.6"></polygon>
            <g id="Group-6" transform="translate(47.000000, 48.000000)" fill-rule="nonzero">
                <rect id="b85ae1dc-b170-4f54-a6de-4a72451950d7" fill="#E6E6E6" x="0" y="9" width="388" height="159"></rect>
                <rect id="f015ec3e-20cc-40e8-8473-d753a9bdb685" fill="#FFFFFF" x="15" y="22" width="366" height="133"></rect>
                <rect id="ed585d6d-4c60-4aae-9dcd-e3012a759289" fill="#6C63FF" x="0" y="0" width="388" height="14"></rect>
                <ellipse id="b43fe0fb-7393-4bbe-8dcd-48ed75608891" fill="#FFFFFF" cx="12" cy="6.5" rx="3" ry="2.5"></ellipse>
                <ellipse id="ada3e127-c3a1-446f-8730-bf32ed0f9b11" fill="#FFFFFF" cx="23" cy="6.5" rx="3" ry="2.5"></ellipse>
                <ellipse id="e3927273-efa9-4ef7-88ca-a022a07a6d22" fill="#FFFFFF" cx="35" cy="6.5" rx="3" ry="2.5"></ellipse>
                <g id="Group-2" transform="translate(21.000000, 82.000000)" fill="#6C63FF">
                    <rect id="Rectangle" x="0" y="0" width="184" height="1"></rect>
                    <rect id="Rectangle" x="0" y="5.99107143" width="184" height="1"></rect>
                    <rect id="Rectangle" x="0" y="11.9821429" width="184" height="1"></rect>
                    <rect id="Rectangle" x="0" y="17.9732143" width="184" height="1"></rect>
                    <rect id="Rectangle" x="0" y="23.9642857" width="184" height="1"></rect>
                    <rect id="Rectangle" x="0" y="29.9553571" width="184" height="1"></rect>
                    <rect id="Rectangle" x="0" y="35.9464286" width="184" height="1"></rect>
                    <rect id="Rectangle" x="0" y="42.4821429" width="184" height="1"></rect>
                    <rect id="Rectangle" x="0" y="48.4732143" width="184" height="1"></rect>
                    <rect id="Rectangle" x="0" y="54.4642857" width="184" height="1"></rect>
                    <rect id="Rectangle" x="0" y="60.4553571" width="184" height="1"></rect>
                    <rect id="Rectangle" x="3.02631579" y="51.7410714" width="12.1052632" height="2.17857143"></rect>
                    <rect id="Rectangle" x="23" y="46.2946429" width="12.1052632" height="2.17857143"></rect>
                    <rect id="Rectangle" x="42.9736842" y="34.3125" width="12.1052632" height="2.17857143"></rect>
                    <rect id="Rectangle" x="62.9473684" y="39.7589286" width="12.1052632" height="2.17857143"></rect>
                    <rect id="Rectangle" x="82.9210526" y="28.3214286" width="12.1052632" height="2.17857143"></rect>
                    <rect id="Rectangle" x="102.894737" y="39.7589286" width="12.1052632" height="2.17857143"></rect>
                    <rect id="Rectangle" x="122.263158" y="22.3303571" width="12.1052632" height="2.17857143"></rect>
                    <rect id="Rectangle" x="142.236842" y="10.3482143" width="12.1052632" height="2.17857143"></rect>
                    <rect id="Rectangle" x="162.210526" y="16.3392857" width="12.1052632" height="2.17857143"></rect>
                    <polygon id="Path" opacity="0.1" points="162.029432 18.0859935 162.029432 42.41377 154.4404 42.41377 154.4404 11.4375 142.154043 11.4375 142.154043 42.41377 134.56501 42.41377 134.56501 23.2234658 122.278653 23.2234658 122.278653 42.41377 94.8142313 42.41377 94.8142313 29.2678851 82.527874 29.2678851 82.527874 42.41377 62.4718027 42.41377 62.4718027 48.3070872 55.0634522 48.3070872 55.0634522 35.3119701 42.7770949 35.3119701 42.7770949 48.3070872 22.9017053 48.3070872 22.9017053 54.3511722 3.02631579 54.3511722 3.02631579 61 22.9017053 61 74.9388418 61 82.527874 61 94.8142313 61 162.029432 61 174.315789 61 174.315789 54.3511722 174.315789 18.0859935"></polygon>
                </g>
                <g id="Group-3" transform="translate(23.000000, 36.000000)" fill="#6C63FF">
                    <path d="M5.97587302,7.35294118 C2.67548948,7.35294118 0,5.70692923 0,3.67647059 C0,1.64601195 2.67548948,0 5.97587302,0 L77.6863492,0 C80.9867327,0 83.6622222,1.64601195 83.6622222,3.67647059 C83.6622222,5.70692923 80.9867327,7.35294118 77.6863492,7.35294118 L5.97587302,7.35294118 Z" id="Path"></path>
                    <path d="M175.051643,25 L5.94835681,25 C2.66317006,25 0,23.3539881 0,21.3235294 C0,19.2930708 2.66317006,17.6470588 5.94835681,17.6470588 L175.051643,17.6470588 C178.33683,17.6470588 181,19.2930708 181,21.3235294 C181,23.3539881 178.33683,25 175.051643,25 L175.051643,25 Z" id="Path"></path>
                </g>
                <g id="Group" transform="translate(222.000000, 80.000000)" fill="#6C63FF">
                    <path d="M33.7745025,6.16604866 C33.7222864,5.77343413 33.6166864,5.38893056 33.4603512,5.0221825 C33.4200399,4.88195465 33.3196051,4.76430318 33.1835896,4.69797814 C33.0936662,4.6757458 32.9993936,4.67474457 32.9089707,4.69506152 L31.499035,4.90024949 C31.3810249,4.90537539 31.2680302,4.94713223 31.1773399,5.01913099 C30.9937035,5.20281252 31.1745301,5.49857982 31.1689067,5.75198319 C31.1333862,6.04295675 30.9082675,6.28073955 30.6077169,6.34474277 C30.3130532,6.40136671 30.0091011,6.39778273 29.7160039,6.33422835 L27.744499,6.04283598 C28.3251331,5.86653023 28.8419523,5.53851387 29.2359643,5.09622823 C29.4954073,4.80391348 29.6334355,4.25816984 29.2584809,4.11973969 C29.1470729,4.0906647 29.0309063,4.08179322 28.9160478,4.09358854 C28.0228207,4.10019468 27.3199229,3.39088326 26.4837117,3.09214466 C25.3858406,2.72528176 24.1644258,3.07158475 23.4569668,3.95030586 L24.507212,3.99846293 C24.6060178,3.99327812 24.7039953,4.01813094 24.7869636,4.06942433 C25.0171319,4.24928144 24.7309749,4.59474797 24.7634005,4.87638424 C24.8055281,5.24229264 25.3163526,5.32041799 25.7014001,5.35741898 C26.0864476,5.39441997 26.5749741,5.69197735 26.3897469,6.01517912 C24.4543513,6.64920889 22.4848779,4.77578996 20.4523052,5.00639264 C19.9436227,5.09939799 19.4417668,5.22346782 18.9498537,5.37783169 C15.8817095,6.11614162 12.7098142,4.14624814 9.57554237,4.56343439 C8.87876118,4.67641453 8.19394532,4.84819686 7.52921208,5.0767452 C7.09094468,5.17735732 6.6852847,5.37860051 6.34773507,5.66286217 C6.00978973,5.9659637 5.95291082,6.45745809 6.21345201,6.82321088 C5.40413286,6.88659692 4.58940787,6.81294018 3.80713993,6.60566373 C4.23803035,6.83347058 4.5038176,7.26680516 4.50023233,7.73566864 C3.23658065,7.93165154 2.00638875,8.28840799 0.842746841,8.79634181 C1.05992398,9.13983219 1.31358867,9.46121976 1.59975508,9.75545457 L0,10.7329421 C0.264020596,10.813953 0.47498871,11.0047454 0.573346151,11.251457 C0.671703592,11.4981686 0.646778508,11.774031 0.505607472,12.0011657 C1.06603061,11.764048 1.4133243,11.150646 2.01259373,11.0262849 C2.41458906,10.9860517 2.82006299,11.0608309 3.17711239,11.2410503 C3.53491762,11.4212854 3.94571485,11.4828477 4.34445616,11.4159893 C4.73000965,11.3082967 5.01438798,10.8328181 4.76939644,10.5298796 C6.41736013,10.0725758 8.12049614,9.81950338 9.83658762,9.77693549 C9.96898273,9.76113235 10.103249,9.78536759 10.220351,9.84620525 C10.4437421,9.99360766 10.3849666,10.3119897 10.372934,10.5703295 C10.3609014,10.8286692 10.5726011,11.1681895 10.8153655,11.051747 C10.5297529,11.2873007 10.7739126,11.7307438 11.0479296,11.9784452 C11.3219466,12.2261466 11.6522129,12.5679308 11.4844578,12.890141 C11.4406705,12.9742345 11.3663933,13.0415209 11.3242811,13.1263873 C11.1999338,13.3768522 11.3973699,13.6688789 11.6302483,13.8352102 C11.8854071,13.9688733 12.1152203,14.1422462 12.3101466,14.3481309 C12.4719104,14.5784638 12.3984535,14.9816393 12.109184,15.0138024 L11.2869604,14.0209297 C11.0060487,14.2979669 10.8134661,14.6450673 10.7315473,15.0219762 C11.6090896,15.759403 11.7289107,17.0200687 11.0046367,17.895213 C10.5905458,18.2753949 10.1320899,18.6092797 9.63820856,18.890357 C9.13917155,19.1794847 8.81011056,19.6731021 8.74801742,20.2257139 C8.75002605,21.1713118 8.66879153,22.0498091 9.04135025,22.9265055 C9.72835213,24.543043 10.5215223,26.1169066 11.4161682,27.6387852 C11.6511051,28.038417 11.9547418,28.4764316 12.4306721,28.5452383 C11.8291845,27.1525734 11.2877258,25.738238 10.806296,24.3022321 C11.1208414,24.2592044 11.4385465,24.3576707 11.6660472,24.5686946 C11.7757633,24.7925909 11.8326961,25.0365906 11.8328593,25.2836096 C11.8930159,25.5188694 11.9933281,25.7431549 12.1298031,25.9475384 L15.0020675,30.8136735 C15.1927317,31.2432922 15.5342643,31.5966547 15.9683643,31.8134403 C16.2732936,31.8675179 16.5728291,31.9461861 16.8637265,32.048593 C17.0736322,32.1664573 17.2150106,32.3756811 17.4289987,32.486706 C18.0340564,32.8006365 18.8754539,32.1985693 19.4409025,32.573388 C19.5859566,32.6998385 19.7239792,32.833397 19.8544081,32.9735193 C20.3766443,33.4036517 21.2333327,33.1159051 21.8362054,33.4367736 C22.1964256,33.6892521 22.473052,34.0345987 22.6333441,34.4319394 C23.1524561,35.3707561 23.9924009,36.2905127 25.1049021,36.3652694 C25.4546515,36.351394 25.805004,36.3628896 26.1529164,36.3996564 C26.4945139,36.4735818 26.8307716,36.7571175 26.7759367,37.0862072 C26.6819336,37.6503948 26.9750173,38.2681681 26.8963012,38.8344703 C26.7529372,39.8659954 25.2145296,40.3192968 25.0824009,41.3521782 C25.0829373,41.5797111 25.069498,41.8070796 25.0421516,42.0331218 C24.9727695,42.3044259 24.7585284,42.5253199 24.6824037,42.7949835 C24.5381426,43.3060229 24.9231058,43.8146125 25.3460068,44.1584238 C25.7689077,44.5022352 26.2733537,44.7987024 26.504557,45.2799815 C26.7489391,45.7886876 26.6289004,46.3818337 26.7083755,46.9359881 C26.8818843,48.1457663 27.980536,49.0426128 29.1111993,49.6208841 C29.4729835,49.7656558 29.7940271,49.9891066 30.0485434,50.2732886 C30.3395648,50.6722204 30.31057,51.1981383 30.407747,51.6748091 C30.6457429,52.8421868 31.6790259,53.8040886 31.7083734,54.9928963 C31.7292263,55.8378634 31.2353793,56.6044135 30.9403752,57.401683 C30.3807157,58.9474033 30.5568032,60.6483203 31.4226841,62.0605447 C31.6670353,62.4006982 31.881347,62.7595145 32.0634218,63.1333146 C32.3420042,63.818943 32.251612,64.5983445 32.5084637,65.2916145 C32.8480563,66.2081628 33.7811877,66.9652048 33.6918765,67.9332789 C34.1155173,68.7699847 35.0509908,69.1811116 35.9916583,69.4301547 L37.6775507,69.8764889 C37.9937322,69.9855819 38.3322795,70.0231533 38.6663755,69.9862268 C39.0086702,69.9394052 39.2715935,69.6739315 39.30029,69.3461632 C38.4602521,69.2224654 37.6562233,68.9347498 36.9387926,68.5011195 C36.2572843,68.0219697 35.7904388,67.1687303 36.0490155,66.4011119 C36.1689161,66.0451711 36.4239968,65.6341426 36.1814815,65.3400377 C36.0426292,65.1716429 35.7887292,65.1276457 35.632102,64.9740017 C35.4267816,64.6925844 35.4329202,64.3179995 35.6473623,64.0428047 C35.8618659,63.7785364 36.0307484,63.483463 36.1476645,63.1686713 C36.2209002,62.79413 36.0416619,62.4157505 35.6981722,62.219774 C36.010773,62.1075314 36.2950708,61.9340367 36.53262,61.7105465 C36.770974,61.4770268 36.8302015,61.1266093 36.6808063,60.8338064 C37.1934325,60.8956388 37.7986358,60.9259243 38.1351465,60.5529649 C38.370328,60.2227303 38.4239566,59.8050022 38.2792312,59.430649 C38.1334385,59.0634265 38.0356274,58.6805612 37.9879952,58.2906546 C39.170525,58.3439606 40.3556541,58.3057399 41.5316711,58.1763705 C41.3616156,57.6316502 40.9751704,57.1713441 40.4542787,56.893057 C40.9868992,56.8073448 41.4721252,56.2008807 41.6404016,55.7126784 C41.7836397,55.2146189 41.7909883,54.690048 41.6617529,54.1885358 C41.6218078,54.0587352 41.6163341,53.9215385 41.6458218,53.7892321 C41.7311496,53.6149525 41.8812821,53.4768786 42.0672853,53.4016204 L44.7110183,51.9575646 C44.8687778,51.8823857 45.0117789,51.7819791 45.1337774,51.6607291 C45.3743357,51.3157218 45.4099508,50.8768588 45.227907,50.5008288 C45.045037,50.1336297 44.9030547,49.7492444 44.8042777,49.3539476 C44.640881,48.1485298 45.997611,47.2836494 46.4554829,46.1489451 C46.6117888,45.6949529 46.6964031,45.2214152 46.7065616,44.7438007 C46.7439091,44.2327539 46.7466844,43.6391485 46.3341102,43.3098182 C45.9386248,42.9941304 45.3206835,43.0645522 44.9068482,42.7709067 C44.5274356,42.5016843 44.3965412,41.9788216 43.9820465,41.7613692 C43.60562,41.5638921 43.1336763,41.6894855 42.7150302,41.5966093 C41.9778936,41.433078 41.5140457,40.6250827 40.7612426,40.5502713 C40.336494,40.5080605 39.8557759,40.7055522 39.5076542,40.4702866 C39.200905,40.2629804 39.1886117,39.8463082 39.1302234,39.4927481 C38.9206435,38.3673275 37.9961341,37.485205 36.8135177,37.2822589 C36.3755827,37.2154646 35.898901,37.2408319 35.5263308,37.0119354 C35.1490763,36.7801552 34.9761118,36.3462166 34.6797775,36.0252387 C34.2021835,35.5079249 33.4499937,35.3241267 32.7453632,35.1665817 L29.879232,34.5257489 C29.3704391,34.4120007 28.714606,34.3516667 28.4415741,34.7755502 C28.3607521,34.9369451 28.3035336,35.1081006 28.2715114,35.2842528 C28.0616358,35.9380034 27.4324318,36.3884336 26.7138264,36.3993574 C26.4736306,36.0096764 26.0844677,35.7232883 25.6275715,35.5999734 C25.3302751,35.5523528 25.0366563,35.485893 24.7486769,35.401038 C24.4435866,35.2594067 24.2132822,35.0045352 24.1119326,34.6963704 C24.010583,34.3882057 24.047133,34.0539459 24.212986,33.7722106 C24.5526969,33.1969722 24.4450958,32.476596 23.9503806,32.0141003 C23.4258364,31.6287652 22.7616155,31.4578216 22.1043422,31.5390045 C21.9331678,31.1837782 22.2193708,30.7829943 22.5277952,30.5248405 C22.8362196,30.2666867 23.2107217,30.0129005 23.2778882,29.6274033 C23.3835406,29.0210158 22.5700339,28.5604485 21.9523456,28.7412572 C21.3346574,28.9220658 20.9404407,29.4926737 20.6798363,30.0551405 C20.5546452,30.3874854 20.3822087,30.7019668 20.1673289,30.9898265 C19.9434192,31.2808508 19.5666071,31.427579 19.1923997,31.3694576 C18.6837984,31.245822 18.4873705,30.6711236 18.3748029,30.1834609 C18.1939396,29.5352136 18.1027425,28.8672998 18.103519,28.1966182 C18.1078966,27.5188856 18.3905554,26.8696085 18.8911933,26.387303 C19.7366541,25.6490878 21.0336388,25.7214565 22.1746596,25.8392151 C21.9209727,25.5195669 21.9576397,25.070197 22.2601414,24.7916011 C22.5692606,24.5303882 22.9940269,24.4311399 23.3952206,24.5263854 C23.7390488,24.5944502 24.0487893,24.7705845 24.2745712,25.0264292 C24.5988193,25.4024145 24.6910208,25.9100635 24.9361082,26.3368345 C25.1811956,26.7636055 25.7322771,27.1276035 26.1833449,26.8986487 C26.5729463,26.7008872 26.6347845,26.1870696 26.5378182,25.7773025 C26.3848004,25.3833002 26.2945424,24.9697632 26.2700341,24.5503892 C26.3370549,23.7514864 27.2077922,23.2705975 27.9761661,22.9415771 C28.7445399,22.6125567 29.6243583,22.1700469 29.7460912,21.3770102 C29.7502552,21.2217385 29.7810546,21.068156 29.8372731,20.9223271 C29.9224741,20.7935264 30.0409066,20.6875998 30.1813047,20.6146235 C32.4238252,19.2051115 34.7036396,17.7783877 37.2667321,17.008221 C37.4000837,16.9681503 37.4157311,17.0126834 37.551628,16.9812896 C37.7418268,16.8767397 37.6158006,16.5875239 37.4334484,16.4710158 C37.2510963,16.3545077 37.0073582,16.265157 36.9610945,16.0609096 C36.9270858,15.9107692 37.0200961,15.7633449 37.0442572,15.6114874 C37.0568283,15.4252976 36.9712676,15.2453436 36.8159722,15.1313508 C36.6606767,15.0173581 36.4559626,14.9842395 36.2697731,15.0429868 C36.0638847,14.7836591 36.4712763,14.482332 36.8006801,14.3960729 C37.7898477,14.1371322 38.8052504,13.9793509 39.829633,13.9254104 C39.9478411,13.907534 40.0689499,13.9271253 40.1742971,13.9811652 C40.3304065,14.1246499 40.3427131,14.3587111 40.2024333,14.5162924 C40.0615567,14.6633428 39.9063453,14.7973652 39.7388805,14.9165622 C39.4004651,15.2301111 39.2739048,15.6968583 39.4106765,16.1269602 C39.9454551,16.3856791 40.5268424,16.6520104 41.1191238,16.5608659 C41.7114051,16.4697215 42.2371143,15.8367891 41.9587158,15.3312985 C41.6994645,14.8605667 40.9207217,14.7543944 40.7868028,14.2384842 C40.6300223,13.6344446 41.5290606,13.0972211 41.3265263,12.5056099 C41.2378169,12.2464681 40.9662724,12.0939543 40.7579115,11.9068676 C40.2542311,11.4373395 40.1057298,10.7216762 40.3840955,10.105358 C39.6954127,10.2205882 38.990756,10.0108649 38.493986,9.54281464 C38.0418909,9.10887239 37.6812153,8.42434132 37.0392356,8.44375873 C36.450109,8.46157928 35.9426769,9.11526708 35.3918139,8.9158358 C35.2562927,8.86677093 35.113404,8.7669131 34.9820955,8.82542053 C34.8949066,8.87926577 34.8385594,8.96822166 34.8292633,9.06669804 C34.6892763,9.7032507 34.9300781,10.4285306 34.5653163,10.9785909 C34.1683703,11.5771618 33.2502155,11.6601506 32.7689953,12.1999261 C32.5077698,12.4929299 32.406564,12.8877493 32.1664484,13.1966597 C31.9263328,13.50557 31.4167119,13.7019643 31.1285616,13.4327638 C31.420202,12.86254 31.2590037,12.1763087 30.7399338,11.7783504 C30.472405,11.6123475 30.184026,11.4789388 29.8815588,11.3812523 C29.5435774,11.2451864 29.2220576,11.0747582 28.9226065,10.8729399 C28.7725996,10.7868796 28.6507122,10.6628385 28.5705673,10.5146803 C28.5071711,10.3291642 28.5157108,10.1281904 28.5946402,9.94814482 C28.8924347,9.13612909 29.6386959,8.54784545 30.5328993,8.42019971 C30.916563,8.37055882 31.3630922,8.38805125 31.616996,8.11002431 C31.7513404,7.96291356 31.8218303,7.74049929 32.0168323,7.6807523 C32.1415623,7.65691854 32.2710518,7.67208478 32.3859756,7.72398757 L33.8180024,8.20338172 C33.9777787,8.27198707 34.1536437,8.29965167 34.3281369,8.28362891 C34.5076102,8.26063363 34.6380462,8.10986085 34.6272043,7.9379327 C34.5814505,7.7117487 34.2155118,7.60321392 34.248819,7.37507214 C34.2674689,7.30114133 34.3092606,7.23433048 34.3686737,7.18346468 C35.4150593,6.12419938 36.9042606,5.5648818 38.4292767,5.65837422 C38.6100227,5.94070683 38.3241609,6.27503551 38.0863146,6.51605782 C37.8484682,6.75708014 37.6573225,7.18771931 37.9449668,7.37324196 C38.0628462,7.43045954 38.1939695,7.4585437 38.3262577,7.45490736 C38.678821,7.50029118 39.0214566,7.59913022 39.3411258,7.74766325 C39.835972,7.95247813 40.3213219,8.17657189 40.7971756,8.41994451 C40.7284654,8.12463092 40.7411322,7.8174434 40.8339481,7.52815466 C40.9411389,7.23297623 41.2672702,7.06421107 41.5860766,7.1389461 C41.8705891,7.2436674 42.0165023,7.60195977 42.3196176,7.63479364 C42.7239579,7.67858307 42.8834907,7.110458 42.7145817,6.7583197 C42.5456728,6.4061814 42.2113356,6.1113219 42.1834256,5.72518673 C42.1645966,5.46468503 42.268823,5.14160722 42.050028,4.98386539 C41.9721716,4.93650846 41.8837951,4.90703511 41.7918922,4.89777766 L36.328997,3.94167266 C36.0045994,3.88489697 35.5358948,3.92841297 35.5215162,4.24182583 C35.5134855,4.41676843 35.6777907,4.58984805 35.60502,4.75069608 C35.5273466,4.92236842 35.2721892,4.90667335 35.086345,4.96739377 C34.8011537,5.09219983 34.6362239,5.3805311 34.6809773,5.67605988 C34.7316868,5.96301708 34.8485381,6.23574506 35.0231498,6.4746819 C34.6678599,6.33336065 34.1298345,6.30738084 33.7745025,6.16604866 Z" id="Path"></path>
                    <path d="M29.1649437,2.30547034 C28.5557733,2.05821468 27.8855539,2.3043919 27.4874714,2.92162003 C27.3946816,3.03526592 27.3642808,3.20473864 27.4096122,3.3556554 C27.5028123,3.55031464 27.740288,3.4734258 27.9153645,3.40379362 C28.1727011,3.29103318 28.4527935,3.2828382 28.7142213,3.38042055 C28.8786194,3.44965094 29.0257011,3.57200342 29.1908173,3.63861201 C29.3546092,3.72263844 29.5428418,3.68890133 29.6801797,3.55090313 C29.7775252,3.38990972 29.820712,3.18919555 29.800812,2.99025382 C29.8167294,2.8557215 29.7823097,2.71956185 29.7071322,2.61966951 C29.6410372,2.57272036 29.5667672,2.5457775 29.4904838,2.54107609 C29.3196393,2.50229428 29.1651842,2.39160821 29.0537555,2.22810665" id="Path"></path>
                    <path d="M31.2106258,1.47438694 C31.0125361,1.46539335 30.8231504,1.54321408 30.710898,1.67973084 C30.5986455,1.8162476 30.579756,1.99172245 30.6610545,2.1427526 C30.9602041,2.21084288 31.2727404,2.22785192 31.5799514,2.19276137 C31.8932797,2.15216135 32.1466248,1.95830016 32.2222222,1.70129202 C31.8605252,1.7562257 31.4872799,1.69673064 31.1752974,1.53441284" id="Path"></path>
                    <path d="M38.0824836,0.519687131 C37.4492765,0.639078052 36.8341873,0.824381763 36.25,1.07174697 C36.8154025,1.2644867 37.1723486,1.76230049 37.1293563,2.29813871 C37.104642,2.39833865 37.1075038,2.50234361 37.1376996,2.60135523 C37.2049955,2.74605535 37.4000205,2.80034838 37.5714734,2.83748798 C37.8795107,2.92062579 38.2011668,2.95703572 38.5228755,2.94518212 C38.8498125,2.93001164 39.1460159,2.7694879 39.310392,2.51839744 C39.3570135,2.40109468 39.4117045,2.28643856 39.4741571,2.17507496 C39.8851273,1.62000199 41.1059995,2.2911671 41.5472389,1.75468064 C41.7026721,1.56569561 41.6884565,1.28122259 41.8910789,1.13147164 C41.9958985,1.06622747 42.1173641,1.02511794 42.2445466,1.01184192 C43.1318791,0.855496627 44.0281858,0.74228767 44.9294545,0.672721782 C45.3564935,0.639764481 45.9131147,0.503783045 45.9166667,0.123641658 C44.308172,-0.156513165 42.6403717,0.0424645907 41.1725459,0.689641377 C40.6437004,0.924548163 39.9442532,1.41868386 39.4348477,1.10725307 C39.244113,0.990646492 39.2535562,0.676663563 38.9910431,0.545539204 C38.7008669,0.44317601 38.3794619,0.434030781 38.0824836,0.519687131 L38.0824836,0.519687131 Z" id="Path"></path>
                    <path d="M42.9608116,1.49575074 L43.7150112,1.62758999 C43.4341607,1.61627503 43.1615553,1.71553251 42.9668382,1.9000049 C42.7721212,2.08447729 42.6741519,2.33629738 42.6979588,2.59113209 C43.4042398,2.80577777 44.1742417,2.59690307 44.9182263,2.62543624 C45.6622108,2.65396941 46.5278431,3.13744505 46.4008414,3.80496237 C46.3624417,4.0067962 46.2342774,4.20849653 46.3009256,4.40414863 C46.3728883,4.53155872 46.4581785,4.65236405 46.5556138,4.76488989 C46.678471,5.04948245 46.6142029,5.37278858 46.3895653,5.60021072 C46.1921228,5.83945325 45.9267379,6.03034412 45.7534316,6.28459601 C45.3223932,6.91695345 45.5672878,7.73446501 45.8240529,8.44092106 C45.898298,8.70785215 46.0353935,8.95692531 46.225857,9.17091287 C46.6062715,9.538873 47.2262041,9.57088382 47.7813998,9.57823617 C48.1854877,9.58359983 48.6483979,9.56544143 48.903944,9.28060949 C49.2375649,8.9087507 49.0042775,8.32857171 49.2239297,7.89214362 C49.4234152,7.49577355 49.9316479,7.3257349 50.3921464,7.20513298 C51.2450867,7.01512515 52.0810771,6.76691828 52.8930179,6.46262025 C53.8833643,6.04821158 54.80891,5.4024022 55.8974153,5.34905654 C56.2030098,5.3604685 56.5090514,5.34091769 56.8098939,5.29076481 C57.1183582,5.23229309 57.3447733,4.99205512 57.3612068,4.70579378 C57.34218,4.46870766 57.1216925,4.29460947 56.9494058,4.11588011 C56.7771192,3.93715076 56.6418212,3.66232733 56.8001642,3.47322663 L59.653277,2.98841264 C59.4510374,2.48699424 59.2934882,1.82662048 59.7582157,1.50024156 C59.9258933,1.38249432 60.1503992,1.33541596 60.2931656,1.19305134 C60.5071686,0.91243843 60.4362215,0.527774448 60.1332612,0.326075672 C59.8312907,0.142314026 59.4760961,0.0443528661 59.1127962,0.0446358091 C57.8592839,-0.0237249392 56.602087,-0.0135532137 55.3501094,0.0750789472 L47.9994305,0.441635688 C47.4896318,0.422627492 46.9794567,0.46980466 46.4842889,0.581744635 C46.1347413,0.760344858 45.7689584,0.911267075 45.3909828,1.03284321 C44.5823555,1.18716055 43.6925042,1.08276256 42.9608116,1.49575074 Z" id="Path"></path>
                    <path d="M56.6805906,7.0550067 C56.6077559,7.04565777 56.5332775,7.0593618 56.47254,7.09328801 C56.4323794,7.12916301 56.4084915,7.17507289 56.4048169,7.22344387 C56.3586721,7.43692181 56.4136374,7.65666251 56.5587048,7.83865829 C56.7091942,8.020485 56.9694593,8.12172599 57.2384312,8.10306632 C57.5602699,8.06976943 57.7974521,7.84700711 58.0933326,7.73830763 C58.5493551,7.57092636 60.4860103,7.30998977 59.1463434,6.72278987 C58.6846621,6.52042516 58.3863391,6.69906836 58.022461,6.83233406 C57.6084469,7.00416565 57.1445159,7.08115128 56.6805906,7.0550067 Z" id="Path"></path>
                    <path d="M69.6865563,1.91444908 C69.5305507,1.97584336 69.4000423,2.08527451 69.3154105,2.22565438 C69.2344347,2.37369459 69.2882038,2.55689567 69.4376596,2.64217959 C69.4959298,2.66253104 69.5577001,2.67197047 69.6196481,2.66999018 L70.2539675,2.68824399 C70.5234388,2.69599903 70.8600423,2.75127083 70.9324373,3.00143258 C70.9862064,3.18717679 70.8658633,3.42586012 71.0110658,3.5585967 C71.073383,3.60508271 71.1483155,3.63323542 71.2268498,3.6396684 C71.4358023,3.69137273 71.6540057,3.69815547 71.865984,3.65953555 C72.3275141,3.54028466 72.0850038,3.26893699 72.2303664,3.02732496 C72.4527786,2.65763829 72.414275,2.8814281 72.8061696,2.66955173 C73.095586,2.51308075 73.4695765,2.22923732 73.2280121,1.83043499 C72.8079475,1.13694107 70.306428,1.61652052 69.6865563,1.91444908 Z" id="Path"></path>
                    <path d="M82.6647011,0.821549188 L82.2859109,0.880981873 C81.4284073,0.986684054 80.5800671,1.17765282 79.75,1.45183748 C80.106124,1.61738317 80.4797539,1.72517457 80.860604,1.77224427 C81.0702517,1.78432762 81.2785035,1.81913245 81.4827105,1.876216 C81.8460869,2.003401 82.2122278,2.33182645 82.563295,2.16358504 C82.7809617,2.05926935 82.8519935,1.79280042 83.0323012,1.65157739 C83.1568081,1.55406359 83.6290324,1.39623139 83.6818236,1.29780608 C84.1085888,0.502114093 82.9927554,0.77007927 82.6647011,0.821549188 Z" id="Path"></path>
                    <path d="M84.4656099,2.5397469 C84.0317155,2.80486767 83.6291484,3.12702646 83.2668883,3.4990372 C83.0957913,3.63606849 82.9881277,3.84804545 82.9722222,4.0791999 C82.9906177,4.38276241 83.2865287,4.55883991 83.5428985,4.67745285 L84.5813106,5.15789474 C84.7072847,4.96387092 84.5919728,4.69603999 84.4617934,4.50537104 C84.331614,4.31470209 84.1768865,4.09410662 84.234406,3.86466307 C84.3000476,3.60282909 84.5921955,3.51360466 84.8371818,3.46849727 C85.2363407,3.395002 86.3131023,3.400903 86.1837257,2.69794662 C86.0312779,1.86963671 84.8662928,2.2950094 84.4656099,2.5397469 Z" id="Path"></path>
                    <path d="M84.6594327,52.3416398 C84.5384771,52.6819408 84.5627065,53.06714 84.7250091,53.3841744 C84.9492111,53.711523 85.3205821,53.8581652 85.673808,53.7588239 C86.0194699,53.6537291 86.3275696,53.427362 86.5547075,53.1116095 C86.7624366,52.847072 86.9333274,52.5476001 87.0613873,52.2236955 C87.2401165,51.7189403 87.3661702,51.191875 87.4369405,50.6534033 L87.77379,48.6323793 C87.8490644,48.1806928 87.8461485,46.7958907 87.1196607,47.2470718 C86.921195,47.3703288 86.4616784,48.3434942 86.2536883,48.6194549 C85.8788297,49.1168298 85.8292321,49.5994269 85.6318902,50.2019751 C85.3847115,50.9566917 84.8879329,51.5856989 84.6594327,52.3416398 Z" id="Path"></path>
                    <path d="M130.06157,62.2756048 C129.793588,62.1680899 129.533515,62.0408024 129.283382,61.8947368 C129.032555,62.6037065 128.899206,63.3509218 128.888889,64.1052632 L130.722561,63.0384456 C130.998402,62.8779647 131.311043,62.6549804 131.305115,62.3291731 C131.310177,62.2472154 131.271293,62.1689606 131.203737,62.1251449 C131.162987,62.1083326 131.118618,62.1029812 131.07519,62.1096405 C130.806574,62.1596701 130.545551,62.2459165 130.298879,62.3661473 C130.04821,62.4862953 129.758997,62.487853 129.507118,62.3704116" id="Path"></path>
                    <path d="M139.890018,63.2889902 C139.690214,63.3451712 139.495007,63.4175317 139.306212,63.5053995 C138.888441,63.7249639 138.60424,64.1419998 138.2283,64.4311907 C137.854151,64.6882306 137.443119,64.8827509 137.010332,65.0075917 C136.957686,65.0741349 136.935025,65.1607182 136.948041,65.2455974 C136.961057,65.3304766 137.008513,65.405588 137.078491,65.4520684 C137.22445,65.5378351 137.391852,65.5767009 137.559304,65.5636989 C138.000603,65.6130662 138.44672,65.5420762 138.853174,65.3578076 C139.071159,65.2117516 139.27514,65.0445217 139.462336,64.8583962 C139.931364,64.4888453 140.447249,64.1874943 140.995566,63.9627691 C141.191274,63.886441 141.372239,63.7746801 141.529966,63.6327332 C141.867852,63.2888841 141.891609,62.7584224 141.404404,62.6413909 C141.010747,62.5468346 140.264854,63.1637359 139.890018,63.2889902 Z" id="Path"></path>
                    <path d="M144.003373,60.1151535 C144.042577,59.6795923 143.891072,59.2490586 143.592428,58.9473684 C143.626762,59.3784537 143.541725,59.8107962 143.347757,60.1913182 C143.18533,60.4447235 142.930664,60.6159076 142.752716,60.8572892 C142.546623,61.0860909 142.526248,61.4393232 142.704506,61.6930884 C142.837924,61.8008195 143.000432,61.8602122 143.168071,61.8625105 C143.583572,61.9144112 144.064502,61.9433382 144.355921,61.6248041 C144.514982,61.4509462 144.592352,61.1934424 144.786346,61.0656213 C144.858615,61.033421 144.923149,60.9844164 144.97519,60.9222218 C145.055291,60.7871019 144.928018,60.6090285 144.784751,60.560342 C144.641483,60.5116555 144.483606,60.5345328 144.339619,60.4883033 C144.195632,60.4420738 144.063536,60.2702635 144.137417,60.1312068" id="Path"></path>
                    <path d="M136.910511,44.2167883 C136.642132,44.2729085 136.364189,44.2869974 136.09,44.2583799 C135.647533,44.1372358 135.244239,43.9286337 134.912461,43.6493019 C134.038438,43.0771395 132.975924,42.7579661 131.877641,42.7376587 C130.878554,42.7214354 129.870133,42.9542087 128.888889,42.7918039 C128.985561,43.0971486 129.242558,43.3461513 129.583687,43.4649891 C129.909245,43.6016617 130.268556,43.6704375 130.595679,43.8043262 C131.119573,44.0208744 131.535107,44.3925495 131.76607,44.8511865 C131.847763,45.0702816 131.95893,45.2804265 132.097313,45.4773529 C132.480748,45.8237337 133.038721,45.9845052 133.587489,45.9067249 C134.298925,45.8664893 135.041979,45.6905662 135.70385,45.9184581 C136.181629,46.1449884 136.617009,46.4320842 136.995347,46.7700895 C137.418126,47.0663589 138.013587,47.286249 138.499042,47.0724795 C137.464085,46.7843893 136.767227,45.9511793 136.779041,45.0159324 C137.255169,45.0535763 138.626552,45.039011 138.552684,44.343451 C138.490067,43.7539433 137.319331,44.1531686 136.910511,44.2167883 Z" id="Path"></path>
                    <path d="M129.833137,49.2477546 C129.91059,48.8347644 130.334219,48.4700613 130.202259,48.0703431 C130.073905,47.8000246 129.788536,47.6335476 129.482799,47.650628 C129.184264,47.6438142 128.89099,47.7302672 128.592492,47.7384076 C128.3982,47.72838 128.203434,47.7310687 128.009513,47.7464554 C127.416976,47.8411519 127.05175,48.4449576 126.493341,48.6596499 C126.139603,48.7455325 125.780933,48.8109253 125.419223,48.8554833 C124.617621,49.0603425 124.110416,49.7967652 123.550065,50.3905102 C122.644678,51.3455732 121.465172,52.014324 120.164333,52.3101375 C119.698386,52.3636798 119.251088,52.5196282 118.85633,52.7661658 C118.376585,53.1472633 118.258493,53.8005901 118.151758,54.3938727 C117.85687,56.0324217 117.406203,57.6408278 116.805556,59.1984 L118.708952,59.4346647 C119.06785,59.5042576 119.437852,59.4990322 119.79452,59.4193336 C120.047881,59.3264138 120.287867,59.2021343 120.508547,59.0495663 C121.356261,58.5378853 122.305028,58.2049315 123.293457,58.0722487 C123.790471,57.9817274 124.303059,58.0166408 124.782235,58.1736523 C125.267133,58.3404964 125.616902,58.7549644 125.690477,59.2498984 C126.102645,59.125229 126.551936,59.2314567 126.859185,59.526221 C127.15724,59.8214716 127.352409,60.20026 127.417151,60.6091351 C127.467287,60.8623028 127.517452,61.1656459 127.759091,61.271854 C127.956228,61.3584991 128.182368,61.2651789 128.398025,61.2483826 C129.129816,61.1914538 129.737058,62.0210224 130.456342,61.8781704 C131.227752,61.7249661 131.417138,60.6017807 132.169717,60.376793 C132.601941,60.2475722 133.208203,60.4047026 133.415187,60.0138254 C133.597615,59.6693006 133.233648,59.2717268 133.271182,58.8859528 C133.317396,58.4109376 133.893725,58.2093182 134.33802,58.0066354 C135.900979,57.2217872 136.565399,55.389686 135.854379,53.8253666 C135.4146,52.9495202 134.549288,52.2600758 134.38948,51.2979044 C134.266526,50.5576302 134.566689,49.69438 134.081215,49.1116986 C133.83425,48.8152796 133.416109,48.6516625 133.269155,48.2979696 C133.21235,48.064692 133.177174,47.8269326 133.164048,47.5875468 C133.114264,47.3523597 132.903216,47.1063508 132.664335,47.1673125 C131.970905,47.3442656 131.749633,49.4268522 131.378375,49.9328567 C131.142908,50.2715471 130.690269,50.3953678 130.307688,50.2257456 C129.925108,50.0561235 129.724489,49.6426718 129.833137,49.2477546 L129.833137,49.2477546 Z" id="Path"></path>
                    <path d="M117.837292,44.2971999 C117.596399,44.1974257 117.33022,44.1833651 117.080737,44.2572359 C116.843075,44.3599514 116.704283,44.7205497 116.895037,44.8994779 C118.385787,44.7944932 119.882566,44.8245068 121.368253,44.9891754 C123.07296,45.2304672 124.760038,45.8281671 126.472222,45.6523214 C125.494175,45.3541367 124.499986,45.115727 123.494817,44.9383301 L121.818632,44.6074317 C121.368974,44.5101035 120.914626,44.4375527 120.457513,44.3900867 C119.501248,44.308469 118.777484,44.569636 117.837292,44.2971999 Z" id="Path"></path>
                    <path d="M117.999456,39.2779708 C117.895975,39.2682057 117.767814,39.2597787 117.714281,39.3603959 C117.66313,39.4565283 117.721675,39.5835476 117.694173,39.6913259 C117.656596,39.8385879 117.486048,39.8762091 117.351671,39.8561616 C117.221497,39.8110668 117.082141,39.8128844 116.952922,39.8613624 C116.828901,39.9571603 116.775666,40.1340185 116.822249,40.2954847 C116.870922,40.4515632 116.949641,40.593469 117.052721,40.7109519 C117.228785,40.9618384 117.429396,41.1893836 117.650721,41.3892427 C118.079132,41.746846 118.659532,41.9191755 118.929358,42.4382871 C118.967428,42.538901 119.025941,42.6279464 119.100147,42.6981955 C119.244528,42.7637471 119.408152,42.7451166 119.538079,42.6483318 L120.026947,42.3957328 C120.115008,42.3598588 120.193622,42.2993952 120.255484,42.2199601 C120.341406,42.0255707 120.321741,41.7927848 120.204826,41.6203077 C120.087919,41.4520068 120.020245,41.2467232 120.011199,41.0329522 C120.047071,40.6555582 120.476172,40.5112004 120.652609,40.1883032 C120.830456,39.8628236 120.714678,39.4434647 120.735182,39.0615318 C120.75917,38.6148956 121.007357,38.0339272 120.60805,37.7002196 C120.268696,37.4166144 119.944345,37.6786676 119.700696,37.9917744 C119.186888,38.65209 118.943952,39.3671592 117.999456,39.2779708 Z" id="Path"></path>
                    <path d="M122.543527,31.6056317 C122.723999,31.9933285 123.100228,32.2246918 123.297026,32.6022537 C123.510338,33.0114967 123.486033,33.5402588 123.717446,33.9369303 C123.954869,34.3439073 124.432665,34.5599751 124.565817,35.0228646 C124.711183,35.5282296 124.381358,36.1424628 124.644272,36.5840271 C124.743408,36.7299524 124.892527,36.8225667 125.055377,36.8393541 C125.218227,36.8561415 125.379892,36.7955645 125.501068,36.6723501 C125.731573,36.3907553 125.720068,35.9543562 125.47513,35.6885403 C125.319465,35.5293005 125.095944,35.4604867 124.965974,35.2744898 C124.898285,35.1671505 124.853193,35.0439732 124.834098,34.9142409 C124.763251,34.5400338 124.7746,34.152107 124.867167,33.7839181 C124.901947,33.6904718 124.910778,33.5874233 124.892506,33.4882537 C124.833991,33.2974298 124.603699,33.2838921 124.442068,33.1953713 C124.074966,32.9943156 124.083874,32.4130401 124.148012,31.9603903 C124.105309,32.2617507 123.148561,31.749192 123.04836,31.5784942 C122.849331,31.2393726 122.957656,30.5852558 122.918255,30.2105263 C122.484995,30.4919356 122.320999,31.1024874 122.543527,31.6056317 L122.543527,31.6056317 Z" id="Path"></path>
                    <path d="M111.33279,38.6662801 C111.136481,38.4500125 110.840798,38.2237645 110.577611,38.3541954 C110.383006,38.4794129 110.308167,38.724261 110.400283,38.934353 C110.496154,39.1356599 110.64377,39.3088469 110.828526,39.4367817 C111.399994,39.8531357 111.940546,40.3090859 112.446066,40.8011593 C113.302342,41.7271981 113.755939,42.9767359 114.687174,43.8298318 C114.874357,44.0276145 115.122212,44.1596234 115.39284,44.2056734 C115.672991,44.2427109 115.93586,44.0641405 116,43.7932203 C115.993909,43.5697729 115.891488,43.3594325 115.718333,43.2147691 C115.356595,42.8275471 114.960594,42.4711217 114.619047,42.0665228 C114.461314,41.9111061 114.36219,41.7073761 114.338057,41.489006 C114.336327,41.2711533 114.538198,41.0431309 114.752679,41.0970814 C114.491827,41.0314668 114.298371,40.6037933 113.915518,40.5234009 C113.595561,40.4562125 113.518157,40.6511457 113.137381,40.4904253 C112.411159,40.1838946 111.841374,39.226594 111.33279,38.6662801 Z" id="Path"></path>
                    <path d="M128.168857,17.18074 C127.989717,17.1242259 127.813595,17.0574453 127.641266,16.9806923 C127.177587,16.832961 126.564089,17.1947201 126.625896,17.7043894 C126.666961,18.0430133 126.96387,18.2713336 127.12784,18.5650661 C127.330197,19.0300025 127.348409,19.561667 127.178396,20.040975 C127.147023,20.1920187 127.087361,20.3348256 127.002958,20.4609073 C126.884949,20.5940163 126.743874,20.7017335 126.587455,20.7781645 C125.961279,21.1508823 125.409069,21.6488516 124.961352,22.2445428 C124.912674,22.2995613 124.878765,22.3674144 124.863152,22.44105 C124.841036,22.6131306 125.003981,22.7384811 125.096125,22.8820085 C125.300777,23.2008237 125.152857,23.6298339 125.173089,24.0150265 C125.166761,24.1257711 125.214868,24.2321064 125.300252,24.2961019 C125.4236,24.3626125 125.569768,24.2496385 125.636626,24.1210666 C125.858498,23.6943865 125.691357,23.009496 126.107587,22.8037671 C126.18632,22.7648516 126.281766,22.7484468 126.334296,22.6750303 C126.417627,22.5585683 126.337229,22.3861262 126.379461,22.2469255 C126.442867,22.0379191 126.712172,22.0285359 126.918847,22.0378068 C127.274869,22.0536095 127.630756,22.0033184 127.970482,21.8891983 C128.103742,21.8555555 128.224775,21.7811548 128.318589,21.6752126 C128.423055,21.4928151 128.454906,21.2738108 128.407123,21.066465 C128.282592,20.0217289 127.970825,19.0119492 127.488648,18.0916278 C127.849775,18.1834065 128.229421,18.1447892 128.567556,17.9818821 C128.744224,17.8686273 128.956083,17.5299367 128.868458,17.2994093 C128.72991,16.9348324 128.47959,17.2416818 128.168857,17.18074 Z" id="Path"></path>
                    <path d="M74.5768939,24.1887729 C74.6503292,24.4423175 74.6542547,24.7094436 74.5882981,24.9648296 C74.5104835,25.2259558 74.2374856,25.3893942 73.9553768,25.3437469 C73.7503376,25.2848248 73.6318988,25.0893507 73.4863047,24.9403002 C72.6766388,24.1115308 70.8499128,24.5913605 70.3497286,23.5660369 C70.1455764,23.147576 70.2843234,22.6462364 70.1450832,22.2044895 C69.964419,21.6793768 69.4321263,21.3365257 68.8506974,21.3707722 C68.5928626,21.4060812 68.3418973,21.4771135 68.1058402,21.581594 C66.5244309,22.182099 64.8642056,22.5758132 63.1708404,22.7519047 C62.849026,22.770496 62.5306987,22.8254139 62.2226033,22.9154945 C61.5438785,23.2117217 61.0060207,23.7372413 60.7141139,24.3893798 C60.4279478,25.0360803 60.0794766,25.6563741 59.6731291,26.2423781 C59.1545746,26.7923804 58.560369,27.2737678 57.9064865,27.6735989 C57.6666065,27.8201841 57.4668627,28.0186783 57.3236895,28.2527497 C57.2117785,28.5263921 57.1716607,28.8217173 57.2067875,29.1133163 L57.3340538,32.6613634 C57.3163716,33.1191572 57.402421,33.5752244 57.5863997,33.9988127 C57.8554065,34.5087975 58.3868214,34.8428173 58.7554957,35.2933255 C59.1317233,35.756309 59.3277035,36.3283144 59.3102735,36.9125495 C59.3024285,37.1474403 59.2778117,37.4252458 59.4707432,37.572763 C59.5881028,37.6449121 59.7254304,37.6823619 59.8652844,37.680356 L64.9272027,38.073171 C65.817631,38.142268 66.8044314,38.2558638 67.3857757,38.8990984 C67.6601424,39.2026658 67.8805465,39.6392147 68.3007941,39.671784 C68.4811149,39.6620766 68.6603331,39.6387602 68.836747,39.6020562 C69.3015616,39.619228 69.7222918,39.867767 69.9434123,40.2557994 C70.3251034,40.8053534 70.4983622,41.4616346 70.4347384,42.1168775 C70.3933881,42.5281756 70.258877,42.92803 70.2298943,43.340267 C70.1195642,44.9088843 71.522036,46.2716895 71.5492372,47.8435946 C71.5652291,48.768198 71.1023198,49.6320995 70.6509792,50.4518393 C71.3793971,51.4981219 70.7829287,52.8913686 71.072928,54.1145225 C71.3480632,55.2749627 72.3685372,56.1834246 72.6228022,57.3481313 C72.739211,57.8813479 72.7459473,58.5374907 73.2418344,58.8121135 C73.4594257,58.9126735 73.7006425,58.9584683 73.9422942,58.945095 C75.3998987,58.9614656 76.8408847,58.6504178 78.147366,58.037398 C78.7605412,57.748892 79.3960202,57.3182009 79.5031083,56.6771592 C79.5894677,56.1602001 79.3129716,55.5819556 79.5943613,55.131654 C79.9260015,54.6009349 80.7755803,54.6430014 81.2635154,54.2349657 C82.0551249,53.573005 81.4378476,52.3105504 81.7585767,51.357104 C82.0468786,50.5000717 83.0393065,50.0447605 83.5312559,49.2755657 C83.7248512,48.94476 83.863779,48.5877533 83.9431921,48.2170021 C84.1685559,47.3308938 84.3088352,46.4272575 84.3623119,45.5171609 C84.3754232,44.9642045 84.4184255,44.4122492 84.4911495,43.8634681 C85.0215399,40.7391633 88.2791545,38.6470802 89.3368003,35.6456544 C89.4378059,35.3590152 89.4852426,34.9772307 89.216297,34.8150255 C89.0567741,34.7428639 88.8759289,34.7249176 88.7041045,34.7641978 L86.3706759,35.0431306 C86.083804,35.102519 85.7852516,35.0862209 85.507464,34.9960074 C85.2244502,34.8910256 85.0835437,34.5894032 85.1917202,34.3201309 C85.5880391,33.6394696 84.7727992,32.779338 84.4106164,32.0817812 C83.435207,30.2035185 82.2736598,28.4174419 80.9416546,26.7476616 C80.8563862,26.6617643 80.8029899,26.5518434 80.7895651,26.4345717 L81.4518209,26.4554799 C81.2282667,25.6948977 80.8593438,24.8625941 80.080014,24.5843718 C79.6259892,24.4675113 79.1513957,24.4408552 78.6859951,24.5060749 C77.3085009,24.5323678 75.9317481,24.4260559 74.5768939,24.1887729 Z" id="Path"></path>
                    <path d="M77.8643576,6.69085988 C78.1793408,7.0870617 78.6281477,7.36942488 79.1362345,7.49105077 C80.0473556,7.60130421 80.702444,6.71016176 81.1195397,5.93610806 C81.151642,6.3464327 81.523242,6.65803255 81.9577908,6.63901133 C82.1826933,6.60322295 82.3973462,6.52384936 82.5882761,6.40587271 C84.3934893,5.47279615 86.415469,4.97841534 88.4726222,4.96713037 C88.4316919,4.66185187 88.6411537,4.37664313 88.9579032,4.30635865 C89.3761632,4.22792871 89.7529252,4.5699515 89.9546906,4.92524112 C90.1043646,5.30316637 90.3238185,5.65294378 90.6028278,5.95827695 C90.9233896,6.22421555 91.5440244,6.21263001 91.6706338,5.82752491 C91.7921937,5.45780477 91.3849758,5.14252489 91.0466379,4.92453629 C90.7083,4.7065477 90.351701,4.30312454 90.5795365,3.98144985 C92.2970825,3.57197401 94.0491828,3.3052738 95.8158347,3.18439395 C96.1169549,3.19430973 96.4170045,3.1454224 96.6972606,3.04078256 C96.9823646,2.92658836 97.1510744,2.64574323 97.108841,2.35563937 C96.3193877,2.5311664 95.4961253,2.23746324 95.0258893,1.61253548 C97.4800296,1.42098877 100.090265,1.25772309 102.265198,2.3499347 C102.526191,2.87986996 101.195994,3.32076989 101.551895,3.79873912 C101.693057,3.93243753 101.891811,3.99663167 102.089949,3.97252209 C103.600721,4.03951185 105.11478,3.98489696 106.61577,3.80926742 C107.155755,3.69635 107.709541,3.65387193 108.261707,3.68301597 C109.174912,3.78953971 109.955974,4.36584646 110.854395,4.55376626 C111.218162,4.65487729 111.609832,4.61075846 111.938316,4.43167033 C112.095405,4.3355335 112.204268,4.18297975 112.239773,4.00922656 C112.275278,3.83547337 112.234356,3.65553908 112.126455,3.51096202 C112.972356,2.72682421 114.376287,2.92116819 115.492232,3.29657831 C116.608177,3.67198842 117.66538,4.27739482 118.846502,4.36107422 C119.693474,4.42107963 120.552214,4.2055983 121.389126,4.34256159 C121.906497,4.46585708 122.416945,4.61381781 122.918515,4.78587702 C123.890676,5.04301634 124.91906,4.98873394 125.928434,5.00110872 C128.503841,5.03392352 131.051109,5.51266044 133.444129,6.41361842 C133.755427,6.50947777 134.040652,6.66886363 134.279628,6.88050137 C134.519636,7.10121683 134.593508,7.43784708 134.466194,7.7306723 L131.993417,7.38893217 C132.226399,7.82273248 132.829141,7.89665448 133.318637,8.04630827 C133.808133,8.19596205 134.315646,8.7072305 134.02148,9.10638802 C133.491115,8.94666481 133.010499,9.44819789 132.742586,9.90964416 C132.474673,10.3710904 132.148192,10.9237269 131.592389,10.951828 C131.09468,10.9769997 130.492749,10.5761683 130.168337,10.9340569 C130.61653,11.4688321 131.000324,12.0491785 131.312615,12.6643538 C131.633123,13.2958974 131.86142,14.0916647 131.428206,14.6598844 C131.36005,14.7613186 131.256676,14.8371385 131.135841,14.8743195 C130.782048,14.9590304 130.552179,14.5496677 130.298459,14.3015479 C129.935654,14.0326253 129.512927,13.8452804 129.06227,13.753691 C128.629304,13.6070584 128.17321,13.3186022 128.139335,12.8848129 C128.154739,12.6138112 128.23713,12.3500042 128.379889,12.1145843 C128.566409,11.6941305 128.647981,11.2386787 128.618274,10.7835808 C128.615916,10.4129878 128.469714,10.0561246 128.207442,9.78079 C127.928854,9.50754949 127.48253,9.46417483 127.151016,9.67812443 C127.011762,9.78744544 126.900153,9.96231868 126.719311,9.96886399 C126.399778,9.98042749 126.154442,9.45352078 125.897365,9.63338284 C125.927528,9.82502938 125.885515,10.0206064 125.77867,10.1859238 C125.01153,10.8169608 123.833012,10.5500017 122.84403,10.7729094 C122.373751,10.9002065 121.923494,11.0861863 121.50514,11.3259423 C121.348645,11.3892392 121.21548,11.4949634 121.122451,11.6297725 C121.023535,11.8760603 121.119375,12.1542605 121.352709,12.2981541 C121.583469,12.4320162 121.842783,12.5157314 122.111919,12.5432527 C123.317617,12.7592296 124.540905,13.0935727 125.492806,13.8260492 C126.444707,14.5585257 127.06894,15.7693458 126.767714,16.8944859 L124.390018,14.7456232 C124.480322,15.647885 124.531571,16.5526307 124.543765,17.4598605 C124.55914,17.6370006 124.533417,17.8151791 124.468396,17.9819363 C124.298891,18.3360438 123.839479,18.455203 123.436903,18.533376 C123.210422,18.5740735 123.013107,18.7043341 122.89462,18.891372 C122.776134,19.0784098 122.74776,19.3044112 122.81664,19.5124928 C123.002457,19.9404388 123.28437,20.3250858 123.642867,20.6398134 C124.002305,20.9565399 124.244457,21.3742482 124.333527,21.8311885 C124.376279,22.2906562 124.009771,22.8085544 123.523279,22.7766024 C123.153678,22.7074807 122.849846,22.4594257 122.723561,22.1236938 C122.603582,21.7929268 122.439865,21.4778362 122.236304,21.1859193 C121.520917,20.3721422 119.914056,20.7208094 119.273188,19.8532455 C118.941043,20.2096006 118.82764,20.7031995 118.973472,21.1577924 C119.305368,21.0182807 119.695245,21.1205343 119.903782,21.401786 C120.097561,21.6792168 120.266674,21.9713729 120.409381,22.2752492 C120.646761,22.6640032 121.024555,23.0086507 121.057682,23.4564851 C121.048896,23.6258302 121.051915,23.7955387 121.066717,23.9645084 C121.172165,24.2231049 121.331864,24.4588377 121.536194,24.6575075 C121.896488,25.2182547 121.941283,25.9109696 121.655926,26.5090669 C121.368802,27.0950754 120.978645,27.6307637 120.502061,28.0933295 C119.740763,28.9595733 118.899974,29.7604526 117.989516,30.4866117 C117.707722,30.6672988 117.465547,30.8978414 117.276338,31.1655326 C117.088946,31.4449999 117.121737,31.8083845 117.356489,32.053775 C117.174933,32.0623761 116.849337,32.1468337 116.667781,32.1554348 C116.603947,31.4665738 116.590071,30.7743864 116.626252,30.0837318 C115.909778,29.7583458 115.138342,30.6297459 115.230797,31.3763702 C115.323252,32.1229945 115.894203,32.722142 116.300711,33.3681161 C116.631039,33.8266968 116.779421,34.3809274 116.719654,34.9329373 C116.637618,35.4968175 116.131957,35.9191992 115.53021,35.9264884 C114.609227,35.8504996 114.223996,34.5999744 113.311982,34.456855 C113.231546,34.4389962 113.147116,34.4469249 113.071964,34.4793946 C112.936583,34.5496714 112.913051,34.7210021 112.905459,34.8668895 C112.812111,35.5808483 112.889302,36.3055196 113.131346,36.9875189 C113.563668,37.9532772 114.680513,38.7643965 114.446235,39.7894737 C113.184158,39.234598 112.527971,37.8959405 112.230056,36.6100934 C111.932141,35.3242463 111.882469,33.9743484 111.348405,32.7587634 C110.942876,33.2503849 110.090501,32.8439772 109.719964,32.3282266 C109.368686,31.8392555 109.152409,31.2736569 108.811599,30.7781185 C108.504628,30.2522375 107.953454,29.8940493 107.324349,29.8116077 C106.669742,29.7830367 106.10202,30.2079165 105.602751,30.6093684 C105.168651,30.9137855 104.804017,31.297982 104.530714,31.738921 C104.181497,32.4029598 104.27285,33.1857908 104.256017,33.9272721 C104.292268,34.7362711 104.016712,35.5302004 103.480572,36.1614771 C102.902933,36.7483159 101.836746,36.9527146 101.199612,36.4238255 C100.89162,36.1204858 100.67209,35.7467673 100.56247,35.3391834 C99.8709669,33.4303722 99.2950619,31.4858318 98.8375573,29.515024 C98.7304977,29.9648407 98.3128858,30.5446164 97.9139387,30.279647 C97.82442,30.2084163 97.7518956,30.1200347 97.7011545,30.0203381 C96.9569882,28.8273992 95.5788666,28.1118569 94.1864467,27.6828251 C92.7940268,27.2537934 91.3290279,27.053664 89.952032,26.5821483 C89.1803833,26.3178087 88.4433623,25.9705732 87.7554381,25.5472586 C87.3981779,26.0437159 87.3576405,26.6855215 87.6498688,27.218677 C87.9662768,27.7457608 88.6191488,28.0041913 89.2381663,27.847383 C89.5439213,27.7549814 89.8021275,27.5542242 90.1055033,27.4550718 C90.4071582,27.3248131 90.7641698,27.4204941 90.9487379,27.6810631 C91.0757199,27.9456764 90.8837895,28.2657836 90.9790115,28.5420706 C91.1240178,28.9628684 91.795027,28.9952866 92.0296586,29.3782112 C92.1725214,29.6889384 92.0838966,30.051477 91.8113243,30.2713543 C91.541293,30.4795551 91.2433374,30.6530666 90.9252061,30.7873766 C89.937916,31.3066404 89.2358337,32.193062 88.3730028,32.8827132 C87.5101719,33.5723643 86.2928146,34.0758833 85.264531,33.6335114 C85.5096536,32.4595806 84.0311714,31.597714 83.7591752,30.4290915 C83.669647,30.044449 83.7160587,29.6358534 83.5882461,29.2609939 C83.4031972,28.7182838 82.8941282,28.3451386 82.4765085,27.9338633 C81.453178,26.9151384 80.9084662,25.5485491 80.9660567,24.1443962 C81.0355247,23.6651135 81.0355416,23.1791078 80.9661072,22.6998207 C80.8813908,22.2078392 80.4524134,21.834179 79.9270493,21.7947507 C78.7607417,21.8434826 77.2914735,21.9255321 76.6795676,20.9851731 C76.4611789,20.6495562 76.3661394,20.1580081 76.6818963,19.9008798 C76.9324896,19.7501302 77.2365411,19.7007472 77.5259499,19.7637917 L80.1537826,20.0082772 C80.7683938,20.0654633 81.4327738,20.1126571 81.9601855,19.8087535 C82.4875972,19.5048499 82.7161275,18.6981614 82.2277648,18.3406142 C81.8709368,18.0793671 81.2316294,18.0935333 81.1279037,17.6781685 C81.0415193,17.3322325 81.4463542,16.9397267 81.2277055,16.6506207 C81.0709274,16.4433293 80.7184618,16.5008458 80.5048742,16.6562373 C80.3180991,16.8393861 80.1148025,17.0067898 79.897292,17.1565479 C79.4779724,17.3629473 78.9769491,17.1665146 78.5258112,17.0330093 C78.0746734,16.8995041 77.4698778,16.8881682 77.2510583,17.2844697 C77.0063356,17.7276897 77.4681235,18.3084566 77.225256,18.752587 C76.9041546,19.3397744 75.8167406,19.0055157 75.3657851,19.5105803 C74.8483133,20.0901505 75.7179052,20.9543665 75.5433938,21.6947979 C75.0901795,21.907093 74.5523575,21.8785152 74.1271354,21.6195434 C73.7082426,21.3500628 73.4798462,20.88463 73.5326484,20.4080808 C73.5758464,20.0750078 73.7594399,19.7350151 73.6364284,19.4202601 C73.5030488,19.1775211 73.2831898,18.9872279 73.0157509,18.883049 L70.4620884,17.5483672 C70.225,17.9643561 70.5247352,18.4800554 70.8995954,18.7925123 C71.2744556,19.1049692 71.7439905,19.3402847 71.9902463,19.7514793 C72.3136073,20.3428609 72.0941415,21.0701323 71.4894637,21.4109854 C71.41559,21.4592148 71.3231104,21.4744746 71.2363342,21.4527536 C71.1540186,21.407004 71.0947939,21.3316815 71.0721585,21.2439534 C70.6215911,20.1533863 69.9451094,19.0781272 68.8635755,18.5084318 C67.7820415,17.9387365 66.2279997,18.0558693 65.518776,19.0155484 C65.3503309,19.2434927 65.2372631,19.5033154 65.090514,19.7443136 C64.3108733,21.0246799 62.6394361,21.6309821 61.0778336,21.5913798 C60.9250682,21.5993743 60.7730991,21.5656027 60.640082,21.4940995 C60.3877055,21.329237 60.3990581,20.9794024 60.4376995,20.6916069 L60.601623,19.4702805 C60.602307,19.2206666 60.7046824,18.9809058 60.8874635,18.800849 C61.1767621,18.585041 61.5940945,18.7212297 61.9625002,18.7162115 C62.5342661,18.690891 63.0283275,18.3302441 63.1991201,17.8135239 C63.3507978,17.2943972 63.186261,16.7385086 62.7716538,16.3693265 C62.6027973,16.2193203 62.3761571,16.0308903 62.4653438,15.8286721 C62.5373794,15.7154335 62.6587065,15.6381531 62.7967304,15.6175922 C63.4584984,15.4358286 64.1577551,15.388187 64.8084888,15.1737188 C65.4855465,14.9995512 66.0249343,14.5155276 66.2444056,13.8851883 C66.2916323,13.6905066 66.3131343,13.4546771 66.4980203,13.3581567 C66.5907892,13.3211107 66.6904129,13.3018586 66.7911108,13.3015176 C67.5223837,13.2031223 68.0532231,12.592924 68.0144725,11.8952669 C68.3665507,11.736624 68.7858604,11.8023734 69.064976,12.0599899 C69.3327099,12.3161934 69.6502537,12.5210628 70.0001529,12.6633369 C70.6842884,12.8394509 71.3454354,12.2665325 72.0544534,12.2638747 C72.3479446,12.3120912 72.6479358,12.3131015 72.9417826,12.2668629 C73.2261482,12.1699497 73.3959633,11.9022013 73.6142123,11.7044066 C73.8324613,11.506612 74.2154138,11.385966 74.4169347,11.5990502 L74.2453264,10.3967651 C74.9445434,10.5638381 75.6859822,10.437054 76.2790874,10.0489972 L74.0611546,9.34019108 C73.9839266,9.32195547 73.9126725,9.28592158 73.8537498,9.23530458 C73.6925005,9.07107711 73.852663,8.81516022 73.9837707,8.62847753 C74.2974473,8.18188027 74.3501039,7.44622475 73.8342699,7.22388608 C73.482177,7.0721215 73.0780329,7.25429259 72.7400871,7.43251741 L71.1212948,8.28622347 C71.069853,8.57726038 71.4461532,8.74220368 71.6793138,8.93823997 C71.968079,9.18101397 72.0693738,9.56669897 71.9342853,9.90905726 C71.7991969,10.2514156 71.4555112,10.4800285 71.0691854,10.4845045 C71.285118,10.7500288 71.361724,11.0939975 71.2773859,11.419346 L70.188206,11.4934369 C70.0659661,11.5166976 69.9389613,11.4932519 69.8349409,11.4282224 C69.7184498,11.3303694 69.7342503,11.1588918 69.7072486,11.0137717 C69.607134,10.6614595 69.2919393,10.4012381 68.9093351,10.3550227 C68.5344539,10.3162948 68.1551654,10.3494252 67.7941238,10.4524351 C67.6385068,10.5054015 67.4676145,10.5016719 67.3147461,10.4419729 C67.2270873,10.3881133 67.1604784,10.3085945 67.125094,10.2155631 C66.9956675,9.82799255 67.0895247,9.40463386 67.3726578,9.09888459 C67.6539927,8.80200109 67.9649572,8.53148446 68.3012289,8.29109482 C69.0599286,7.66146347 69.6173564,6.84370931 69.9105432,5.93020884 C70.5101379,5.69259899 71.1308853,5.3697496 71.7304799,5.13214343 C72.6548911,4.68947494 73.6915409,4.49950398 74.7238579,4.58359277 L76.7544325,4.62027661 C77.3566539,4.59620778 77.9583652,4.67811227 78.5289705,4.86182539 C79.1079593,5.05693409 79.5248972,5.53951071 79.6117116,6.11502302 C79.635246,6.24564041 79.586052,6.3785195 79.4815082,6.46671877 C79.4030023,6.50724417 79.3140807,6.52620241 79.2247846,6.52145269 C78.6640992,6.5400938 78.4250159,6.67222979 77.8643576,6.69085988 Z" id="Path"></path>
                    <path d="M62.4338581,12.4000923 C62.6285281,12.2610111 62.7038108,12.0514495 62.6288861,11.8572006 C62.1549215,11.719159 61.618258,11.7956421 61.2436252,12.0546225 C61.0988261,12.1651608 60.9740381,12.2896705 60.8725087,12.4249115 C60.4922933,12.7966863 60.339868,13.2730827 60.4533896,13.7348434 C60.4840363,13.8322327 60.565374,13.9161977 60.6790364,13.9677787 C60.7624565,13.9930492 60.8523946,14.0036821 60.9420574,13.9988741 C61.2958716,13.9985269 61.6493373,13.9821062 62.0005369,13.9497011 C62.2162141,13.9298006 62.4667147,13.8838327 62.5500686,13.7323893 C62.6596357,13.5333138 62.3944424,13.3080192 62.4717509,13.100499 C62.5226114,13.0076976 62.599688,12.9243892 62.6976032,12.8563864 C62.7960878,12.7869627 62.8454464,12.6865608 62.8307955,12.5854554 C62.7995974,12.4880825 62.6020514,12.4328484 62.5309376,12.5174397" id="Path"></path>
                    <path d="M63.1341038,11.1099308 C62.8727888,11.0548736 62.6034282,11.0393519 62.3366601,11.0639788 C62.2776597,11.0623671 62.219183,11.0745613 62.1667364,11.0994131 C62.1159229,11.1338031 62.0790723,11.1827726 62.0620261,11.2385592 C61.945187,11.5826855 62.1361014,11.9514364 62.5006256,12.0857137 C62.5964307,12.105926 62.6882005,12.1397664 62.7726068,12.1860075 C62.9981501,12.3465845 62.8543662,12.6748025 62.8970636,12.9338057 C62.9450085,13.2246363 63.2518024,13.4687771 63.1955535,13.7583532 C63.1512403,13.9864948 62.8856989,14.1671555 62.9284507,14.3955359 C62.97323,14.6347476 63.3040391,14.7066284 63.5677045,14.7257854 C63.72052,14.7503394 63.8778136,14.7337975 64.0206129,14.6781548 C64.1637412,14.5883451 64.2655386,14.4530653 64.3063553,14.2984284 C64.4142981,14.0035775 64.4596536,13.6924742 64.4399669,13.3819557 C64.4388086,13.2407196 64.4001537,13.101871 64.3273486,12.9774303 C64.2479436,12.8788524 64.1599264,12.7863687 64.0641687,12.7008953 C63.5589965,12.1616932 64.090926,11.3573684 63.1341038,11.1099308 Z" id="Path"></path>
                    <ellipse id="Oval" cx="19.3333333" cy="14" rx="1.61111111" ry="1.47368421"></ellipse>
                    <ellipse id="Oval" cx="35.4444444" cy="49.3684211" rx="1.61111111" ry="1.47368421"></ellipse>
                    <ellipse id="Oval" cx="99.8888889" cy="14" rx="1.61111111" ry="1.47368421"></ellipse>
                    <ellipse id="Oval" cx="129.694444" cy="54.5263158" rx="1.61111111" ry="1.47368421"></ellipse>
                    <ellipse id="Oval" cx="74.9166667" cy="37.5789474" rx="1.61111111" ry="1.47368421"></ellipse>
                </g>
            </g>
            <g id="Group-5" transform="translate(137.000000, 512.000000)" fill-rule="nonzero">
                <ellipse id="Oval" fill="#6C63FF" cx="7.58333333" cy="38.15625" rx="1.08333333" ry="1.03125"></ellipse>
                <ellipse id="Oval" fill="#6C63FF" cx="10.4722222" cy="38.15625" rx="1.08333333" ry="1.03125"></ellipse>
                <ellipse id="Oval" fill="#6C63FF" cx="12.6388889" cy="38.15625" rx="1.08333333" ry="1.03125"></ellipse>
                <ellipse id="Oval" fill="#6C63FF" cx="2.52777778" cy="27.84375" rx="1.08333333" ry="1.03125"></ellipse>
                <path d="M26,47.2873315 C26.0015827,49.9453344 24.0619396,50.8740536 21.6688053,50.875 C21.6132173,50.875 21.557897,50.8745381 21.5028443,50.8735498 C21.391932,50.8716447 21.2821741,50.8675721 21.1735707,50.8613319 C19.013613,50.7376371 17.3348076,49.762696 17.3333333,47.2907604 C17.3318126,44.7326124 21.3443283,41.5026919 21.645248,41.2638697 L21.6457787,41.2636523 C21.6572108,41.2545508 21.6630605,41.25 21.6630605,41.25 C21.6630605,41.25 25.9984137,44.6295501 26,47.2873315 Z" id="Path" fill="#6C63FF"></path>
                <path d="M21.2340875,50.4698762 L22.8084281,48.6654922 L21.2302385,50.6678887 L21.2261341,50.875 C21.115884,50.8730946 21.0067815,50.8690214 20.8988264,50.8627802 L21.0669803,48.2032289 L21.065648,48.1826496 L21.0685512,48.178748 L21.0845319,47.9274384 L19.5,45.9213179 L21.0891773,47.7391745 L21.0931741,47.7924674 L21.2202051,45.7830661 L19.863528,43.7099129 L21.2366513,45.4299342 L21.3676959,41.263865 L21.3682151,41.25 L21.3682235,41.2636474 L21.347967,44.5490249 L22.6962976,43.2460402 L21.3423153,44.8319605 L21.3076909,46.6311818 L22.5669413,44.9040498 L21.3028271,46.8957038 L21.2835921,47.8961676 L23.1111111,45.4920188 L21.2766535,48.2451872 L21.2340875,50.4698762 Z" id="Path" fill="#3F3D56"></path>
                <g id="Path-2" fill="#FFFFFF">
                    <polygon id="Path" points="111.385601 66 0 66 0 0 130 0 130 57.0091566 129.925236 65.9045783"></polygon>
                </g>
                <g id="Group" opacity="0.7" transform="translate(0.000000, 22.687500)" fill="#E0E0E0">
                    <rect id="Rectangle" x="0" y="0" width="130" height="1.375"></rect>
                </g>
                <g id="Group" opacity="0.7" transform="translate(0.000000, 17.875000)" fill="#E0E0E0">
                    <rect id="Rectangle" x="0" y="0" width="130" height="1"></rect>
                </g>
                <g id="Group" opacity="0.7" transform="translate(0.000000, 13.062500)" fill="#E0E0E0">
                    <rect id="Rectangle" x="0" y="0" width="130" height="1"></rect>
                </g>
                <g id="Group" opacity="0.7" transform="translate(0.000000, 7.562500)" fill="#E0E0E0">
                    <rect id="Rectangle" x="0" y="0" width="130" height="1.375"></rect>
                </g>
                <g id="Group" opacity="0.7" transform="translate(0.000000, 2.750000)" fill="#E0E0E0">
                    <rect id="Rectangle" x="0" y="0" width="130" height="1.375"></rect>
                </g>
                <g id="Group" opacity="0.7" transform="translate(0.000000, 27.500000)" fill="#E0E0E0">
                    <rect id="Rectangle" x="0" y="0" width="130" height="1.375"></rect>
                </g>
                <g id="Group" opacity="0.7" transform="translate(0.000000, 32.312500)" fill="#E0E0E0">
                    <rect id="Rectangle" x="0" y="0" width="130" height="1.375"></rect>
                </g>
                <g id="Group" opacity="0.7" transform="translate(0.000000, 37.125000)" fill="#E0E0E0">
                    <rect id="Rectangle" x="0" y="0" width="130" height="1.375"></rect>
                </g>
                <g id="Group" opacity="0.7" transform="translate(0.000000, 41.937500)" fill="#E0E0E0">
                    <rect id="Rectangle" x="0" y="0" width="130" height="1.375"></rect>
                </g>
                <g id="Group" opacity="0.7" transform="translate(0.000000, 46.750000)" fill="#E0E0E0">
                    <rect id="Rectangle" x="0" y="0" width="130" height="1.375"></rect>
                </g>
                <g id="Group" opacity="0.7" transform="translate(0.000000, 52.250000)" fill="#E0E0E0">
                    <rect id="Rectangle" x="0" y="0" width="130" height="1.375"></rect>
                </g>
                <g id="Group" opacity="0.7" transform="translate(0.000000, 57.062500)" fill="#E0E0E0">
                    <rect id="Rectangle" x="0" y="0" width="130" height="1.375"></rect>
                </g>
                <g id="Group" opacity="0.7" transform="translate(0.000000, 61.875000)" fill="#E0E0E0">
                    <rect id="Rectangle" x="0" y="0" width="130" height="1.375"></rect>
                </g>
                <rect id="Rectangle" fill="#E0E0E0" x="15.8888889" y="4.125" width="1" height="61.875"></rect>
                <rect id="Rectangle" fill="#E0E0E0" x="36.1111111" y="4.125" width="1" height="61.875"></rect>
                <rect id="Rectangle" fill="#E0E0E0" x="55.6111111" y="4.125" width="1" height="61.875"></rect>
                <rect id="Rectangle" fill="#E0E0E0" x="75.1111111" y="4.125" width="1" height="61.875"></rect>
                <rect id="Rectangle" fill="#E0E0E0" x="95.3333333" y="4.125" width="1" height="61.875"></rect>
                <polygon id="Path" fill="#E0E0E0" points="115.555556 66 114.833333 66 114.833333 4.15414882 115.555556 4.125"></polygon>
                <rect id="Rectangle" fill="#6C63FF" x="36.8333333" y="38.5" width="18.7777778" height="4.125"></rect>
                <rect id="Rectangle" fill="#6C63FF" x="16.6111111" y="57.0625" width="18.7777778" height="4.125"></rect>
                <rect id="Rectangle" fill="#6C63FF" x="75.8333333" y="52.9375" width="18.7777778" height="4.125"></rect>
                <rect id="Rectangle" fill="#6C63FF" x="96.7777778" y="14.4375" width="18.7777778" height="4.125"></rect>
                <rect id="Rectangle" fill="#6C63FF" x="77.2777778" y="33" width="18.7777778" height="4.125"></rect>
                <rect id="Rectangle" fill="#6C63FF" x="16.6111111" y="8.9375" width="18.7777778" height="4.125"></rect>
                <rect id="Rectangle" fill="#6C63FF" x="56.3333333" y="19.25" width="18.7777778" height="4.125"></rect>
                <rect id="Rectangle" fill="#6C63FF" x="16.6111111" y="28.875" width="18.7777778" height="4.125"></rect>
            </g>
            <g id="Group-10" transform="translate(298.000000, 512.000000)" fill-rule="nonzero">
                <ellipse id="Oval" fill="#6C63FF" cx="7.58333333" cy="38.15625" rx="1.08333333" ry="1.03125"></ellipse>
                <ellipse id="Oval" fill="#6C63FF" cx="10.4722222" cy="38.15625" rx="1.08333333" ry="1.03125"></ellipse>
                <ellipse id="Oval" fill="#6C63FF" cx="12.6388889" cy="38.15625" rx="1.08333333" ry="1.03125"></ellipse>
                <ellipse id="Oval" fill="#6C63FF" cx="2.52777778" cy="27.84375" rx="1.08333333" ry="1.03125"></ellipse>
                <path d="M26,47.2873315 C26.0015827,49.9453344 24.0619396,50.8740536 21.6688053,50.875 C21.6132173,50.875 21.557897,50.8745381 21.5028443,50.8735498 C21.391932,50.8716447 21.2821741,50.8675721 21.1735707,50.8613319 C19.013613,50.7376371 17.3348076,49.762696 17.3333333,47.2907604 C17.3318126,44.7326124 21.3443283,41.5026919 21.645248,41.2638697 L21.6457787,41.2636523 C21.6572108,41.2545508 21.6630605,41.25 21.6630605,41.25 C21.6630605,41.25 25.9984137,44.6295501 26,47.2873315 Z" id="Path" fill="#6C63FF"></path>
                <path d="M21.2340875,50.4698762 L22.8084281,48.6654922 L21.2302385,50.6678887 L21.2261341,50.875 C21.115884,50.8730946 21.0067815,50.8690214 20.8988264,50.8627802 L21.0669803,48.2032289 L21.065648,48.1826496 L21.0685512,48.178748 L21.0845319,47.9274384 L19.5,45.9213179 L21.0891773,47.7391745 L21.0931741,47.7924674 L21.2202051,45.7830661 L19.863528,43.7099129 L21.2366513,45.4299342 L21.3676959,41.263865 L21.3682151,41.25 L21.3682235,41.2636474 L21.347967,44.5490249 L22.6962976,43.2460402 L21.3423153,44.8319605 L21.3076909,46.6311818 L22.5669413,44.9040498 L21.3028271,46.8957038 L21.2835921,47.8961676 L23.1111111,45.4920188 L21.2766535,48.2451872 L21.2340875,50.4698762 Z" id="Path" fill="#3F3D56"></path>
                <g id="Path-2" fill="#FFFFFF">
                    <polygon id="Path" points="111.385601 66 0 66 0 0 130 0 130 57.0091566 129.925236 65.9045783"></polygon>
                </g>
                <g id="Group" opacity="0.7" transform="translate(0.000000, 22.687500)" fill="#E0E0E0">
                    <rect id="Rectangle" x="0" y="0" width="130" height="1.375"></rect>
                </g>
                <g id="Group" opacity="0.7" transform="translate(0.000000, 17.875000)" fill="#E0E0E0">
                    <rect id="Rectangle" x="0" y="0" width="130" height="1"></rect>
                </g>
                <g id="Group" opacity="0.7" transform="translate(0.000000, 13.062500)" fill="#E0E0E0">
                    <rect id="Rectangle" x="0" y="0" width="130" height="1"></rect>
                </g>
                <g id="Group" opacity="0.7" transform="translate(0.000000, 7.562500)" fill="#E0E0E0">
                    <rect id="Rectangle" x="0" y="0" width="130" height="1.375"></rect>
                </g>
                <g id="Group" opacity="0.7" transform="translate(0.000000, 2.750000)" fill="#E0E0E0">
                    <rect id="Rectangle" x="0" y="0" width="130" height="1.375"></rect>
                </g>
                <g id="Group" opacity="0.7" transform="translate(0.000000, 27.500000)" fill="#E0E0E0">
                    <rect id="Rectangle" x="0" y="0" width="130" height="1.375"></rect>
                </g>
                <g id="Group" opacity="0.7" transform="translate(0.000000, 32.312500)" fill="#E0E0E0">
                    <rect id="Rectangle" x="0" y="0" width="130" height="1.375"></rect>
                </g>
                <g id="Group" opacity="0.7" transform="translate(0.000000, 37.125000)" fill="#E0E0E0">
                    <rect id="Rectangle" x="0" y="0" width="130" height="1.375"></rect>
                </g>
                <g id="Group" opacity="0.7" transform="translate(0.000000, 41.937500)" fill="#E0E0E0">
                    <rect id="Rectangle" x="0" y="0" width="130" height="1.375"></rect>
                </g>
                <g id="Group" opacity="0.7" transform="translate(0.000000, 46.750000)" fill="#E0E0E0">
                    <rect id="Rectangle" x="0" y="0" width="130" height="1.375"></rect>
                </g>
                <g id="Group" opacity="0.7" transform="translate(0.000000, 52.250000)" fill="#E0E0E0">
                    <rect id="Rectangle" x="0" y="0" width="130" height="1.375"></rect>
                </g>
                <g id="Group" opacity="0.7" transform="translate(0.000000, 57.062500)" fill="#E0E0E0">
                    <rect id="Rectangle" x="0" y="0" width="130" height="1.375"></rect>
                </g>
                <g id="Group" opacity="0.7" transform="translate(0.000000, 61.875000)" fill="#E0E0E0">
                    <rect id="Rectangle" x="0" y="0" width="130" height="1.375"></rect>
                </g>
                <rect id="Rectangle" fill="#E0E0E0" x="15.8888889" y="4.125" width="1" height="61.875"></rect>
                <rect id="Rectangle" fill="#E0E0E0" x="36.1111111" y="4.125" width="1" height="61.875"></rect>
                <rect id="Rectangle" fill="#E0E0E0" x="55.6111111" y="4.125" width="1" height="61.875"></rect>
                <rect id="Rectangle" fill="#E0E0E0" x="75.1111111" y="4.125" width="1" height="61.875"></rect>
                <rect id="Rectangle" fill="#E0E0E0" x="95.3333333" y="4.125" width="1" height="61.875"></rect>
                <polygon id="Path" fill="#E0E0E0" points="115.555556 66 114.833333 66 114.833333 4.15414882 115.555556 4.125"></polygon>
                <rect id="Rectangle" fill="#6C63FF" x="36.8333333" y="38.5" width="18.7777778" height="4.125"></rect>
                <rect id="Rectangle" fill="#6C63FF" x="56.3333333" y="57.75" width="18.7777778" height="4.125"></rect>
                <rect id="Rectangle" fill="#6C63FF" x="75.8333333" y="52.9375" width="18.7777778" height="4.125"></rect>
                <rect id="Rectangle" fill="#6C63FF" x="75.8333333" y="23.375" width="18.7777778" height="4.125"></rect>
                <rect id="Rectangle" fill="#6C63FF" x="96.7777778" y="43.3125" width="18.7777778" height="4.125"></rect>
                <rect id="Rectangle" fill="#6C63FF" x="16.6111111" y="8.9375" width="18.7777778" height="4.125"></rect>
                <rect id="Rectangle" fill="#6C63FF" x="56.3333333" y="19.25" width="18.7777778" height="4.125"></rect>
                <rect id="Rectangle" fill="#6C63FF" x="16.6111111" y="28.875" width="18.7777778" height="4.125"></rect>
            </g>
            <g id="Group-8" transform="translate(188.000000, 340.000000)" fill-rule="nonzero">
                <path d="M136.466015,149 L3.5339584,149 C1.58530972,149 0,146.314001 0,143.012548 L0,4.44054206 C0,1.99207754 1.1747536,0 2.61874122,0 L137.337843,0 C138.805775,0 140,2.02491794 140,4.51368897 L140,143.012548 C140,146.314001 138.414641,149 136.466015,149 Z" id="Path" fill="#FFFFFF"></path>
                <path d="M110.999588,42 L61.0004124,42 C60.4481618,41.9991568 60.0006318,41.4018906 60,40.6648659 L60,28.0878785 L60.400165,28.0878785 L60.400165,40.6648659 C60.4005267,41.1070903 60.6690548,41.4654636 61.0004124,41.4659464 L110.999588,41.4659464 C111.330945,41.4654636 111.599473,41.1070903 111.599835,40.6648659 L111.599835,28 L112,28 L112,40.6648659 C111.999368,41.4018906 111.551838,41.9991568 110.999588,42 L110.999588,42 Z" id="Path" fill="#3F3D56"></path>
                <rect id="Rectangle" fill="#3F3D56" x="12" y="27" width="116" height="1"></rect>
                <ellipse id="a67a4451-c7cc-402c-b29d-5a705f3c9418" fill="#6C63FF" cx="12.5" cy="28.5" rx="3.5" ry="4.5"></ellipse>
                <ellipse id="ac293633-0933-4e21-a8aa-bc27ca4fbccc" fill="#3F3D56" cx="70.5" cy="41.5" rx="3.5" ry="4.5"></ellipse>
                <ellipse id="a0cd768d-b738-4d4b-9ab3-78ab535c7573" fill="#CCCCCC" cx="88.5" cy="41.5" rx="3.5" ry="4.5"></ellipse>
                <ellipse id="b9eb3d2e-31e0-4fe2-be5c-79abb86bc227" fill="#6C63FF" cx="79.5" cy="28.5" rx="3.5" ry="4.5"></ellipse>
                <ellipse id="aa04baac-fce0-420a-b86a-4a97f3079928" fill="#6C63FF" cx="127.5" cy="28.5" rx="3.5" ry="4.5"></ellipse>
                <ellipse id="e92cf92c-058e-415c-ba96-766a57ee18d9" fill="#6C63FF" cx="111.5" cy="28.5" rx="3.5" ry="4.5"></ellipse>
                <path d="M99.4098758,28 L99,28 L99,15.2876568 C99.0006471,14.5768407 99.4590373,14.0008132 100.024689,14 L110,14 L110,14.5150627 L100.024689,14.5150627 C99.6852908,14.5155283 99.4102462,14.8611579 99.4098758,15.2876568 L99.4098758,28 Z" id="Path" fill="#3F3D56"></path>
                <ellipse id="b3140cf1-cdb8-48ff-81af-ce41ed4f5739" fill="#E6E6E6" cx="109.5" cy="14.5" rx="3.5" ry="4.5"></ellipse>
                <path d="M110.999588,42 L61.0004124,42 C60.4481618,41.9991568 60.0006318,41.4018906 60,40.6648659 L60,28.0878785 L60.400165,28.0878785 L60.400165,40.6648659 C60.4005267,41.1070903 60.6690548,41.4654636 61.0004124,41.4659464 L110.999588,41.4659464 C111.330945,41.4654636 111.599473,41.1070903 111.599835,40.6648659 L111.599835,28 L112,28 L112,40.6648659 C111.999368,41.4018906 111.551838,41.9991568 110.999588,42 L110.999588,42 Z" id="Path" fill="#3F3D56"></path>
                <path d="M69.9995876,88 L20.0004124,88 C19.4481618,87.9991568 19.0006318,87.4018906 19,86.6648659 L19,74.0878785 L19.400165,74.0878785 L19.400165,86.6648659 C19.4005267,87.1070903 19.6690548,87.4654636 20.0004124,87.4659464 L69.9995876,87.4659464 C70.3309452,87.4654636 70.5994733,87.1070903 70.599835,86.6648659 L70.599835,74 L71,74 L71,86.6648659 C70.9993682,87.4018906 70.5518382,87.9991568 69.9995876,88 L69.9995876,88 Z" id="Path" fill="#3F3D56"></path>
                <rect id="Rectangle" fill="#3F3D56" x="12" y="27" width="116" height="1"></rect>
                <rect id="Rectangle" fill="#3F3D56" x="12" y="73" width="116" height="1"></rect>
                <ellipse id="a67a4451-c7cc-402c-b29d-5a705f3c9418" fill="#6C63FF" cx="12.5" cy="28.5" rx="3.5" ry="4.5"></ellipse>
                <ellipse id="ac293633-0933-4e21-a8aa-bc27ca4fbccc" fill="#3F3D56" cx="70.5" cy="41.5" rx="3.5" ry="4.5"></ellipse>
                <ellipse id="a0cd768d-b738-4d4b-9ab3-78ab535c7573" fill="#CCCCCC" cx="88.5" cy="41.5" rx="3.5" ry="4.5"></ellipse>
                <ellipse id="a0cd768d-b738-4d4b-9ab3-78ab535c7573" fill="#CCCCCC" cx="49.5" cy="27.5" rx="3.5" ry="4.5"></ellipse>
                <ellipse id="aa04baac-fce0-420a-b86a-4a97f3079928" fill="#6C63FF" cx="127.5" cy="28.5" rx="3.5" ry="4.5"></ellipse>
                <ellipse id="e92cf92c-058e-415c-ba96-766a57ee18d9" fill="#6C63FF" cx="111.5" cy="28.5" rx="3.5" ry="4.5"></ellipse>
                <ellipse id="e92cf92c-058e-415c-ba96-766a57ee18d9" fill="#6C63FF" cx="56.5" cy="88.5" rx="3.5" ry="4.5"></ellipse>
                <path d="M99.4098758,28 L99,28 L99,15.2876568 C99.0006471,14.5768407 99.4590373,14.0008132 100.024689,14 L110,14 L110,14.5150627 L100.024689,14.5150627 C99.6852908,14.5155283 99.4102462,14.8611579 99.4098758,15.2876568 L99.4098758,28 Z" id="Path" fill="#3F3D56"></path>
                <ellipse id="b3140cf1-cdb8-48ff-81af-ce41ed4f5739" fill="#E6E6E6" cx="109.5" cy="14.5" rx="3.5" ry="4.5"></ellipse>
                <ellipse id="b3140cf1-cdb8-48ff-81af-ce41ed4f5739" fill="#E6E6E6" cx="109.5" cy="14.5" rx="3.5" ry="4.5"></ellipse>
                <ellipse id="b3140cf1-cdb8-48ff-81af-ce41ed4f5739" fill="#E6E6E6" cx="84.5" cy="73.5" rx="3.5" ry="4.5"></ellipse>
                <path d="M114.999588,133 L65.0004124,133 C64.4481618,132.999157 64.0006318,132.401891 64,131.664866 L64,119.087879 L64.400165,119.087879 L64.400165,131.664866 C64.4005267,132.10709 64.6690548,132.465464 65.0004124,132.465946 L114.999588,132.465946 C115.330945,132.465464 115.599473,132.10709 115.599835,131.664866 L115.599835,119 L116,119 L116,131.664866 C115.999368,132.401891 115.551838,132.999157 114.999588,133 L114.999588,133 Z" id="Path" fill="#3F3D56"></path>
                <rect id="Rectangle" fill="#3F3D56" x="16" y="120" width="116" height="1"></rect>
                <ellipse id="abdb3fbf-f68e-433e-a33f-153626b38c76" fill="#6C63FF" cx="50.5" cy="119.5" rx="3.5" ry="4.5"></ellipse>
                <ellipse id="b3140cf1-cdb8-48ff-81af-ce41ed4f5739" fill="#E6E6E6" cx="15.5" cy="119.5" rx="3.5" ry="4.5"></ellipse>
                <ellipse id="ac293633-0933-4e21-a8aa-bc27ca4fbccc" fill="#3F3D56" cx="73.5" cy="133.5" rx="3.5" ry="4.5"></ellipse>
                <ellipse id="ac293633-0933-4e21-a8aa-bc27ca4fbccc" fill="#3F3D56" cx="31.5" cy="86.5" rx="3.5" ry="4.5"></ellipse>
                <ellipse id="ac293633-0933-4e21-a8aa-bc27ca4fbccc" fill="#3F3D56" cx="45.5" cy="73.5" rx="3.5" ry="4.5"></ellipse>
                <ellipse id="b9eb3d2e-31e0-4fe2-be5c-79abb86bc227" fill="#6C63FF" cx="83.5" cy="119.5" rx="3.5" ry="4.5"></ellipse>
                <ellipse id="e92cf92c-058e-415c-ba96-766a57ee18d9" fill="#6C63FF" cx="115.5" cy="119.5" rx="3.5" ry="4.5"></ellipse>
                <g id="Group-7" transform="translate(113.406861, 83.922403) rotate(-179.000000) translate(-113.406861, -83.922403) translate(106.038440, 74.641258)">
                    <path d="M0.1937292,18.5622896 C0.086737733,18.5622896 0,18.4486874 0,18.3085585 L0,5.78380686 C0.000611732218,5.08347999 0.433931179,4.51595271 0.968646,4.51515152 L10.3983761,4.51515152 C10.5053697,4.51515152 10.5921053,4.62875078 10.5921053,4.76888258 C10.5921053,4.90901438 10.5053697,5.02261365 10.3983761,5.02261365 L0.968646,5.02261365 C0.647810124,5.02307232 0.387808606,5.36360159 0.3874584,5.78380686 L0.3874584,18.3085585 C0.387451981,18.4486868 0.300720224,18.5622896 0.1937292,18.5622896 Z" id="Path" fill="#3F3D56"></path>
                    <ellipse id="b0a7c1c1-8f27-441f-a84a-e44462cc473e" fill="#E6E6E6" cx="11.2828947" cy="4.26430976" rx="3.45394737" ry="4.26430976"></ellipse>
                </g>
                <g id="Group-7" transform="translate(83.000000, 97.000000)">
                    <path d="M0.19718865,19 C0.0882866211,19 0,18.883719 0,18.7402858 L0,5.92019265 C0.000622656008,5.20335164 0.44167995,4.62244171 0.98594325,4.62162162 L10.5840614,4.62162162 C10.6929656,4.62162162 10.78125,4.73789963 10.78125,4.88133583 C10.78125,5.02477202 10.6929656,5.14105003 10.5840614,5.14105003 L0.98594325,5.14105003 C0.659378162,5.14151952 0.39473376,5.49007868 0.3943773,5.92019265 L0.3943773,18.7402858 C0.394370766,18.8837184 0.306090228,19 0.19718865,19 Z" id="Path" fill="#3F3D56"></path>
                    <ellipse id="b0a7c1c1-8f27-441f-a84a-e44462cc473e" fill="#E6E6E6" cx="11.484375" cy="4.36486486" rx="3.515625" ry="4.36486486"></ellipse>
                </g>
                <ellipse id="e92cf92c-058e-415c-ba96-766a57ee18d9" fill="#6C63FF" cx="120.5" cy="74.5" rx="3.5" ry="4.5"></ellipse>
            </g>
            <text id="Javascript,-React,-H" font-family="Verdana" font-size="30" font-weight="normal" fill="#3F3D56">
                <tspan x="554.373047" y="159">Javascript, React, </tspan>
                <tspan x="603.943359" y="195">HTML, CSS</tspan>
            </text>
            <text id="Python,-SQL" font-family="Verdana" font-size="30" font-weight="normal" fill="#3F3D56">
                <tspan x="698.938477" y="457">Python, SQL</tspan>
            </text>
            <text id="AWS,-Docker" font-family="Verdana" font-size="30" font-weight="normal" fill="#3F3D56">
                <tspan x="737.899414" y="733">AWS, Docker</tspan>
            </text>
            <text id="Back-End" font-family="Verdana" font-size="50" font-weight="normal" fill="#3F3D56">
                <tspan x="668" y="405">Back End</tspan>
            </text>
            <text id="Front-End" font-family="Verdana" font-size="50" font-weight="normal" fill="#3F3D56">
                <tspan x="548" y="106">Front End</tspan>
            </text>
            <text id="Cloud-Computing" font-family="Verdana" font-size="50" font-weight="normal" fill="#3F3D56">
                <tspan x="630" y="672">Cloud Computing</tspan>
            </text>
            <path d="M448.133218,713.12 L432.583218,722.96 L442.003218,705.83 C439.335828,703.701764 436.035329,702.523014 432.623218,702.48 L432.373218,702.48 C431.294735,702.501088 430.216658,702.420735 429.153218,702.24 L423.893218,705.58 L426.143218,701.48 C422.416814,700.172051 419.197579,697.722634 416.943218,694.48 L407.533218,700.48 L413.473218,689.66 C407.973218,683.05 400.553218,679 392.383218,679 C382.593218,679 373.873218,684.82 368.243218,693.9 C364.844507,699.435381 358.735029,702.719225 352.243218,702.5 L351.723218,702.5 C340.913218,702.5 332.153218,714.75 332.153218,729.87 C332.153218,744.99 340.913218,757.24 351.723218,757.24 C354.098522,757.232456 356.436118,756.645483 358.533218,755.53 C365.981879,751.916464 374.639893,751.748347 382.223218,755.07 C388.631948,757.930001 395.954487,757.930001 402.363218,755.07 C409.882013,751.811297 418.444863,751.975476 425.833218,755.52 C427.917563,756.607738 430.232137,757.180381 432.583218,757.19 C443.393218,757.19 452.153218,744.94 452.153218,729.82 C452.230963,724.004736 450.848787,718.262861 448.133218,713.12 Z" id="Path" fill="#F2F2F2" fill-rule="nonzero"></path>
            <path d="M262.559533,715.849444 L244.807177,728.426118 L255.561337,706.531969 C252.516164,703.811835 248.748212,702.305254 244.852842,702.250277 L244.567435,702.250277 C243.336206,702.27723 242.10544,702.174529 240.891384,701.943529 L234.886407,706.21244 L237.455076,700.972159 C233.200899,699.300448 229.525722,696.169805 226.952075,692.025339 L216.209331,699.694042 L222.990617,685.864814 C216.711648,677.416459 208.240749,672.240084 198.913628,672.240084 C187.737064,672.240084 177.782045,679.678726 171.354665,691.284031 C167.474593,698.358897 160.499827,702.556035 153.088576,702.275839 L152.494928,702.275839 C140.153901,702.275839 130.153218,717.932775 130.153218,737.257908 C130.153218,756.58304 140.153901,772.240084 152.494928,772.240084 C155.206649,772.230335 157.875319,771.480114 160.269432,770.054396 C168.773052,765.435873 178.657305,765.221 187.314661,769.466462 C194.622955,773.142226 202.982595,773.165461 210.307101,769.530368 C218.890788,765.365364 228.666399,765.575204 237.101171,770.105521 C239.480723,771.495778 242.123112,772.227683 244.807177,772.240084 C257.148204,772.240084 267.148887,756.58304 267.148887,737.257908 C267.247231,729.803754 265.669015,722.441678 262.559533,715.849444 Z" id="Path" fill="#F2F2F2" fill-rule="nonzero"></path>
            <path d="M316.709281,665.044764 L307.249996,671.333101 L312.980315,660.386027 C311.357705,659.025959 309.349964,658.272669 307.274329,658.24518 L307.12225,658.24518 C306.466194,658.258657 305.810384,658.207306 305.163479,658.091806 L301.963747,660.226262 L303.332453,657.606122 C301.065629,656.770266 299.107323,655.204944 297.735964,653.132711 L292.011728,656.967063 L295.625114,650.052449 C292.279386,645.828271 287.765695,643.240084 282.795769,643.240084 C276.840374,643.240084 271.535875,646.959405 268.111067,652.762057 C266.043583,656.29949 262.327101,658.398059 258.378041,658.257962 L258.061718,658.257962 C251.485842,658.257962 246.157011,666.08643 246.157011,675.748996 C246.157011,685.411562 251.485842,693.240084 258.061718,693.240084 C259.506649,693.235209 260.928641,692.860099 262.204337,692.14724 C266.735462,689.837979 272.002254,689.730542 276.615298,691.853273 C280.509498,693.691155 284.963905,693.702773 288.866744,691.885226 C293.440533,689.802724 298.649436,689.907644 303.143876,692.172802 C304.411813,692.867931 305.819801,693.233883 307.249996,693.240084 C313.825872,693.240084 319.154703,685.411562 319.154703,675.748996 C319.207105,672.021919 318.366158,668.340881 316.709281,665.044764 L316.709281,665.044764 Z" id="Path" fill="#F2F2F2" fill-rule="nonzero"></path>
        </g>
    </g>
</svg>