<?xml version="1.0" encoding="UTF-8"?>
<svg width="406px" height="440px" viewBox="0 0 406 440" version="1.1" xmlns="http://www.w3.org/2000/svg" xmlns:xlink="http://www.w3.org/1999/xlink">
    <!-- Generator: Sketch 53.2 (72643) - https://sketchapp.com -->
    <title>Group 4</title>
    <desc>Created with Sketch.</desc>
    <g id="Page-1" stroke="none" stroke-width="1" fill="none" fill-rule="evenodd">
        <g id="Group-4" fill-rule="nonzero">
            <polygon id="Path" fill="#40C4FF" points="79.4992624 217.338 119.250369 284.338 159 351.338 79.4992624 351.338 0 351.338 39.7496312 284.338"></polygon>
            <rect id="Rectangle" fill="#40C4FF" x="262" y="326" width="113" height="113"></rect>
            <circle id="Oval" fill="#40C4FF" cx="208" cy="113" r="81"></circle>
            <g id="Group-2" transform="translate(145.000000, 64.000000)">
                <path d="M45,13 C45,18.5228475 49.4771525,23 55,23 C60.5228475,23 65,18.5228475 65,13 C65,7.4771525 60.5228475,3 55,3 C49.4797682,3.00630983 45.0063098,7.47976823 45,13 Z" id="Path" fill="#FFD740"></path>
                <path d="M0,52 C0,57.5228475 4.4771525,62 10,62 C15.5228475,62 20,57.5228475 20,52 C20,46.4771525 15.5228475,42 10,42 C4.47976823,42.0063098 0.00630983442,46.4797682 0,52 Z" id="Path" fill="#FFD740"></path>
                <path d="M87,10 C87,15.5228475 91.4771525,20 97,20 C102.522847,20 107,15.5228475 107,10 C107,4.4771525 102.522847,0 97,0 C91.4797682,0.00630983442 87.0063098,4.47976823 87,10 Z" id="Path" fill="#FFD740"></path>
                <path d="M63,101 C63,106.522847 67.4771525,111 73,111 C78.5228475,111 83,106.522847 83,101 C83,95.4771525 78.5228475,91 73,91 C67.4797682,91.0063098 63.0063098,95.4797682 63,101 Z" id="Path" fill="#FFD740"></path>
                <path d="M10,91 C10,96.5228475 14.4771525,101 20,101 C25.5228475,101 30,96.5228475 30,91 C30,85.4771525 25.5228475,81 20,81 C14.4797682,81.0063098 10.0063098,85.4797682 10,91 Z" id="Path" fill="#FFD740"></path>
                <polygon id="Path" fill="#EA6148" points="57 49.1646 69.16457 62.20649 82.20646 50.04193 70.04189 37"></polygon>
                <polygon id="Path" fill="#EA6148" points="38 74.1646 50.16457 87.20649 63.20646 75.04193 51.04189 62"></polygon>
                <polygon id="Path" fill="#EA6148" points="10 22.1646 22.16457 35.20649 35.20646 23.04193 23.04189 10"></polygon>
                <polygon id="Path" fill="#EA6148" points="107 35.1646 119.16457 48.20649 132.20646 36.04193 120.04189 23"></polygon>
                <polygon id="Path" fill="#EA6148" points="82 74.1646 94.16457 87.20649 107.20646 75.04193 95.04189 62"></polygon>
            </g>
            <g id="Group-3" transform="translate(27.000000, 256.000000)" fill="#FFD740">
                <g id="Group">
                    <path d="M34,39 C34,44.5228475 38.4771525,49 44,49 C49.5228475,49 54,44.5228475 54,39 C54,33.4771525 49.5228475,29 44,29 C38.4797682,29.0063098 34.0063098,33.4797682 34,39 Z" id="Path"></path>
                    <path d="M54,10 C54,15.5228475 58.4771525,20 64,20 C69.5228475,20 74,15.5228475 74,10 C74,4.4771525 69.5228475,0 64,0 C58.4797682,0.00630983442 54.0063098,4.47976823 54,10 Z" id="Path"></path>
                    <path d="M34,79 C34,84.5228475 38.4771525,89 44,89 C49.5228475,89 54,84.5228475 54,79 C54,73.4771525 49.5228475,69 44,69 C38.4797682,69.0063098 34.0063098,73.4797682 34,79 Z" id="Path"></path>
                    <path d="M0,69 C0,74.5228475 4.4771525,79 10,79 C15.5228475,79 20,74.5228475 20,69 C20,63.4771525 15.5228475,59 10,59 C4.47976823,59.0063098 0.00630983442,63.4797682 0,69 Z" id="Path"></path>
                    <path d="M64,49 C64,54.5228475 68.4771525,59 74,59 C79.5228475,59 84,54.5228475 84,49 C84,43.4771525 79.5228475,39 74,39 C68.4797682,39.0063098 64.0063098,43.4797682 64,49 Z" id="Path"></path>
                </g>
            </g>
            <g id="Group-3" transform="translate(272.000000, 336.000000)" fill="#FFD740">
                <g id="Group">
                    <path d="M34,39 C34,44.5228475 38.4771525,49 44,49 C49.5228475,49 54,44.5228475 54,39 C54,33.4771525 49.5228475,29 44,29 C38.4797682,29.0063098 34.0063098,33.4797682 34,39 Z" id="Path"></path>
                    <path d="M54,10 C54,15.5228475 58.4771525,20 64,20 C69.5228475,20 74,15.5228475 74,10 C74,4.4771525 69.5228475,0 64,0 C58.4797682,0.00630983442 54.0063098,4.47976823 54,10 Z" id="Path"></path>
                    <path d="M34,79 C34,84.5228475 38.4771525,89 44,89 C49.5228475,89 54,84.5228475 54,79 C54,73.4771525 49.5228475,69 44,69 C38.4797682,69.0063098 34.0063098,73.4797682 34,79 Z" id="Path"></path>
                    <path d="M0,69 C0,74.5228475 4.4771525,79 10,79 C15.5228475,79 20,74.5228475 20,69 C20,63.4771525 15.5228475,59 10,59 C4.47976823,59.0063098 0.00630983442,63.4797682 0,69 Z" id="Path"></path>
                    <path d="M64,49 C64,54.5228475 68.4771525,59 74,59 C79.5228475,59 84,54.5228475 84,49 C84,43.4771525 79.5228475,39 74,39 C68.4797682,39.0063098 64.0063098,43.4797682 64,49 Z" id="Path"></path>
                </g>
            </g>
            <path d="M218.5,200 C163.271525,200 118.5,155.228475 118.5,100 C118.5,44.771525 163.271525,0 218.5,0 C273.728475,0 318.5,44.771525 318.5,100 C318.437551,155.202587 273.702587,199.937551 218.5,200 L218.5,200 Z M218.5,2 C164.376095,2 120.5,45.8760945 120.5,100 C120.5,154.123905 164.376095,198 218.5,198 C272.623905,198 316.5,154.123905 316.5,100 C316.438988,45.9013865 272.598614,2.06101154 218.5,2 Z" id="Shape" fill="#3F3D56"></path>
            <rect id="Rectangle" fill="#3F3D56" transform="translate(144.922610, 205.118901) rotate(-64.335790) translate(-144.922610, -205.118901) " x="115.099195" y="204.118881" width="59.64683" height="2.00004"></rect>
            <rect id="Rectangle" fill="#3F3D56" transform="translate(225.844313, 354.374188) rotate(-61.578070) translate(-225.844313, -354.374188) " x="224.844313" y="316.374188" width="2" height="76"></rect>
            <path d="M406,439 L260,439 L260,293 L406,293 L406,439 Z M262,437 L404,437 L404,295 L262,295 L262,437 Z" id="Shape" fill="#3F3D56"></path>
            <path d="M200,352 L0,352 L99.9993511,175 L200,352 Z M5,349 L196,349 L100.5,180 L5,349 Z" id="Shape" fill="#3F3D56"></path>
            <path id="Line" d="M347.29039,365.900673 L267.50657,438.112123 L266.394447,439.118693 L264.381307,436.894447 L265.49343,435.887877 L345.27725,363.676428 L339.908877,357.745107 L360.370708,352.038665 L352.658763,371.831995 L347.29039,365.900673 Z" fill="#3F3D56"></path>
        </g>
    </g>
</svg>