<svg class="main-svg" xmlns="http://www.w3.org/2000/svg" xmlns:xlink="http://www.w3.org/1999/xlink" width="979" height="406" viewBox="0 0 979 406"><rect x="0" y="0" width="979" height="406" style="fill: rgb(255, 255, 255); fill-opacity: 1;"/><defs id="defs-8c315f"><g class="clips"><clipPath id="clip8c315fxyplot" class="plotclip"><rect width="819" height="226"/></clipPath><clipPath class="axesclip" id="clip8c315fx"><rect x="80" y="0" width="819" height="406"/></clipPath><clipPath class="axesclip" id="clip8c315fy"><rect x="0" y="100" width="979" height="226"/></clipPath><clipPath class="axesclip" id="clip8c315fxy"><rect x="80" y="100" width="819" height="226"/></clipPath></g><g class="gradients"/></defs><g class="bglayer"/><g class="layer-below"><g class="imagelayer"/><g class="shapelayer"/></g><g class="cartesianlayer"><g class="subplot xy"><g class="layer-subplot"><g class="shapelayer"/><g class="imagelayer"/></g><g class="gridlayer"><g class="x"/><g class="y"/></g><g class="zerolinelayer"><path class="xzl zl crisp" transform="translate(116.7,0)" d="M0,100v226" style="stroke: rgb(51, 46, 86); stroke-opacity: 0.8; stroke-width: 4px;"/><path class="yzl zl crisp" transform="translate(0,313.96000000000004)" d="M80,0h819" style="stroke: rgb(51, 46, 86); stroke-opacity: 0.8; stroke-width: 4px;"/></g><path class="xlines-below"/><path class="ylines-below"/><g class="overlines-below"/><g class="xaxislayer-below"/><g class="yaxislayer-below"/><g class="overaxes-below"/><g class="plot" transform="translate(80, 100)" clip-path="url(#clip8c315fxyplot)"><g class="scatterlayer mlayer"><g class="trace scatter trace6b31e8c9-caca-4025-9026-fd7934a9219f" style="stroke-miterlimit: 2; opacity: 1;"><g class="fills"/><g class="errorbars"/><g class="lines"/><g class="points"><path class="point" transform="translate(666.79,90.83)" d="M5,0A5,5 0 1,1 0,-5A5,5 0 0,1 5,0Z" style="opacity: 0.89; stroke-width: 0px; fill: rgb(255, 123, 105); fill-opacity: 1;"/><path class="point" transform="translate(666.79,96.05)" d="M5,0A5,5 0 1,1 0,-5A5,5 0 0,1 5,0Z" style="opacity: 0.89; stroke-width: 0px; fill: rgb(255, 123, 105); fill-opacity: 1;"/><path class="point" transform="translate(614.28,132.27)" d="M5,0A5,5 0 1,1 0,-5A5,5 0 0,1 5,0Z" style="opacity: 0.89; stroke-width: 0px; fill: rgb(255, 123, 105); fill-opacity: 1;"/><path class="point" transform="translate(561.77,71.69)" d="M5,0A5,5 0 1,1 0,-5A5,5 0 0,1 5,0Z" style="opacity: 0.89; stroke-width: 0px; fill: rgb(255, 123, 105); fill-opacity: 1;"/><path class="point" transform="translate(519.77,124.84)" d="M5,0A5,5 0 1,1 0,-5A5,5 0 0,1 5,0Z" style="opacity: 0.89; stroke-width: 0px; fill: rgb(255, 123, 105); fill-opacity: 1;"/><path class="point" transform="translate(509.26,123.24)" d="M5,0A5,5 0 1,1 0,-5A5,5 0 0,1 5,0Z" style="opacity: 0.89; stroke-width: 0px; fill: rgb(255, 123, 105); fill-opacity: 1;"/><path class="point" transform="translate(477.76,143.48)" d="M5,0A5,5 0 1,1 0,-5A5,5 0 0,1 5,0Z" style="opacity: 0.89; stroke-width: 0px; fill: rgb(255, 123, 105); fill-opacity: 1;"/><path class="point" transform="translate(456.76,37.08)" d="M5,0A5,5 0 1,1 0,-5A5,5 0 0,1 5,0Z" style="opacity: 0.89; stroke-width: 0px; fill: rgb(255, 123, 105); fill-opacity: 1;"/><path class="point" transform="translate(446.26,55.65)" d="M5,0A5,5 0 1,1 0,-5A5,5 0 0,1 5,0Z" style="opacity: 0.89; stroke-width: 0px; fill: rgb(255, 123, 105); fill-opacity: 1;"/><path class="point" transform="translate(430.5,58.18)" d="M5,0A5,5 0 1,1 0,-5A5,5 0 0,1 5,0Z" style="opacity: 0.89; stroke-width: 0px; fill: rgb(255, 123, 105); fill-opacity: 1;"/><path class="point" transform="translate(404.25,180.6)" d="M5,0A5,5 0 1,1 0,-5A5,5 0 0,1 5,0Z" style="opacity: 0.89; stroke-width: 0px; fill: rgb(255, 123, 105); fill-opacity: 1;"/><path class="point" transform="translate(404.25,83.06)" d="M5,0A5,5 0 1,1 0,-5A5,5 0 0,1 5,0Z" style="opacity: 0.89; stroke-width: 0px; fill: rgb(255, 123, 105); fill-opacity: 1;"/><path class="point" transform="translate(356.99,113.91)" d="M5,0A5,5 0 1,1 0,-5A5,5 0 0,1 5,0Z" style="opacity: 0.89; stroke-width: 0px; fill: rgb(255, 123, 105); fill-opacity: 1;"/><path class="point" transform="translate(351.74,153.09)" d="M5,0A5,5 0 1,1 0,-5A5,5 0 0,1 5,0Z" style="opacity: 0.89; stroke-width: 0px; fill: rgb(255, 123, 105); fill-opacity: 1;"/><path class="point" transform="translate(325.49,72.19)" d="M5,0A5,5 0 1,1 0,-5A5,5 0 0,1 5,0Z" style="opacity: 0.89; stroke-width: 0px; fill: rgb(255, 123, 105); fill-opacity: 1;"/><path class="point" transform="translate(299.23,188.22)" d="M5,0A5,5 0 1,1 0,-5A5,5 0 0,1 5,0Z" style="opacity: 0.89; stroke-width: 0px; fill: rgb(255, 123, 105); fill-opacity: 1;"/><path class="point" transform="translate(299.23,140.25)" d="M5,0A5,5 0 1,1 0,-5A5,5 0 0,1 5,0Z" style="opacity: 0.89; stroke-width: 0px; fill: rgb(255, 123, 105); fill-opacity: 1;"/><path class="point" transform="translate(278.23,133.24)" d="M5,0A5,5 0 1,1 0,-5A5,5 0 0,1 5,0Z" style="opacity: 0.89; stroke-width: 0px; fill: rgb(255, 123, 105); fill-opacity: 1;"/><path class="point" transform="translate(272.98,195.95)" d="M5,0A5,5 0 1,1 0,-5A5,5 0 0,1 5,0Z" style="opacity: 0.89; stroke-width: 0px; fill: rgb(255, 123, 105); fill-opacity: 1;"/><path class="point" transform="translate(246.73,88.23)" d="M5,0A5,5 0 1,1 0,-5A5,5 0 0,1 5,0Z" style="opacity: 0.89; stroke-width: 0px; fill: rgb(255, 123, 105); fill-opacity: 1;"/><path class="point" transform="translate(246.73,17.55)" d="M5,0A5,5 0 1,1 0,-5A5,5 0 0,1 5,0Z" style="opacity: 0.89; stroke-width: 0px; fill: rgb(255, 123, 105); fill-opacity: 1;"/><path class="point" transform="translate(246.73,138.52)" d="M5,0A5,5 0 1,1 0,-5A5,5 0 0,1 5,0Z" style="opacity: 0.89; stroke-width: 0px; fill: rgb(255, 123, 105); fill-opacity: 1;"/><path class="point" transform="translate(236.23,158.35)" d="M5,0A5,5 0 1,1 0,-5A5,5 0 0,1 5,0Z" style="opacity: 0.89; stroke-width: 0px; fill: rgb(255, 123, 105); fill-opacity: 1;"/><path class="point" transform="translate(236.23,178.31)" d="M5,0A5,5 0 1,1 0,-5A5,5 0 0,1 5,0Z" style="opacity: 0.89; stroke-width: 0px; fill: rgb(255, 123, 105); fill-opacity: 1;"/><path class="point" transform="translate(220.47,35.98)" d="M5,0A5,5 0 1,1 0,-5A5,5 0 0,1 5,0Z" style="opacity: 0.89; stroke-width: 0px; fill: rgb(255, 123, 105); fill-opacity: 1;"/><path class="point" transform="translate(220.47,190.65)" d="M5,0A5,5 0 1,1 0,-5A5,5 0 0,1 5,0Z" style="opacity: 0.89; stroke-width: 0px; fill: rgb(255, 123, 105); fill-opacity: 1;"/><path class="point" transform="translate(194.22,167.3)" d="M5,0A5,5 0 1,1 0,-5A5,5 0 0,1 5,0Z" style="opacity: 0.89; stroke-width: 0px; fill: rgb(255, 123, 105); fill-opacity: 1;"/><path class="point" transform="translate(194.22,208.45)" d="M5,0A5,5 0 1,1 0,-5A5,5 0 0,1 5,0Z" style="opacity: 0.89; stroke-width: 0px; fill: rgb(255, 123, 105); fill-opacity: 1;"/><path class="point" transform="translate(194.22,59.63)" d="M5,0A5,5 0 1,1 0,-5A5,5 0 0,1 5,0Z" style="opacity: 0.89; stroke-width: 0px; fill: rgb(255, 123, 105); fill-opacity: 1;"/><path class="point" transform="translate(194.22,188.4)" d="M5,0A5,5 0 1,1 0,-5A5,5 0 0,1 5,0Z" style="opacity: 0.89; stroke-width: 0px; fill: rgb(255, 123, 105); fill-opacity: 1;"/><path class="point" transform="translate(183.72,175.86)" d="M5,0A5,5 0 1,1 0,-5A5,5 0 0,1 5,0Z" style="opacity: 0.89; stroke-width: 0px; fill: rgb(255, 123, 105); fill-opacity: 1;"/><path class="point" transform="translate(183.72,129.39)" d="M5,0A5,5 0 1,1 0,-5A5,5 0 0,1 5,0Z" style="opacity: 0.89; stroke-width: 0px; fill: rgb(255, 123, 105); fill-opacity: 1;"/><path class="point" transform="translate(173.22,147.97)" d="M5,0A5,5 0 1,1 0,-5A5,5 0 0,1 5,0Z" style="opacity: 0.89; stroke-width: 0px; fill: rgb(255, 123, 105); fill-opacity: 1;"/><path class="point" transform="translate(167.97,164.6)" d="M5,0A5,5 0 1,1 0,-5A5,5 0 0,1 5,0Z" style="opacity: 0.89; stroke-width: 0px; fill: rgb(255, 123, 105); fill-opacity: 1;"/><path class="point" transform="translate(157.47,180.88)" d="M5,0A5,5 0 1,1 0,-5A5,5 0 0,1 5,0Z" style="opacity: 0.89; stroke-width: 0px; fill: rgb(255, 123, 105); fill-opacity: 1;"/><path class="point" transform="translate(141.71,143.69)" d="M5,0A5,5 0 1,1 0,-5A5,5 0 0,1 5,0Z" style="opacity: 0.89; stroke-width: 0px; fill: rgb(255, 123, 105); fill-opacity: 1;"/><path class="point" transform="translate(131.21,169.84)" d="M5,0A5,5 0 1,1 0,-5A5,5 0 0,1 5,0Z" style="opacity: 0.89; stroke-width: 0px; fill: rgb(255, 123, 105); fill-opacity: 1;"/><path class="point" transform="translate(125.96,142.19)" d="M5,0A5,5 0 1,1 0,-5A5,5 0 0,1 5,0Z" style="opacity: 0.89; stroke-width: 0px; fill: rgb(255, 123, 105); fill-opacity: 1;"/><path class="point" transform="translate(115.46,119.18)" d="M5,0A5,5 0 1,1 0,-5A5,5 0 0,1 5,0Z" style="opacity: 0.89; stroke-width: 0px; fill: rgb(255, 123, 105); fill-opacity: 1;"/><path class="point" transform="translate(115.46,201.82)" d="M5,0A5,5 0 1,1 0,-5A5,5 0 0,1 5,0Z" style="opacity: 0.89; stroke-width: 0px; fill: rgb(255, 123, 105); fill-opacity: 1;"/><path class="point" transform="translate(104.96,179.98)" d="M5,0A5,5 0 1,1 0,-5A5,5 0 0,1 5,0Z" style="opacity: 0.89; stroke-width: 0px; fill: rgb(255, 123, 105); fill-opacity: 1;"/><path class="point" transform="translate(104.96,190.14)" d="M5,0A5,5 0 1,1 0,-5A5,5 0 0,1 5,0Z" style="opacity: 0.89; stroke-width: 0px; fill: rgb(255, 123, 105); fill-opacity: 1;"/><path class="point" transform="translate(99.71,193.69)" d="M5,0A5,5 0 1,1 0,-5A5,5 0 0,1 5,0Z" style="opacity: 0.89; stroke-width: 0px; fill: rgb(255, 123, 105); fill-opacity: 1;"/><path class="point" transform="translate(99.71,190.83)" d="M5,0A5,5 0 1,1 0,-5A5,5 0 0,1 5,0Z" style="opacity: 0.89; stroke-width: 0px; fill: rgb(255, 123, 105); fill-opacity: 1;"/><path class="point" transform="translate(65.58,181.57)" d="M5,0A5,5 0 1,1 0,-5A5,5 0 0,1 5,0Z" style="opacity: 0.89; stroke-width: 0px; fill: rgb(255, 123, 105); fill-opacity: 1;"/><path class="point" transform="translate(62.95,103.36)" d="M5,0A5,5 0 1,1 0,-5A5,5 0 0,1 5,0Z" style="opacity: 0.89; stroke-width: 0px; fill: rgb(255, 123, 105); fill-opacity: 1;"/><path class="point" transform="translate(47.2,203.37)" d="M5,0A5,5 0 1,1 0,-5A5,5 0 0,1 5,0Z" style="opacity: 0.89; stroke-width: 0px; fill: rgb(255, 123, 105); fill-opacity: 1;"/><path class="point" transform="translate(771.8,51.83)" d="M5,0A5,5 0 1,1 0,-5A5,5 0 0,1 5,0Z" style="opacity: 0.89; stroke-width: 0px; fill: rgb(255, 123, 105); fill-opacity: 1;"/><path class="point" transform="translate(719.29,133.88)" d="M5,0A5,5 0 1,1 0,-5A5,5 0 0,1 5,0Z" style="opacity: 0.89; stroke-width: 0px; fill: rgb(255, 123, 105); fill-opacity: 1;"/><path class="point" transform="translate(719.29,169.48)" d="M5,0A5,5 0 1,1 0,-5A5,5 0 0,1 5,0Z" style="opacity: 0.89; stroke-width: 0px; fill: rgb(255, 123, 105); fill-opacity: 1;"/></g><g class="text"/></g><g class="trace scatter trace5f892f2f-e25b-477f-a9e9-d20245f001cf" style="stroke-miterlimit: 2; opacity: 1;"><g class="fills"/><g class="errorbars"/><g class="lines"><path class="js-line" d="M309.74,132.19L36.74,177.69L36.74,177.69" style="vector-effect: non-scaling-stroke; fill: none; stroke: rgb(252, 123, 101); stroke-opacity: 0; stroke-width: 5px; opacity: 1;"/></g><g class="points"/><g class="text"/></g></g></g><g class="overplot"/><path class="xlines-above crisp" d="M0,0" style="fill: none;"/><path class="ylines-above crisp" d="M0,0" style="fill: none;"/><g class="overlines-above"/><g class="xaxislayer-above"/><g class="yaxislayer-above"/><g class="overaxes-above"/></g></g><g class="polarlayer"/><g class="ternarylayer"/><g class="geolayer"/><g class="pielayer"/><g class="glimages"/><defs id="topdefs-8c315f"><g class="clips"/></defs><g class="layer-above"><g class="imagelayer"/><g class="shapelayer"/></g><g class="infolayer"><g class="g-gtitle"/><g class="g-xtitle"/><g class="g-ytitle"/></g></svg>