<svg class="main-svg" xmlns="http://www.w3.org/2000/svg" xmlns:xlink="http://www.w3.org/1999/xlink" width="979" height="455" viewBox="0 0 979 455"><rect x="0" y="0" width="979" height="455" style="fill: rgb(255, 255, 255); fill-opacity: 1;"/><defs id="defs-7771a5"><g class="clips"><clipPath id="clip7771a5xyplot" class="plotclip"><rect width="819" height="275"/></clipPath><clipPath class="axesclip" id="clip7771a5x"><rect x="80" y="0" width="819" height="455"/></clipPath><clipPath class="axesclip" id="clip7771a5y"><rect x="0" y="100" width="979" height="275"/></clipPath><clipPath class="axesclip" id="clip7771a5xy"><rect x="80" y="100" width="819" height="275"/></clipPath></g><g class="gradients"/></defs><g class="bglayer"/><g class="layer-below"><g class="imagelayer"/><g class="shapelayer"/></g><g class="cartesianlayer"><g class="subplot xy"><g class="layer-subplot"><g class="shapelayer"/><g class="imagelayer"/></g><g class="gridlayer"><g class="x"><path class="xgrid crisp" transform="translate(156.48000000000002,0)" d="M0,100v275" style="stroke: rgb(255, 255, 255); stroke-opacity: 1; stroke-width: 1px;"/><path class="xgrid crisp" transform="translate(258.71000000000004,0)" d="M0,100v275" style="stroke: rgb(255, 255, 255); stroke-opacity: 1; stroke-width: 1px;"/><path class="xgrid crisp" transform="translate(336.04,0)" d="M0,100v275" style="stroke: rgb(255, 255, 255); stroke-opacity: 1; stroke-width: 1px;"/><path class="xgrid crisp" transform="translate(413.37,0)" d="M0,100v275" style="stroke: rgb(255, 255, 255); stroke-opacity: 1; stroke-width: 1px;"/><path class="xgrid crisp" transform="translate(515.5899999999999,0)" d="M0,100v275" style="stroke: rgb(255, 255, 255); stroke-opacity: 1; stroke-width: 1px;"/><path class="xgrid crisp" transform="translate(592.92,0)" d="M0,100v275" style="stroke: rgb(255, 255, 255); stroke-opacity: 1; stroke-width: 1px;"/><path class="xgrid crisp" transform="translate(670.25,0)" d="M0,100v275" style="stroke: rgb(255, 255, 255); stroke-opacity: 1; stroke-width: 1px;"/><path class="xgrid crisp" transform="translate(772.48,0)" d="M0,100v275" style="stroke: rgb(255, 255, 255); stroke-opacity: 1; stroke-width: 1px;"/><path class="xgrid crisp" transform="translate(849.81,0)" d="M0,100v275" style="stroke: rgb(255, 255, 255); stroke-opacity: 1; stroke-width: 1px;"/></g><g class="y"><path class="ygrid crisp" transform="translate(0,355.84000000000003)" d="M80,0h819" style="stroke: rgb(255, 255, 255); stroke-opacity: 1; stroke-width: 1px;"/><path class="ygrid crisp" transform="translate(0,306.38)" d="M80,0h819" style="stroke: rgb(255, 255, 255); stroke-opacity: 1; stroke-width: 1px;"/><path class="ygrid crisp" transform="translate(0,256.93)" d="M80,0h819" style="stroke: rgb(255, 255, 255); stroke-opacity: 1; stroke-width: 1px;"/><path class="ygrid crisp" transform="translate(0,207.47)" d="M80,0h819" style="stroke: rgb(255, 255, 255); stroke-opacity: 1; stroke-width: 1px;"/><path class="ygrid crisp" transform="translate(0,158.01)" d="M80,0h819" style="stroke: rgb(255, 255, 255); stroke-opacity: 1; stroke-width: 1px;"/><path class="ygrid crisp" transform="translate(0,108.55)" d="M80,0h819" style="stroke: rgb(255, 255, 255); stroke-opacity: 1; stroke-width: 1px;"/></g></g><g class="zerolinelayer"/><path class="xlines-below"/><path class="ylines-below"/><g class="overlines-below"/><g class="xaxislayer-below"/><g class="yaxislayer-below"/><g class="overaxes-below"/><g class="plot" transform="translate(80, 100)" clip-path="url(#clip7771a5xyplot)"><g class="scatterlayer mlayer"><g class="trace scatter traceeb73f6c9-074f-4559-bfd0-1fa121ec4752" style="stroke-miterlimit: 2; opacity: 1;"><g class="fills"/><g class="errorbars"/><g class="lines"/><g class="points"><path class="point" transform="translate(460.01,96.09)" d="M19.94,0A19.94,19.94 0 1,1 0,-19.94A19.94,19.94 0 0,1 19.94,0Z" style="opacity: 0.89; stroke-width: 1px; fill: rgb(78, 191, 229); fill-opacity: 1; stroke: rgb(255, 255, 255); stroke-opacity: 0.28;"/><path class="point" transform="translate(430.97,242.33)" d="M15.58,0A15.58,15.58 0 1,1 0,-15.58A15.58,15.58 0 0,1 15.58,0Z" style="opacity: 0.89; stroke-width: 1px; fill: rgb(78, 191, 229); fill-opacity: 1; stroke: rgb(255, 255, 255); stroke-opacity: 0.28;"/><path class="point" transform="translate(296.82,173.11)" d="M13.99,0A13.99,13.99 0 1,1 0,-13.99A13.99,13.99 0 0,1 13.99,0Z" style="opacity: 0.89; stroke-width: 1px; fill: rgb(78, 191, 229); fill-opacity: 1; stroke: rgb(255, 255, 255); stroke-opacity: 0.28;"/><path class="point" transform="translate(538.44,202.78)" d="M9.39,0A9.39,9.39 0 1,1 0,-9.39A9.39,9.39 0 0,1 9.39,0Z" style="opacity: 0.89; stroke-width: 1px; fill: rgb(78, 191, 229); fill-opacity: 1; stroke: rgb(255, 255, 255); stroke-opacity: 0.28;"/><path class="point" transform="translate(277.95,195.03)" d="M16.14,0A16.14,16.14 0 1,1 0,-16.14A16.14,16.14 0 0,1 16.14,0Z" style="opacity: 0.89; stroke-width: 1px; fill: rgb(78, 191, 229); fill-opacity: 1; stroke: rgb(255, 255, 255); stroke-opacity: 0.28;"/><path class="point" transform="translate(161.9,208.46)" d="M14.12,0A14.12,14.12 0 1,1 0,-14.12A14.12,14.12 0 0,1 14.12,0Z" style="opacity: 0.89; stroke-width: 1px; fill: rgb(78, 191, 229); fill-opacity: 1; stroke: rgb(255, 255, 255); stroke-opacity: 0.28;"/><path class="point" transform="translate(335.69,204.26)" d="M17.02,0A17.02,17.02 0 1,1 0,-17.02A17.02,17.02 0 0,1 17.02,0Z" style="opacity: 0.89; stroke-width: 1px; fill: rgb(78, 191, 229); fill-opacity: 1; stroke: rgb(255, 255, 255); stroke-opacity: 0.28;"/><path class="point" transform="translate(217.2,232.39)" d="M12,0A12,12 0 1,1 0,-12A12,12 0 0,1 12,0Z" style="opacity: 0.89; stroke-width: 1px; fill: rgb(78, 191, 229); fill-opacity: 1; stroke: rgb(255, 255, 255); stroke-opacity: 0.28;"/><path class="point" transform="translate(315.5,203.16)" d="M14.84,0A14.84,14.84 0 1,1 0,-14.84A14.84,14.84 0 0,1 14.84,0Z" style="opacity: 0.89; stroke-width: 1px; fill: rgb(78, 191, 229); fill-opacity: 1; stroke: rgb(255, 255, 255); stroke-opacity: 0.28;"/><path class="point" transform="translate(254.48,131.44)" d="M7.62,0A7.62,7.62 0 1,1 0,-7.62A7.62,7.62 0 0,1 7.62,0Z" style="opacity: 0.89; stroke-width: 1px; fill: rgb(78, 191, 229); fill-opacity: 1; stroke: rgb(255, 255, 255); stroke-opacity: 0.28;"/></g><g class="text"/></g><g class="trace scatter trace85b01bae-416d-4c1b-b0da-d4fd77269d6d" style="stroke-miterlimit: 2; opacity: 1;"><g class="fills"/><g class="errorbars"/><g class="lines"/><g class="points"><path class="point" transform="translate(405.62,129.46)" d="M14.42,0A14.42,14.42 0 1,1 0,-14.42A14.42,14.42 0 0,1 14.42,0Z" style="opacity: 0.91; stroke-width: 1px; fill: rgb(234, 97, 72); fill-opacity: 1; stroke: rgb(255, 255, 255); stroke-opacity: 0.28;"/><path class="point" transform="translate(501.98,95.65)" d="M30.81,0A30.81,30.81 0 1,1 0,-30.81A30.81,30.81 0 0,1 30.81,0Z" style="opacity: 0.91; stroke-width: 1px; fill: rgb(234, 97, 72); fill-opacity: 1; stroke: rgb(255, 255, 255); stroke-opacity: 0.28;"/><path class="point" transform="translate(543.65,65.17)" d="M16.67,0A16.67,16.67 0 1,1 0,-16.67A16.67,16.67 0 0,1 16.67,0Z" style="opacity: 0.91; stroke-width: 1px; fill: rgb(234, 97, 72); fill-opacity: 1; stroke: rgb(255, 255, 255); stroke-opacity: 0.28;"/><path class="point" transform="translate(473.23,93.18)" d="M21.4,0A21.4,21.4 0 1,1 0,-21.4A21.4,21.4 0 0,1 21.4,0Z" style="opacity: 0.91; stroke-width: 1px; fill: rgb(234, 97, 72); fill-opacity: 1; stroke: rgb(255, 255, 255); stroke-opacity: 0.28;"/></g><g class="text"/></g></g></g><g class="overplot"/><path class="xlines-above crisp" d="M0,0" style="fill: none;"/><path class="ylines-above crisp" d="M0,0" style="fill: none;"/><g class="overlines-above"/><g class="xaxislayer-above"/><g class="yaxislayer-above"/><g class="overaxes-above"/></g></g><g class="polarlayer"/><g class="ternarylayer"/><g class="geolayer"/><g class="pielayer"/><g class="glimages"/><defs id="topdefs-7771a5"><g class="clips"/></defs><g class="layer-above"><g class="imagelayer"/><g class="shapelayer"/></g><g class="infolayer"><g class="g-gtitle"/><g class="g-xtitle"/><g class="g-ytitle"/></g></svg>