<svg class="main-svg" xmlns="http://www.w3.org/2000/svg" xmlns:xlink="http://www.w3.org/1999/xlink" width="979" height="456" viewBox="0 0 979 456"><rect x="0" y="0" width="979" height="456" style="fill: rgb(255, 255, 255); fill-opacity: 1;"/><defs id="defs-3d136f"><g class="clips"><clipPath id="clip3d136fxyplot" class="plotclip"><rect width="819" height="276"/></clipPath><clipPath class="axesclip" id="clip3d136fx"><rect x="80" y="0" width="819" height="456"/></clipPath><clipPath class="axesclip" id="clip3d136fy"><rect x="0" y="100" width="979" height="276"/></clipPath><clipPath class="axesclip" id="clip3d136fxy"><rect x="80" y="100" width="819" height="276"/></clipPath></g><g class="gradients"/></defs><g class="bglayer"/><g class="layer-below"><g class="imagelayer"/><g class="shapelayer"/></g><g class="cartesianlayer"><g class="subplot xy"><g class="layer-subplot"><g class="shapelayer"/><g class="imagelayer"/></g><g class="gridlayer"><g class="x"><path class="xgrid crisp" transform="translate(121.82,0)" d="M0,100v276" style="stroke: rgb(255, 255, 255); stroke-opacity: 1; stroke-width: 1px;"/><path class="xgrid crisp" transform="translate(167.74,0)" d="M0,100v276" style="stroke: rgb(255, 255, 255); stroke-opacity: 1; stroke-width: 1px;"/><path class="xgrid crisp" transform="translate(205.26,0)" d="M0,100v276" style="stroke: rgb(255, 255, 255); stroke-opacity: 1; stroke-width: 1px;"/><path class="xgrid crisp" transform="translate(236.98,0)" d="M0,100v276" style="stroke: rgb(255, 255, 255); stroke-opacity: 1; stroke-width: 1px;"/><path class="xgrid crisp" transform="translate(264.46000000000004,0)" d="M0,100v276" style="stroke: rgb(255, 255, 255); stroke-opacity: 1; stroke-width: 1px;"/><path class="xgrid crisp" transform="translate(288.7,0)" d="M0,100v276" style="stroke: rgb(255, 255, 255); stroke-opacity: 1; stroke-width: 1px;"/><path class="xgrid crisp" transform="translate(310.38,0)" d="M0,100v276" style="stroke: rgb(255, 255, 255); stroke-opacity: 1; stroke-width: 1px;"/><path class="xgrid crisp" transform="translate(453.02,0)" d="M0,100v276" style="stroke: rgb(255, 255, 255); stroke-opacity: 1; stroke-width: 1px;"/><path class="xgrid crisp" transform="translate(536.45,0)" d="M0,100v276" style="stroke: rgb(255, 255, 255); stroke-opacity: 1; stroke-width: 1px;"/><path class="xgrid crisp" transform="translate(595.65,0)" d="M0,100v276" style="stroke: rgb(255, 255, 255); stroke-opacity: 1; stroke-width: 1px;"/><path class="xgrid crisp" transform="translate(641.57,0)" d="M0,100v276" style="stroke: rgb(255, 255, 255); stroke-opacity: 1; stroke-width: 1px;"/><path class="xgrid crisp" transform="translate(679.09,0)" d="M0,100v276" style="stroke: rgb(255, 255, 255); stroke-opacity: 1; stroke-width: 1px;"/><path class="xgrid crisp" transform="translate(710.81,0)" d="M0,100v276" style="stroke: rgb(255, 255, 255); stroke-opacity: 1; stroke-width: 1px;"/><path class="xgrid crisp" transform="translate(738.29,0)" d="M0,100v276" style="stroke: rgb(255, 255, 255); stroke-opacity: 1; stroke-width: 1px;"/><path class="xgrid crisp" transform="translate(762.53,0)" d="M0,100v276" style="stroke: rgb(255, 255, 255); stroke-opacity: 1; stroke-width: 1px;"/><path class="xgrid crisp" transform="translate(784.21,0)" d="M0,100v276" style="stroke: rgb(255, 255, 255); stroke-opacity: 1; stroke-width: 1px;"/></g><g class="y"><path class="ygrid crisp" transform="translate(0,312.39)" d="M80,0h819" style="stroke: rgb(255, 255, 255); stroke-opacity: 1; stroke-width: 1px;"/><path class="ygrid crisp" transform="translate(0,243.19)" d="M80,0h819" style="stroke: rgb(255, 255, 255); stroke-opacity: 1; stroke-width: 1px;"/><path class="ygrid crisp" transform="translate(0,173.99)" d="M80,0h819" style="stroke: rgb(255, 255, 255); stroke-opacity: 1; stroke-width: 1px;"/><path class="ygrid crisp" transform="translate(0,104.79)" d="M80,0h819" style="stroke: rgb(255, 255, 255); stroke-opacity: 1; stroke-width: 1px;"/></g></g><g class="zerolinelayer"/><path class="xlines-below"/><path class="ylines-below"/><g class="overlines-below"/><g class="xaxislayer-below"/><g class="yaxislayer-below"/><g class="overaxes-below"/><g class="plot" transform="translate(80, 100)" clip-path="url('#clip3d136fxyplot')"><g class="scatterlayer mlayer"><g class="trace scatter trace044cb75d-e05d-49c2-b0a3-2900bc3c8039" style="stroke-miterlimit: 2; opacity: 1;"><g class="fills"/><g class="errorbars"/><g class="lines"/><g class="points"><path class="point" transform="translate(606.61,58.07)" d="M19.94,0A19.94,19.94 0 1,1 0,-19.94A19.94,19.94 0 0,1 19.94,0Z" style="opacity: 0.98; stroke-width: 1px; fill: rgb(78, 191, 229); fill-opacity: 1; stroke: rgb(255, 255, 255); stroke-opacity: 0.28;"/><path class="point" transform="translate(305.6,165.83)" d="M13.99,0A13.99,13.99 0 1,1 0,-13.99A13.99,13.99 0 0,1 13.99,0Z" style="opacity: 0.98; stroke-width: 1px; fill: rgb(78, 191, 229); fill-opacity: 1; stroke: rgb(255, 255, 255); stroke-opacity: 0.28;"/><path class="point" transform="translate(270.8,196.51)" d="M16.14,0A16.14,16.14 0 1,1 0,-16.14A16.14,16.14 0 0,1 16.14,0Z" style="opacity: 0.98; stroke-width: 1px; fill: rgb(78, 191, 229); fill-opacity: 1; stroke: rgb(255, 255, 255); stroke-opacity: 0.28;"/><path class="point" transform="translate(56.74,215.3)" d="M14.12,0A14.12,14.12 0 1,1 0,-14.12A14.12,14.12 0 0,1 14.12,0Z" style="opacity: 0.98; stroke-width: 1px; fill: rgb(78, 191, 229); fill-opacity: 1; stroke: rgb(255, 255, 255); stroke-opacity: 0.28;"/><path class="point" transform="translate(377.3,209.42)" d="M17.02,0A17.02,17.02 0 1,1 0,-17.02A17.02,17.02 0 0,1 17.02,0Z" style="opacity: 0.98; stroke-width: 1px; fill: rgb(78, 191, 229); fill-opacity: 1; stroke: rgb(255, 255, 255); stroke-opacity: 0.28;"/><path class="point" transform="translate(158.74,248.79)" d="M12,0A12,12 0 1,1 0,-12A12,12 0 0,1 12,0Z" style="opacity: 0.98; stroke-width: 1px; fill: rgb(78, 191, 229); fill-opacity: 1; stroke: rgb(255, 255, 255); stroke-opacity: 0.28;"/><path class="point" transform="translate(340.06,207.89)" d="M14.84,0A14.84,14.84 0 1,1 0,-14.84A14.84,14.84 0 0,1 14.84,0Z" style="opacity: 0.98; stroke-width: 1px; fill: rgb(78, 191, 229); fill-opacity: 1; stroke: rgb(255, 255, 255); stroke-opacity: 0.28;"/><path class="point" transform="translate(227.51,107.54)" d="M7.62,0A7.62,7.62 0 1,1 0,-7.62A7.62,7.62 0 0,1 7.62,0Z" style="opacity: 0.98; stroke-width: 1px; fill: rgb(78, 191, 229); fill-opacity: 1; stroke: rgb(255, 255, 255); stroke-opacity: 0.28;"/><path class="point" transform="translate(495.82,175.56)" d="M11.59,0A11.59,11.59 0 1,1 0,-11.59A11.59,11.59 0 0,1 11.59,0Z" style="opacity: 0.98; stroke-width: 1px; fill: rgb(78, 191, 229); fill-opacity: 1; stroke: rgb(255, 255, 255); stroke-opacity: 0.28;"/><path class="point" transform="translate(319.87,223.97)" d="M17.09,0A17.09,17.09 0 1,1 0,-17.09A17.09,17.09 0 0,1 17.09,0Z" style="opacity: 0.98; stroke-width: 1px; fill: rgb(78, 191, 229); fill-opacity: 1; stroke: rgb(255, 255, 255); stroke-opacity: 0.28;"/><path class="point" transform="translate(381.33,179.24)" d="M6.96,0A6.96,6.96 0 1,1 0,-6.96A6.96,6.96 0 0,1 6.96,0Z" style="opacity: 0.98; stroke-width: 1px; fill: rgb(78, 191, 229); fill-opacity: 1; stroke: rgb(255, 255, 255); stroke-opacity: 0.28;"/><path class="point" transform="translate(584.2,64.73)" d="M24.84,0A24.84,24.84 0 1,1 0,-24.84A24.84,24.84 0 0,1 24.84,0Z" style="opacity: 0.98; stroke-width: 1px; fill: rgb(78, 191, 229); fill-opacity: 1; stroke: rgb(255, 255, 255); stroke-opacity: 0.28;"/></g><g class="text"/></g><g class="trace scatter traceb2020ac9-bd8f-4614-8961-01917c5bd2be" style="stroke-miterlimit: 2; opacity: 1;"><g class="fills"/><g class="errorbars"/><g class="lines"/><g class="points"><path class="point" transform="translate(754.68,37.17)" d="M20.91,0A20.91,20.91 0 1,1 0,-20.91A20.91,20.91 0 0,1 20.91,0Z" style="opacity: 0.96; stroke-width: 1px; fill: rgb(234, 97, 72); fill-opacity: 1; stroke: rgb(255, 255, 255); stroke-opacity: 0.28;"/><path class="point" transform="translate(506.29,104.76)" d="M14.42,0A14.42,14.42 0 1,1 0,-14.42A14.42,14.42 0 0,1 14.42,0Z" style="opacity: 0.96; stroke-width: 1px; fill: rgb(234, 97, 72); fill-opacity: 1; stroke: rgb(255, 255, 255); stroke-opacity: 0.28;"/><path class="point" transform="translate(684.03,57.45)" d="M30.81,0A30.81,30.81 0 1,1 0,-30.81A30.81,30.81 0 0,1 30.81,0Z" style="opacity: 0.96; stroke-width: 1px; fill: rgb(234, 97, 72); fill-opacity: 1; stroke: rgb(255, 255, 255); stroke-opacity: 0.28;"/><path class="point" transform="translate(631.01,54)" d="M21.4,0A21.4,21.4 0 1,1 0,-21.4A21.4,21.4 0 0,1 21.4,0Z" style="opacity: 0.96; stroke-width: 1px; fill: rgb(234, 97, 72); fill-opacity: 1; stroke: rgb(255, 255, 255); stroke-opacity: 0.28;"/></g><g class="text"/></g></g></g><g class="overplot"/><path class="xlines-above crisp" d="M0,0" style="fill: none;"/><path class="ylines-above crisp" d="M0,0" style="fill: none;"/><g class="overlines-above"/><g class="xaxislayer-above"/><g class="yaxislayer-above"/><g class="overaxes-above"/></g></g><g class="polarlayer"/><g class="ternarylayer"/><g class="geolayer"/><g class="funnelarealayer"/><g class="pielayer"/><g class="sunburstlayer"/><g class="glimages"/><defs id="topdefs-3d136f"><g class="clips"/></defs><g class="layer-above"><g class="imagelayer"/><g class="shapelayer"/></g><g class="infolayer"><g class="g-gtitle"/><g class="g-xtitle"/><g class="g-ytitle"/></g></svg>