<svg class="main-svg" xmlns="http://www.w3.org/2000/svg" xmlns:xlink="http://www.w3.org/1999/xlink" width="979" height="406" viewBox="0 0 979 406"><rect x="0" y="0" width="979" height="406" style="fill: rgb(255, 255, 255); fill-opacity: 1;"/><defs id="defs-c2a9af"><g class="clips"><clipPath id="clipc2a9afxyplot" class="plotclip"><rect width="819" height="226"/></clipPath><clipPath class="axesclip" id="clipc2a9afx"><rect x="80" y="0" width="819" height="406"/></clipPath><clipPath class="axesclip" id="clipc2a9afy"><rect x="0" y="100" width="979" height="226"/></clipPath><clipPath class="axesclip" id="clipc2a9afxy"><rect x="80" y="100" width="819" height="226"/></clipPath></g><g class="gradients"/></defs><g class="bglayer"/><g class="layer-below"><g class="imagelayer"/><g class="shapelayer"/></g><g class="cartesianlayer"><g class="subplot xy"><g class="layer-subplot"><g class="shapelayer"/><g class="imagelayer"/></g><g class="gridlayer"><g class="x"><path class="xgrid crisp" transform="translate(156.48000000000002,0)" d="M0,100v226" style="stroke: rgb(255, 255, 255); stroke-opacity: 1; stroke-width: 1px;"/><path class="xgrid crisp" transform="translate(258.71000000000004,0)" d="M0,100v226" style="stroke: rgb(255, 255, 255); stroke-opacity: 1; stroke-width: 1px;"/><path class="xgrid crisp" transform="translate(336.04,0)" d="M0,100v226" style="stroke: rgb(255, 255, 255); stroke-opacity: 1; stroke-width: 1px;"/><path class="xgrid crisp" transform="translate(413.37,0)" d="M0,100v226" style="stroke: rgb(255, 255, 255); stroke-opacity: 1; stroke-width: 1px;"/><path class="xgrid crisp" transform="translate(515.5899999999999,0)" d="M0,100v226" style="stroke: rgb(255, 255, 255); stroke-opacity: 1; stroke-width: 1px;"/><path class="xgrid crisp" transform="translate(592.92,0)" d="M0,100v226" style="stroke: rgb(255, 255, 255); stroke-opacity: 1; stroke-width: 1px;"/><path class="xgrid crisp" transform="translate(670.25,0)" d="M0,100v226" style="stroke: rgb(255, 255, 255); stroke-opacity: 1; stroke-width: 1px;"/><path class="xgrid crisp" transform="translate(772.48,0)" d="M0,100v226" style="stroke: rgb(255, 255, 255); stroke-opacity: 1; stroke-width: 1px;"/><path class="xgrid crisp" transform="translate(849.81,0)" d="M0,100v226" style="stroke: rgb(255, 255, 255); stroke-opacity: 1; stroke-width: 1px;"/></g><g class="y"><path class="ygrid crisp" transform="translate(0,310.26)" d="M80,0h819" style="stroke: rgb(255, 255, 255); stroke-opacity: 1; stroke-width: 1px;"/><path class="ygrid crisp" transform="translate(0,269.61)" d="M80,0h819" style="stroke: rgb(255, 255, 255); stroke-opacity: 1; stroke-width: 1px;"/><path class="ygrid crisp" transform="translate(0,228.97)" d="M80,0h819" style="stroke: rgb(255, 255, 255); stroke-opacity: 1; stroke-width: 1px;"/><path class="ygrid crisp" transform="translate(0,188.32)" d="M80,0h819" style="stroke: rgb(255, 255, 255); stroke-opacity: 1; stroke-width: 1px;"/><path class="ygrid crisp" transform="translate(0,147.68)" d="M80,0h819" style="stroke: rgb(255, 255, 255); stroke-opacity: 1; stroke-width: 1px;"/><path class="ygrid crisp" transform="translate(0,107.03)" d="M80,0h819" style="stroke: rgb(255, 255, 255); stroke-opacity: 1; stroke-width: 1px;"/></g></g><g class="zerolinelayer"/><path class="xlines-below"/><path class="ylines-below"/><g class="overlines-below"/><g class="xaxislayer-below"/><g class="yaxislayer-below"/><g class="overaxes-below"/><g class="plot" transform="translate(80, 100)" clip-path="url(#clipc2a9afxyplot)"><g class="scatterlayer mlayer"><g class="trace scatter trace044cb75d-e05d-49c2-b0a3-2900bc3c8039" style="stroke-miterlimit: 2; opacity: 1;"><g class="fills"/><g class="errorbars"/><g class="lines"/><g class="points"><path class="point" transform="translate(460.01,78.97)" d="M19.94,0A19.94,19.94 0 1,1 0,-19.94A19.94,19.94 0 0,1 19.94,0Z" style="opacity: 0.98; stroke-width: 1px; fill: rgb(78, 191, 229); fill-opacity: 1; stroke: rgb(255, 255, 255); stroke-opacity: 0.28;"/><path class="point" transform="translate(430.97,199.16)" d="M15.58,0A15.58,15.58 0 1,1 0,-15.58A15.58,15.58 0 0,1 15.58,0Z" style="opacity: 0.98; stroke-width: 1px; fill: rgb(78, 191, 229); fill-opacity: 1; stroke: rgb(255, 255, 255); stroke-opacity: 0.28;"/><path class="point" transform="translate(296.82,142.26)" d="M13.99,0A13.99,13.99 0 1,1 0,-13.99A13.99,13.99 0 0,1 13.99,0Z" style="opacity: 0.98; stroke-width: 1px; fill: rgb(78, 191, 229); fill-opacity: 1; stroke: rgb(255, 255, 255); stroke-opacity: 0.28;"/><path class="point" transform="translate(538.44,166.65)" d="M9.39,0A9.39,9.39 0 1,1 0,-9.39A9.39,9.39 0 0,1 9.39,0Z" style="opacity: 0.98; stroke-width: 1px; fill: rgb(78, 191, 229); fill-opacity: 1; stroke: rgb(255, 255, 255); stroke-opacity: 0.28;"/><path class="point" transform="translate(277.95,160.28)" d="M16.14,0A16.14,16.14 0 1,1 0,-16.14A16.14,16.14 0 0,1 16.14,0Z" style="opacity: 0.98; stroke-width: 1px; fill: rgb(78, 191, 229); fill-opacity: 1; stroke: rgb(255, 255, 255); stroke-opacity: 0.28;"/><path class="point" transform="translate(161.9,171.32)" d="M14.12,0A14.12,14.12 0 1,1 0,-14.12A14.12,14.12 0 0,1 14.12,0Z" style="opacity: 0.98; stroke-width: 1px; fill: rgb(78, 191, 229); fill-opacity: 1; stroke: rgb(255, 255, 255); stroke-opacity: 0.28;"/><path class="point" transform="translate(335.69,167.86)" d="M17.02,0A17.02,17.02 0 1,1 0,-17.02A17.02,17.02 0 0,1 17.02,0Z" style="opacity: 0.98; stroke-width: 1px; fill: rgb(78, 191, 229); fill-opacity: 1; stroke: rgb(255, 255, 255); stroke-opacity: 0.28;"/><path class="point" transform="translate(217.2,190.99)" d="M12,0A12,12 0 1,1 0,-12A12,12 0 0,1 12,0Z" style="opacity: 0.98; stroke-width: 1px; fill: rgb(78, 191, 229); fill-opacity: 1; stroke: rgb(255, 255, 255); stroke-opacity: 0.28;"/><path class="point" transform="translate(315.5,166.96)" d="M14.84,0A14.84,14.84 0 1,1 0,-14.84A14.84,14.84 0 0,1 14.84,0Z" style="opacity: 0.98; stroke-width: 1px; fill: rgb(78, 191, 229); fill-opacity: 1; stroke: rgb(255, 255, 255); stroke-opacity: 0.28;"/><path class="point" transform="translate(254.48,108.03)" d="M7.62,0A7.62,7.62 0 1,1 0,-7.62A7.62,7.62 0 0,1 7.62,0Z" style="opacity: 0.98; stroke-width: 1px; fill: rgb(78, 191, 229); fill-opacity: 1; stroke: rgb(255, 255, 255); stroke-opacity: 0.28;"/><path class="point" transform="translate(113.04,183.99)" d="M23.52,0A23.52,23.52 0 1,1 0,-23.52A23.52,23.52 0 0,1 23.52,0Z" style="opacity: 0.98; stroke-width: 1px; fill: rgb(78, 191, 229); fill-opacity: 1; stroke: rgb(255, 255, 255); stroke-opacity: 0.28;"/><path class="point" transform="translate(399.95,147.98)" d="M11.59,0A11.59,11.59 0 1,1 0,-11.59A11.59,11.59 0 0,1 11.59,0Z" style="opacity: 0.98; stroke-width: 1px; fill: rgb(78, 191, 229); fill-opacity: 1; stroke: rgb(255, 255, 255); stroke-opacity: 0.28;"/><path class="point" transform="translate(304.55,176.41)" d="M17.09,0A17.09,17.09 0 1,1 0,-17.09A17.09,17.09 0 0,1 17.09,0Z" style="opacity: 0.98; stroke-width: 1px; fill: rgb(78, 191, 229); fill-opacity: 1; stroke: rgb(255, 255, 255); stroke-opacity: 0.28;"/><path class="point" transform="translate(337.88,150.14)" d="M6.96,0A6.96,6.96 0 1,1 0,-6.96A6.96,6.96 0 0,1 6.96,0Z" style="opacity: 0.98; stroke-width: 1px; fill: rgb(78, 191, 229); fill-opacity: 1; stroke: rgb(255, 255, 255); stroke-opacity: 0.28;"/><path class="point" transform="translate(447.86,82.88)" d="M24.84,0A24.84,24.84 0 1,1 0,-24.84A24.84,24.84 0 0,1 24.84,0Z" style="opacity: 0.98; stroke-width: 1px; fill: rgb(78, 191, 229); fill-opacity: 1; stroke: rgb(255, 255, 255); stroke-opacity: 0.28;"/></g><g class="text"/></g><g class="trace scatter traceb2020ac9-bd8f-4614-8961-01917c5bd2be" style="stroke-miterlimit: 2; opacity: 1;"><g class="fills"/><g class="errorbars"/><g class="lines"/><g class="points"><path class="point" transform="translate(540.28,66.7)" d="M20.91,0A20.91,20.91 0 1,1 0,-20.91A20.91,20.91 0 0,1 20.91,0Z" style="opacity: 0.96; stroke-width: 1px; fill: rgb(234, 97, 72); fill-opacity: 1; stroke: rgb(255, 255, 255); stroke-opacity: 0.28;"/><path class="point" transform="translate(405.62,106.39)" d="M14.42,0A14.42,14.42 0 1,1 0,-14.42A14.42,14.42 0 0,1 14.42,0Z" style="opacity: 0.96; stroke-width: 1px; fill: rgb(234, 97, 72); fill-opacity: 1; stroke: rgb(255, 255, 255); stroke-opacity: 0.28;"/><path class="point" transform="translate(501.98,78.61)" d="M30.81,0A30.81,30.81 0 1,1 0,-30.81A30.81,30.81 0 0,1 30.81,0Z" style="opacity: 0.96; stroke-width: 1px; fill: rgb(234, 97, 72); fill-opacity: 1; stroke: rgb(255, 255, 255); stroke-opacity: 0.28;"/><path class="point" transform="translate(656.81,45.02)" d="M19.95,0A19.95,19.95 0 1,1 0,-19.95A19.95,19.95 0 0,1 19.95,0Z" style="opacity: 0.96; stroke-width: 1px; fill: rgb(234, 97, 72); fill-opacity: 1; stroke: rgb(255, 255, 255); stroke-opacity: 0.28;"/><path class="point" transform="translate(543.65,53.56)" d="M16.67,0A16.67,16.67 0 1,1 0,-16.67A16.67,16.67 0 0,1 16.67,0Z" style="opacity: 0.96; stroke-width: 1px; fill: rgb(234, 97, 72); fill-opacity: 1; stroke: rgb(255, 255, 255); stroke-opacity: 0.28;"/><path class="point" transform="translate(473.23,76.58)" d="M21.4,0A21.4,21.4 0 1,1 0,-21.4A21.4,21.4 0 0,1 21.4,0Z" style="opacity: 0.96; stroke-width: 1px; fill: rgb(234, 97, 72); fill-opacity: 1; stroke: rgb(255, 255, 255); stroke-opacity: 0.28;"/></g><g class="text"/></g></g></g><g class="overplot"/><path class="xlines-above crisp" d="M0,0" style="fill: none;"/><path class="ylines-above crisp" d="M0,0" style="fill: none;"/><g class="overlines-above"/><g class="xaxislayer-above"/><g class="yaxislayer-above"/><g class="overaxes-above"/></g></g><g class="polarlayer"/><g class="ternarylayer"/><g class="geolayer"/><g class="pielayer"/><g class="glimages"/><defs id="topdefs-c2a9af"><g class="clips"/></defs><g class="layer-above"><g class="imagelayer"/><g class="shapelayer"/></g><g class="infolayer"><g class="g-gtitle"/><g class="g-xtitle"/><g class="g-ytitle"/></g></svg>