<svg class="main-svg" xmlns="http://www.w3.org/2000/svg" xmlns:xlink="http://www.w3.org/1999/xlink" width="918" height="407" viewBox="0 0 918 407"><rect x="0" y="0" width="918" height="407" style="fill: rgb(255, 255, 255); fill-opacity: 1;"/><defs id="defs-1ae918"><g class="clips"><clipPath id="clip1ae918xyplot" class="plotclip"><rect width="758" height="227"/></clipPath><clipPath class="axesclip" id="clip1ae918x"><rect x="80" y="0" width="758" height="407"/></clipPath><clipPath class="axesclip" id="clip1ae918y"><rect x="0" y="100" width="918" height="227"/></clipPath><clipPath class="axesclip" id="clip1ae918xy"><rect x="80" y="100" width="758" height="227"/></clipPath></g><g class="gradients"/></defs><g class="bglayer"/><g class="layer-below"><g class="imagelayer"/><g class="shapelayer"/></g><g class="cartesianlayer"><g class="subplot xy"><g class="layer-subplot"><g class="shapelayer"/><g class="imagelayer"/></g><g class="gridlayer"><g class="x"><path class="xgrid crisp" transform="translate(82.42,0)" d="M0,100v227" style="stroke: rgb(255, 255, 255); stroke-opacity: 1; stroke-width: 1px;"/><path class="xgrid crisp" transform="translate(271.31,0)" d="M0,100v227" style="stroke: rgb(255, 255, 255); stroke-opacity: 1; stroke-width: 1px;"/><path class="xgrid crisp" transform="translate(381.8,0)" d="M0,100v227" style="stroke: rgb(255, 255, 255); stroke-opacity: 1; stroke-width: 1px;"/><path class="xgrid crisp" transform="translate(460.2,0)" d="M0,100v227" style="stroke: rgb(255, 255, 255); stroke-opacity: 1; stroke-width: 1px;"/><path class="xgrid crisp" transform="translate(521.01,0)" d="M0,100v227" style="stroke: rgb(255, 255, 255); stroke-opacity: 1; stroke-width: 1px;"/><path class="xgrid crisp" transform="translate(570.69,0)" d="M0,100v227" style="stroke: rgb(255, 255, 255); stroke-opacity: 1; stroke-width: 1px;"/><path class="xgrid crisp" transform="translate(612.7,0)" d="M0,100v227" style="stroke: rgb(255, 255, 255); stroke-opacity: 1; stroke-width: 1px;"/><path class="xgrid crisp" transform="translate(649.09,0)" d="M0,100v227" style="stroke: rgb(255, 255, 255); stroke-opacity: 1; stroke-width: 1px;"/><path class="xgrid crisp" transform="translate(681.18,0)" d="M0,100v227" style="stroke: rgb(255, 255, 255); stroke-opacity: 1; stroke-width: 1px;"/><path class="xgrid crisp" transform="translate(709.89,0)" d="M0,100v227" style="stroke: rgb(255, 255, 255); stroke-opacity: 1; stroke-width: 1px;"/></g><g class="y"><path class="ygrid crisp" transform="translate(0,286.52)" d="M80,0h758" style="stroke: rgb(255, 255, 255); stroke-opacity: 1; stroke-width: 1px;"/><path class="ygrid crisp" transform="translate(0,226.57)" d="M80,0h758" style="stroke: rgb(255, 255, 255); stroke-opacity: 1; stroke-width: 1px;"/><path class="ygrid crisp" transform="translate(0,166.62)" d="M80,0h758" style="stroke: rgb(255, 255, 255); stroke-opacity: 1; stroke-width: 1px;"/><path class="ygrid crisp" transform="translate(0,106.67)" d="M80,0h758" style="stroke: rgb(255, 255, 255); stroke-opacity: 1; stroke-width: 1px;"/></g></g><g class="zerolinelayer"/><path class="xlines-below"/><path class="ylines-below"/><g class="overlines-below"/><g class="xaxislayer-below"/><g class="yaxislayer-below"/><g class="overaxes-below"/><g class="plot" transform="translate(80, 100)" clip-path="url('#clip1ae918xyplot')"><g class="scatterlayer mlayer"><g class="trace scatter trace044cb75d-e05d-49c2-b0a3-2900bc3c8039" style="stroke-miterlimit: 2; opacity: 1;"><g class="fills"/><g class="errorbars"/><g class="lines"/><g class="points"><path class="point" transform="translate(500.65,52.82)" d="M19.94,0A19.94,19.94 0 1,1 0,-19.94A19.94,19.94 0 0,1 19.94,0Z" style="opacity: 0.98; stroke-width: 1px; fill: rgb(78, 191, 229); fill-opacity: 1; stroke: rgb(255, 255, 255); stroke-opacity: 0.28;"/><path class="point" transform="translate(102.03,146.18)" d="M13.99,0A13.99,13.99 0 1,1 0,-13.99A13.99,13.99 0 0,1 13.99,0Z" style="opacity: 0.98; stroke-width: 1px; fill: rgb(78, 191, 229); fill-opacity: 1; stroke: rgb(255, 255, 255); stroke-opacity: 0.28;"/><path class="point" transform="translate(55.95,172.76)" d="M16.14,0A16.14,16.14 0 1,1 0,-16.14A16.14,16.14 0 0,1 16.14,0Z" style="opacity: 0.98; stroke-width: 1px; fill: rgb(78, 191, 229); fill-opacity: 1; stroke: rgb(255, 255, 255); stroke-opacity: 0.28;"/><path class="point" transform="translate(196.99,183.94)" d="M17.02,0A17.02,17.02 0 1,1 0,-17.02A17.02,17.02 0 0,1 17.02,0Z" style="opacity: 0.98; stroke-width: 1px; fill: rgb(78, 191, 229); fill-opacity: 1; stroke: rgb(255, 255, 255); stroke-opacity: 0.28;"/><path class="point" transform="translate(147.67,182.61)" d="M14.84,0A14.84,14.84 0 1,1 0,-14.84A14.84,14.84 0 0,1 14.84,0Z" style="opacity: 0.98; stroke-width: 1px; fill: rgb(78, 191, 229); fill-opacity: 1; stroke: rgb(255, 255, 255); stroke-opacity: 0.28;"/><path class="point" transform="translate(353.94,154.61)" d="M11.59,0A11.59,11.59 0 1,1 0,-11.59A11.59,11.59 0 0,1 11.59,0Z" style="opacity: 0.98; stroke-width: 1px; fill: rgb(78, 191, 229); fill-opacity: 1; stroke: rgb(255, 255, 255); stroke-opacity: 0.28;"/><path class="point" transform="translate(120.93,196.54)" d="M17.09,0A17.09,17.09 0 1,1 0,-17.09A17.09,17.09 0 0,1 17.09,0Z" style="opacity: 0.98; stroke-width: 1px; fill: rgb(78, 191, 229); fill-opacity: 1; stroke: rgb(255, 255, 255); stroke-opacity: 0.28;"/><path class="point" transform="translate(202.32,157.79)" d="M6.96,0A6.96,6.96 0 1,1 0,-6.96A6.96,6.96 0 0,1 6.96,0Z" style="opacity: 0.98; stroke-width: 1px; fill: rgb(78, 191, 229); fill-opacity: 1; stroke: rgb(255, 255, 255); stroke-opacity: 0.28;"/><path class="point" transform="translate(470.97,58.6)" d="M24.84,0A24.84,24.84 0 1,1 0,-24.84A24.84,24.84 0 0,1 24.84,0Z" style="opacity: 0.98; stroke-width: 1px; fill: rgb(78, 191, 229); fill-opacity: 1; stroke: rgb(255, 255, 255); stroke-opacity: 0.28;"/></g><g class="text"/></g><g class="trace scatter traceb2020ac9-bd8f-4614-8961-01917c5bd2be" style="stroke-miterlimit: 2; opacity: 1;"><g class="fills"/><g class="errorbars"/><g class="lines"/><g class="points"><path class="point" transform="translate(696.73,34.72)" d="M20.91,0A20.91,20.91 0 1,1 0,-20.91A20.91,20.91 0 0,1 20.91,0Z" style="opacity: 0.96; stroke-width: 1px; fill: rgb(234, 97, 72); fill-opacity: 1; stroke: rgb(255, 255, 255); stroke-opacity: 0.28;"/><path class="point" transform="translate(367.8,93.27)" d="M14.42,0A14.42,14.42 0 1,1 0,-14.42A14.42,14.42 0 0,1 14.42,0Z" style="opacity: 0.96; stroke-width: 1px; fill: rgb(234, 97, 72); fill-opacity: 1; stroke: rgb(255, 255, 255); stroke-opacity: 0.28;"/><path class="point" transform="translate(603.17,52.29)" d="M30.81,0A30.81,30.81 0 1,1 0,-30.81A30.81,30.81 0 0,1 30.81,0Z" style="opacity: 0.96; stroke-width: 1px; fill: rgb(234, 97, 72); fill-opacity: 1; stroke: rgb(255, 255, 255); stroke-opacity: 0.28;"/><path class="point" transform="translate(532.95,49.3)" d="M21.4,0A21.4,21.4 0 1,1 0,-21.4A21.4,21.4 0 0,1 21.4,0Z" style="opacity: 0.96; stroke-width: 1px; fill: rgb(234, 97, 72); fill-opacity: 1; stroke: rgb(255, 255, 255); stroke-opacity: 0.28;"/></g><g class="text"/></g></g></g><g class="overplot"/><path class="xlines-above crisp" d="M0,0" style="fill: none;"/><path class="ylines-above crisp" d="M0,0" style="fill: none;"/><g class="overlines-above"/><g class="xaxislayer-above"/><g class="yaxislayer-above"/><g class="overaxes-above"/></g></g><g class="polarlayer"/><g class="ternarylayer"/><g class="geolayer"/><g class="funnelarealayer"/><g class="pielayer"/><g class="sunburstlayer"/><g class="glimages"/><defs id="topdefs-1ae918"><g class="clips"/></defs><g class="layer-above"><g class="imagelayer"/><g class="shapelayer"/></g><g class="infolayer"><g class="g-gtitle"/><g class="g-xtitle"/><g class="g-ytitle"/></g></svg>