<?xml version="1.0" encoding="UTF-8"?>
<svg width="466px" height="92px" viewBox="0 0 466 92" version="1.1" xmlns="http://www.w3.org/2000/svg" xmlns:xlink="http://www.w3.org/1999/xlink">
    <!-- Generator: Sketch 53.2 (72643) - https://sketchapp.com -->
    <title>Group 2</title>
    <desc>Created with Sketch.</desc>
    <g id="Page-1" stroke="none" stroke-width="1" fill="none" fill-rule="evenodd">
        <g id="Group-2" transform="translate(0.000000, -1.000000)" fill="#332E56">
            <text id="Jigsaw-Labs" style="mix-blend-mode: lighten;" font-family="Actor-Regular, Actor" font-size="70" font-weight="normal" letter-spacing="-0.4529411">
                <tspan x="128" y="66">Jigsaw Labs</tspan>
            </text>
            <g id="Group" transform="translate(0.000000, 1.000000)" fill-rule="nonzero">
                <path d="M19.0305767,74.4737885 C19.0305767,68.3056379 23.9141458,63.3086055 29.9360174,63.3086055 C35.9578889,63.3086055 40.8450491,68.3056379 40.8450491,74.4737885 C40.8244948,77.817097 39.4054836,80.9630634 36.9992382,83 L66.2288358,83 L66.2288358,48.329377 C66.9097877,47.62828 67.8869119,47.3998613 68.7675736,47.7359051 C69.4984725,47.9902153 70.1128798,48.5439681 70.4840045,49.2828881 C71.8593037,51.8664689 74.0210009,53.5321464 76.4591949,53.5321464 C80.6174103,53.5321464 84,48.6775468 84,42.6874383 C84,36.6973294 80.6317738,31.8387736 76.4591949,31.8387736 C74.4985856,31.8387736 72.7139282,32.9188923 71.3745375,34.6834817 C70.8681743,35.3613145 70.4377613,36.1038877 70.0926008,36.8951532 L70.0243742,36.9426311 C69.0329571,38.0829923 67.4568837,38.3146417 66.2288358,37.5004945 L66.2288358,2.3669634 L36.2487485,2.3669634 C35.7372223,1.62868145 35.5956394,0.657032043 35.8717083,-0.220573702 C36.1026631,-1.02481038 36.605329,-1.70047545 37.2757346,-2.10781404 C39.620566,-3.6231454 41.1323176,-6.00890209 41.1323176,-8.69139464 C41.1323176,-13.272997 36.7263332,-17 31.2897715,-17 C25.85321,-17 21.4436344,-13.2848665 21.4436344,-8.69139464 C21.4436344,-6.53115728 22.4239391,-4.56478732 24.0254624,-3.08902077 C24.6406566,-2.53109966 25.3146082,-2.0568626 26.032753,-1.67655787 L26.0758433,-1.60138477 C27.042551,-0.570726383 27.2858149,1.03426047 26.6755169,2.35509396 L18,2.35509396 L18,83 L22.8763874,83 C20.4701419,80.9630634 19.0511307,77.817097 19.0305767,74.4737885 L19.0305767,74.4737885 Z" id="Path" transform="translate(51.000000, 33.000000) scale(-1, 1) rotate(-90.000000) translate(-51.000000, -33.000000) "></path>
                <path d="M21.7222434,51.5225135 C27.2366272,51.5225135 31.7085082,56.9516393 31.7085082,63.6453004 C31.7085082,70.3389616 27.2366272,75.7680873 21.7222434,75.7680873 C18.6838703,75.7490659 15.8276075,74.1186865 14,71.3601638 L14,105 L45.9420069,105 C43.59695,102.944041 42.2134176,99.7773433 42.1896986,96.4115301 C42.1896986,90.18459 46.9529187,85.1384153 52.8323541,85.1384153 C55.4520048,85.1182621 57.9925872,86.1575022 60,88.0703825 L60,41.5937159 C60.00001,36.3030323 56.2311652,32.0109993 51.5757344,32 L39.6413583,32 L39.6413583,33.6674317 C39.6413588,38.0324247 36.5287249,41.5715682 32.6878291,41.5737705 L14.0175506,41.5737705 L14.0175506,55.9344262 C15.8414074,53.1809224 18.6897037,51.5499119 21.7222434,51.5225135 Z" id="Path" style="mix-blend-mode: lighten;" transform="translate(37.000000, 68.500000) scale(-1, 1) rotate(-90.000000) translate(-37.000000, -68.500000) "></path>
            </g>
        </g>
    </g>
</svg>