<?xml version="1.0" encoding="UTF-8"?>
<svg width="608px" height="223px" viewBox="0 0 608 223" version="1.1" xmlns="http://www.w3.org/2000/svg" xmlns:xlink="http://www.w3.org/1999/xlink">
    <!-- Generator: Sketch 53.2 (72643) - https://sketchapp.com -->
    <title>Group</title>
    <desc>Created with Sketch.</desc>
    <g id="Page-1" stroke="none" stroke-width="1" fill="none" fill-rule="evenodd">
        <g id="Group" transform="translate(0.000000, -0.000000)" fill="#332E56">
            <text id="Jigsaw-Labs" style="mix-blend-mode: lighten;" font-family="Actor-Regular, Actor" font-size="70" font-weight="normal" letter-spacing="-0.4529411">
                <tspan x="270" y="131">Jigsaw Labs</tspan>
            </text>
            <path d="M40.482753,176.963403 C40.482753,162.468249 52.2477149,150.725223 66.754951,150.725223 C81.262187,150.725223 93.0358,162.468249 93.0358,176.963403 C92.986283,184.820178 89.567756,192.213199 83.770892,197 L154.18765,197 L154.18765,115.524036 C155.828125,113.876458 158.182106,113.339674 160.3037,114.129377 C162.064502,114.727006 163.544665,116.028325 164.438738,117.764787 C167.751959,123.836202 172.959684,127.750544 178.833515,127.750544 C188.851034,127.750544 197,116.342235 197,102.26548 C197,88.188724 188.885637,76.771118 178.833515,76.771118 C174.110229,76.771118 169.810827,79.309397 166.584113,83.456182 C165.364238,85.049089 164.327334,86.794136 163.495811,88.65361 L163.331447,88.765183 C160.943033,91.445032 157.146129,91.989408 154.18765,90.076162 L154.18765,7.512364 L81.962894,7.512364 C80.730581,5.7774014 80.389495,3.4940253 81.05457,1.4316518 C81.610961,-0.4583044 82.821929,-2.0461173 84.436997,-3.003363 C90.085909,-6.5643917 93.727856,-12.1709199 93.727856,-18.4747774 C93.727856,-29.241543 83.113439,-38 70.0162677,-38 C56.9190968,-38 46.2960283,-29.2694362 46.2960283,-18.4747774 C46.2960283,-13.3982196 48.6576714,-8.7772502 52.5158868,-5.3091988 C53.9979455,-3.9980842 55.6215561,-2.8836271 57.3516322,-1.989911 L57.4554407,-1.8132542 C59.7843275,0.608793 60.3703722,4.3805121 58.9001088,7.4844708 L38,7.4844708 L38,197 L49.7476605,197 C43.9507965,192.213199 40.5322693,184.820178 40.482753,176.963403 L40.482753,176.963403 Z" id="Path" fill-rule="nonzero" transform="translate(117.500000, 79.500000) scale(-1, 1) rotate(-90.000000) translate(-117.500000, -79.500000) "></path>
            <path d="M51.3056085,126.195956 C65.0915681,126.195956 76.2712705,138.764754 76.2712705,154.261038 C76.2712705,169.757322 65.0915681,182.32612 51.3056085,182.32612 C43.7096757,182.282084 36.5690186,178.507644 32,172.121475 L32,250 L111.855017,250 C105.992375,245.240314 102.533544,237.909192 102.474247,230.117104 C102.474247,215.701311 114.382297,204.019071 129.080885,204.019071 C135.630012,203.972415 141.981468,206.378327 147,210.806776 L147,103.210109 C147.000025,90.9618144 137.577913,81.0254642 125.939336,81 L96.1033957,81 L96.1033957,84.8602186 C96.1033969,94.9654763 88.3218123,103.158836 78.7195727,103.163934 L32.0438764,103.163934 L32.0438764,136.409836 C36.6035185,130.035286 43.7242593,126.259385 51.3056085,126.195956 Z" id="Path" fill-rule="nonzero" style="mix-blend-mode: lighten;" transform="translate(89.500000, 165.500000) scale(-1, 1) rotate(-90.000000) translate(-89.500000, -165.500000) "></path>
        </g>
    </g>
</svg>