<?xml version="1.0" encoding="UTF-8"?>
<svg width="545px" height="177px" viewBox="0 0 545 177" version="1.1" xmlns="http://www.w3.org/2000/svg" xmlns:xlink="http://www.w3.org/1999/xlink">
    <!-- Generator: Sketch 53.2 (72643) - https://sketchapp.com -->
    <title>Group 2</title>
    <desc>Created with Sketch.</desc>
    <g id="Page-1" stroke="none" stroke-width="1" fill="none" fill-rule="evenodd">
        <g id="Group-2" transform="translate(0.000000, -0.500000)" fill="#332E56">
            <text id="Jigsaw-Labs" style="mix-blend-mode: lighten;" font-family="Actor-Regular, Actor" font-size="70" font-weight="normal" letter-spacing="-0.4529411">
                <tspan x="207" y="107.5">Jigsaw Labs</tspan>
            </text>
            <g id="Group" fill-rule="nonzero">
                <path d="M18.9518498,128.943324 C18.9518498,119.135964 28.2010337,111.190683 39.6060936,111.190683 C51.0111533,111.190683 60.2671384,119.135964 60.2671384,128.943324 C60.2282099,134.259184 57.5406887,139.261271 52.9834057,142.5 L108.342492,142.5 L108.342492,87.3737095 C109.632174,86.2589652 111.482788,85.8957794 113.150708,86.4300891 C114.534986,86.8344424 115.698636,87.7149093 116.401524,88.8897921 C119.006257,92.9976856 123.100381,95.6461127 127.718172,95.6461127 C135.59358,95.6461127 142,87.9272994 142,78.4030269 C142,68.8787537 135.620784,61.1536501 127.718172,61.1536501 C124.004897,61.1536501 120.624864,62.8710388 118.088139,65.6767359 C117.129118,66.75449 116.313942,67.9351814 115.660229,69.1932936 L115.531012,69.2687834 C113.653328,71.0819578 110.66834,71.4502803 108.342492,70.1557862 L108.342492,14.2934718 L51.5620236,14.2934718 C50.5932241,13.1196035 50.3250747,11.5746809 50.8479324,10.1792878 C51.2853467,8.90055149 52.2373656,7.82624404 53.5070731,7.17857567 C57.9480417,4.76919881 60.8112075,0.975845685 60.8112075,-3.28931747 C60.8112075,-10.5740653 52.4665401,-16.5 42.1700218,-16.5 C31.8735038,-16.5 23.5220348,-10.5929377 23.5220348,-3.28931747 C23.5220348,0.14545993 25.3786725,3.27198816 28.4118607,5.61845698 C29.5770012,6.50555154 30.8534246,7.25958847 32.2135473,7.86427298 L32.2951578,7.98379822 C34.1260436,9.62254505 34.5867706,12.1744741 33.4309031,14.2745994 L17,14.2745994 L17,142.5 L26.2355822,142.5 C21.6782991,139.261271 18.9907778,134.259184 18.9518498,128.943324 L18.9518498,128.943324 Z" id="Path" transform="translate(79.500000, 63.000000) scale(-1, 1) rotate(-90.000000) translate(-79.500000, -63.000000) "></path>
                <path d="M27.2766119,104.987213 C38.1855017,104.987213 47.0320488,113.465574 47.0320488,123.918688 C47.0320488,134.371803 38.1855017,142.850164 27.2766119,142.850164 C21.2659173,142.820459 15.6154843,140.274387 12,135.966557 L12,188.5 L75.1896223,188.5 C70.550488,185.289324 67.8135001,180.34407 67.7665777,175.087869 C67.7665777,165.363606 77.1894696,157.483279 88.8205265,157.483279 C94.0028791,157.451807 99.0288138,159.074729 103,162.061967 L103,89.4819672 C103.00002,81.2198038 95.5442616,74.517177 86.3346051,74.5 L62.7252957,74.5 L62.7252957,77.1039344 C62.7252967,83.9204988 56.567695,89.4473804 48.969401,89.4508197 L12.0347196,89.4508197 L12.0347196,111.877049 C15.6427842,107.577057 21.2774574,105.029999 27.2766119,104.987213 Z" id="Path" style="mix-blend-mode: lighten;" transform="translate(57.500000, 131.500000) scale(-1, 1) rotate(-90.000000) translate(-57.500000, -131.500000) "></path>
            </g>
        </g>
    </g>
</svg>