<?xml version="1.0" encoding="UTF-8"?>
<svg width="555px" height="479px" viewBox="0 0 555 479" version="1.1" xmlns="http://www.w3.org/2000/svg" xmlns:xlink="http://www.w3.org/1999/xlink">
    <!-- Generator: Sketch 53.2 (72643) - https://sketchapp.com -->
    <title>Man Thinking</title>
    <desc>Created with Sketch.</desc>
    <defs>
        <rect id="path-1" x="0" y="0" width="493" height="284" rx="4"></rect>
        <filter x="-1.2%" y="-2.1%" width="102.4%" height="104.2%" filterUnits="objectBoundingBox" id="filter-3">
            <feOffset dx="0" dy="0" in="SourceAlpha" result="shadowOffsetOuter1"></feOffset>
            <feGaussianBlur stdDeviation="2" in="shadowOffsetOuter1" result="shadowBlurOuter1"></feGaussianBlur>
            <feColorMatrix values="0 0 0 0 0   0 0 0 0 0   0 0 0 0 0  0 0 0 0.102751359 0" type="matrix" in="shadowBlurOuter1"></feColorMatrix>
        </filter>
        <radialGradient cx="50%" cy="0%" fx="50%" fy="0%" r="14958.9844%" gradientTransform="translate(0.500000,0.000000),scale(0.003616,1.000000),rotate(90.000000),translate(-0.500000,-0.000000)" id="radialGradient-4">
            <stop stop-color="#F5F7F8" offset="0%"></stop>
            <stop stop-color="#E7EBEF" offset="100%"></stop>
        </radialGradient>
        <radialGradient cx="50%" cy="0%" fx="50%" fy="0%" r="1130464.13%" gradientTransform="translate(0.500000,0.000000),scale(1.000000,0.013233),rotate(90.000000),translate(-0.500000,-0.000000)" id="radialGradient-5">
            <stop stop-color="#EAEDF1" offset="0%"></stop>
            <stop stop-color="#E7EBEF" offset="100%"></stop>
        </radialGradient>
        <filter x="-25.0%" y="-20.7%" width="150.0%" height="141.3%" filterUnits="objectBoundingBox" id="filter-6">
            <feOffset dx="0" dy="2" in="SourceAlpha" result="shadowOffsetOuter1"></feOffset>
            <feGaussianBlur stdDeviation="9.5" in="shadowOffsetOuter1" result="shadowBlurOuter1"></feGaussianBlur>
            <feColorMatrix values="0 0 0 0 0.85063244   0 0 0 0 0.788657504   0 0 0 0 0.788657504  0 0 0 0.5 0" type="matrix" in="shadowBlurOuter1" result="shadowMatrixOuter1"></feColorMatrix>
            <feMerge>
                <feMergeNode in="shadowMatrixOuter1"></feMergeNode>
                <feMergeNode in="SourceGraphic"></feMergeNode>
            </feMerge>
        </filter>
    </defs>
    <g id="Man-Thinking" stroke="none" stroke-width="1" fill="none" fill-rule="evenodd">
        <rect fill="#FFFFFF" x="0" y="0" width="555" height="479"></rect>
        <g id="Background-Shape" opacity="0.345889137" transform="translate(-51.000000, 135.000000)" fill="#F2F2F2">
            <path d="M0.206340551,172.384858 C7.10112455,95.3361561 377.035639,-53.3759549 445.712692,19.6030524 C514.389745,92.5820598 448.365277,229.544566 304.44354,264.617178 C160.521804,299.68979 -6.68844344,249.433559 0.206340551,172.384858 Z" transform="translate(236.500000, 138.000000) scale(-1, 1) translate(-236.500000, -138.000000) "></path>
        </g>
        <g id="graph_16" transform="translate(47.000000, 28.000000)">
            <mask id="mask-2" fill="white">
                <use xlink:href="#path-1"></use>
            </mask>
            <g id="bg">
                <use fill="black" fill-opacity="1" filter="url(#filter-3)" xlink:href="#path-1"></use>
                <use fill="#FFFFFF" fill-rule="evenodd" xlink:href="#path-1"></use>
            </g>
            <g id="graph" mask="url(#mask-2)">
                <g transform="translate(15.000000, 73.000000)">
                    <g id="lines" transform="translate(22.248804, 4.343511)" stroke-linecap="square">
                        <g id="lines_horizontal" transform="translate(1.483254, 0.000000)" stroke="url(#radialGradient-4)" stroke-width="0.6">
                            <path d="M0.69382663,1.03206107 L439.736889,1.03206107" id="6"></path>
                            <path d="M0.69382663,31.9938931 L439.736889,31.9938931" id="5"></path>
                            <path d="M0.69382663,62.9557252 L439.736889,62.9557252" id="4"></path>
                            <path d="M0.69382663,93.9175573 L439.736889,93.9175573" id="3"></path>
                            <path d="M0.69382663,124.879389 L439.736889,124.879389" id="2"></path>
                            <path d="M0.69382663,155.841221 L439.736889,155.841221" id="1"></path>
                        </g>
                        <g id="lines_vertical" transform="translate(0.000000, 0.793893)" stroke="url(#radialGradient-5)" stroke-width="0.6">
                            <path d="M1.43545342,155.047328 L2.00071253,0.2393505" id="1"></path>
                            <path d="M64.4737309,155.047328 L65.03899,0.2393505" id="2"></path>
                            <path d="M126.770382,155.047328 L127.335641,0.2393505" id="3"></path>
                            <path d="M189.067032,155.047328 L189.632291,0.2393505" id="4"></path>
                            <path d="M251.363683,155.047328 L251.928942,0.2393505" id="5"></path>
                            <path d="M313.660334,155.047328 L314.225593,0.2393505" id="6"></path>
                            <path d="M375.956985,155.047328 L376.522244,0.2393505" id="7"></path>
                            <path d="M441.220142,155.047328 L441.785402,0.2393505" id="8"></path>
                        </g>
                    </g>
                    <g id="points_2" transform="translate(45.239234, 7.519084)">
                        <ellipse id="Oval-4" fill="#76DDFB" cx="3.33732057" cy="115.51145" rx="3.33732057" ry="3.57251908"></ellipse>
                        <ellipse id="Oval-4" fill="#76DDFB" cx="3.33732057" cy="85.3435115" rx="3.33732057" ry="3.57251908"></ellipse>
                        <ellipse id="Oval-4" fill="#76DDFB" cx="47.8349282" cy="53.5877863" rx="3.33732057" ry="3.57251908"></ellipse>
                        <ellipse id="Oval-4" fill="#76DDFB" cx="58.9593301" cy="125.832061" rx="3.33732057" ry="3.57251908"></ellipse>
                        <ellipse id="Oval-4" fill="#76DDFB" cx="88.6244019" cy="78.1984733" rx="3.33732057" ry="3.57251908"></ellipse>
                        <ellipse id="Oval-4" fill="#76DDFB" cx="103.456938" cy="34.5343511" rx="3.33732057" ry="3.57251908"></ellipse>
                        <ellipse id="Oval-4" fill="#76DDFB" cx="164.270335" cy="79.7862595" rx="3.33732057" ry="3.57251908"></ellipse>
                        <ellipse id="Oval-4" fill="#76DDFB" cx="236.208134" cy="67.0839695" rx="3.33732057" ry="3.57251908"></ellipse>
                        <ellipse id="Oval-4" fill="#76DDFB" cx="265.873206" cy="11.5114504" rx="3.33732057" ry="3.57251908"></ellipse>
                        <ellipse id="Oval-4" fill="#76DDFB" cx="301.471292" cy="11.5114504" rx="3.33732057" ry="3.57251908"></ellipse>
                        <ellipse id="Oval-4" fill="#76DDFB" cx="199.126794" cy="35.3282443" rx="3.33732057" ry="3.57251908"></ellipse>
                        <ellipse id="Oval-4" fill="#76DDFB" cx="297.763158" cy="75.0229008" rx="3.33732057" ry="3.57251908"></ellipse>
                        <ellipse id="Oval-4" fill="#76DDFB" cx="406.782297" cy="3.57251908" rx="3.33732057" ry="3.57251908"></ellipse>
                        <ellipse id="Oval-4" fill="#76DDFB" cx="406.782297" cy="82.9618321" rx="3.33732057" ry="3.57251908"></ellipse>
                        <ellipse id="Oval-4" fill="#2C82BE" cx="125.705742" cy="23.4198473" rx="3.33732057" ry="3.57251908"></ellipse>
                    </g>
                    <g id="points_1" transform="translate(40.047847, 11.488550)">
                        <ellipse id="Oval-4" fill="#2C82BE" cx="3.33732057" cy="137.740458" rx="3.33732057" ry="3.57251908"></ellipse>
                        <ellipse id="Oval-4" fill="#2C82BE" cx="31.5191388" cy="125.832061" rx="3.33732057" ry="3.57251908"></ellipse>
                        <ellipse id="Oval-4" fill="#2C82BE" cx="32.2607656" cy="87.7251908" rx="3.33732057" ry="3.57251908"></ellipse>
                        <ellipse id="Oval-4" fill="#2C82BE" cx="84.1746411" cy="48.8244275" rx="3.33732057" ry="3.57251908"></ellipse>
                        <ellipse id="Oval-4" fill="#2C82BE" cx="69.3421053" cy="97.2519084" rx="3.33732057" ry="3.57251908"></ellipse>
                        <ellipse id="Oval-4" fill="#2C82BE" cx="114.58134" cy="45.648855" rx="3.33732057" ry="3.57251908"></ellipse>
                        <ellipse id="Oval-4" fill="#2C82BE" cx="149.808612" cy="71.4503817" rx="7.41626794" ry="7.9389313"></ellipse>
                        <ellipse id="Oval-4" fill="#2E8CCD" cx="181.327751" cy="43.2671756" rx="3.33732057" ry="3.57251908"></ellipse>
                        <ellipse id="Oval-4" fill="#2C82BE" cx="180.586124" cy="16.2748092" rx="3.33732057" ry="3.57251908"></ellipse>
                        <ellipse id="Oval-4" fill="#2C82BE" cx="239.174641" cy="25.0076336" rx="3.33732057" ry="3.57251908"></ellipse>
                        <ellipse id="Oval-4" fill="#2C82BE" cx="239.174641" cy="3.57251908" rx="3.33732057" ry="3.57251908"></ellipse>
                        <ellipse id="Oval-4" fill="#2C82BE" cx="281.447368" cy="35.3282443" rx="3.33732057" ry="3.57251908"></ellipse>
                        <ellipse id="Oval-4" fill="#2C82BE" cx="303.696172" cy="50.4122137" rx="3.33732057" ry="3.57251908"></ellipse>
                        <ellipse id="Oval-4" fill="#2C82BE" cx="340.777512" cy="66.2900763" rx="3.33732057" ry="3.57251908"></ellipse>
                        <ellipse id="Oval-4" fill="#2C82BE" cx="363.026316" cy="42.4732824" rx="3.33732057" ry="3.57251908"></ellipse>
                        <ellipse id="Oval-4" fill="#2C82BE" cx="370.442584" cy="65.4961832" rx="3.33732057" ry="3.57251908"></ellipse>
                        <ellipse id="Oval-4" fill="#2C82BE" cx="414.940191" cy="49.6183206" rx="3.33732057" ry="3.57251908"></ellipse>
                    </g>
                    <g id="number_and_dates" transform="translate(0.000000, 0.374046)" font-family="Helvetica" font-size="10" font-weight="normal" letter-spacing="0.12">
                        <text id="Mon" fill="#485465">
                            <tspan x="45.7154471" y="179.099237">Mon</tspan>
                        </text>
                        <text id="0" fill="#485465">
                            <tspan x="15.6764591" y="164.80916">0</tspan>
                        </text>
                        <text id="100" fill="#485465">
                            <tspan x="4.31341227" y="133.847328">100</tspan>
                        </text>
                        <text id="200" fill="#485465">
                            <tspan x="4.31341227" y="102.885496">200</tspan>
                        </text>
                        <text id="300" fill="#485465">
                            <tspan x="4.31341227" y="71.9236641">300</tspan>
                        </text>
                        <text id="400" fill="#485465">
                            <tspan x="4.31341227" y="40.9618321">400</tspan>
                        </text>
                        <text id="500" fill="#485465">
                            <tspan x="4.31341227" y="10">500</tspan>
                        </text>
                        <text id="Tue" fill="#485465">
                            <tspan x="109.306043" y="179.099237">Tue</tspan>
                        </text>
                        <text id="Wed" fill="#485465">
                            <tspan x="169.84244" y="179.099237">Wed</tspan>
                        </text>
                        <text id="Thu" fill="#485465">
                            <tspan x="233.716239" y="179.099237">Thu</tspan>
                        </text>
                        <text id="Fry" fill="#485465">
                            <tspan x="297.409374" y="179.099237">Fry</tspan>
                        </text>
                        <text id="Sat" fill="#485465">
                            <tspan x="359.42038" y="179.099237">Sat</tspan>
                        </text>
                        <text id="Sun" fill="#485465">
                            <tspan x="421.808683" y="179.099237">Sun</tspan>
                        </text>
                    </g>
                    <g id="select_info" transform="translate(160.933014, 36.893130)">
                        <path d="M0,1.00374132 C0,0.449390294 0.441339509,0 1.00182999,0 L62.7780743,0 C63.3313697,0 63.7799043,0.449869529 63.7799043,1.00374132 L63.7799043,29.1641976 C63.7799043,29.7185486 63.3359042,30.1679389 62.7738827,30.1679389 L36.5193711,30.1679389 C35.9637607,30.1679389 35.1805171,30.4609971 34.766067,30.8259196 L32.6540676,32.6855308 C32.2413549,33.0489235 31.5825549,33.0390242 31.1730551,32.6544595 L29.2590386,30.8569909 C28.8538106,30.476438 28.077244,30.1679389 27.5268035,30.1679389 L0.998504978,30.1679389 C0.447045906,30.1679389 0,29.7180694 0,29.1641976 L0,1.00374132 Z" id="Rectangle-128" fill="#485465" opacity="0.9"></path>
                        <text id="Wednesday" opacity="0.4" font-family="Helvetica" font-size="9" font-weight="normal" letter-spacing="0.171" fill="#FFFFFF">
                            <tspan x="18.5406699" y="14.5572519">Wednesd</tspan>
                            <tspan x="18.5406699" y="25.5572519">ay</tspan>
                        </text>
                        <ellipse id="Oval-3" fill="#2C82BE" cx="11.8660287" cy="10.3206107" rx="2.96650718" ry="3.17557252"></ellipse>
                        <text id="230" font-family="Helvetica" font-size="11" font-weight="normal" letter-spacing="0.209" fill="#FFFFFF">
                            <tspan x="18.5406699" y="25.0839695">230</tspan>
                        </text>
                    </g>
                </g>
            </g>
            <g id="ic_more" mask="url(#mask-2)">
                <g transform="translate(460.000000, 15.000000)">
                    <g id="group" stroke-width="1" fill-rule="evenodd" transform="translate(0.720000, 7.600000)">
                        <ellipse id="oval" stroke="#A2A6AD" stroke-width="1.5" cx="14.4437307" cy="2.09" rx="1.23" ry="1.34"></ellipse>
                        <ellipse id="oval" stroke="#A2A6AD" stroke-width="1.5" cx="8.2944" cy="2.09" rx="1.23" ry="1.34"></ellipse>
                        <ellipse id="oval" stroke="#A2A6AD" stroke-width="1.5" cx="2.20373072" cy="2.09" rx="1.23" ry="1.34"></ellipse>
                    </g>
                    <rect id="bounds" x="0" y="0" width="18" height="19"></rect>
                </g>
            </g>
            <text id="Future-Projections" mask="url(#mask-2)" font-family="Helvetica" font-size="13" font-weight="normal" letter-spacing="-0.08411765" fill="#485465">
                <tspan x="14" y="31">Future Projections</tspan>
            </text>
        </g>
        <g transform="translate(312.000000, 194.000000)" id="Man">
            <g filter="url(#filter-6)">
                <path d="M46.7178,158.1309 C43.5298,158.6899 38.5918,153.9019 37.1648,151.1479 C36.5558,149.9769 35.9658,148.8219 35.3888,147.6279 C32.9178,142.5249 30.6178,136.6809 27.3578,125.4989 C25.0058,117.4489 19.5438,110.5599 18.6258,109.4389 C18.4848,109.5119 0.4448,112.3959 0.3928,112.5279 C-0.5632,115.0129 15.5098,137.3189 16.4358,138.6449 C17.0728,139.5609 21.5378,146.1029 24.5158,151.1339 C26.1658,153.9179 27.3598,156.2369 27.1968,156.8869 C26.7558,158.7059 24.6528,166.5989 24.5628,167.0269 C24.4688,167.4589 23.7168,169.3739 23.6268,170.3069 C23.5478,171.2429 24.0428,172.4529 24.5408,173.4979 C25.0388,174.5379 24.6668,176.0839 24.9668,176.9819 C25.2728,177.8739 25.4048,181.1399 25.6078,181.9609 C25.8138,182.7789 25.8388,184.7909 25.8388,184.7909 L26.2538,186.9369 L27.0308,187.5349 C27.1548,187.5539 28.3708,187.5189 28.4738,187.4869 L28.4788,187.4839 C28.8978,186.4889 29.4378,185.6049 29.4728,184.5529 C29.4928,183.9329 29.5328,183.3129 29.5688,182.6929 L29.8648,178.2989 C29.8648,178.2989 30.3548,181.7609 30.7458,182.0629 C31.1878,182.3969 32.0608,182.6479 32.6498,182.7659 C32.8988,182.8139 33.1488,182.8039 33.3668,182.7329 C33.6778,182.6339 33.9308,182.4139 34.0528,182.0749 C34.1788,181.7209 34.3268,181.3699 34.4788,181.0239 C34.7208,180.4709 34.5998,180.0819 34.4558,179.5589 C34.3788,179.2719 34.2918,178.9879 34.2048,178.7019 L33.3988,176.0899 L31.7048,172.4749 C31.7048,172.4749 32.0648,170.0869 32.3518,169.8079 C32.6418,169.5289 33.8568,165.6329 33.8568,165.6329 C33.8568,165.6329 35.8538,162.4999 36.7078,160.9949 C37.1178,160.2629 37.6268,159.8549 38.1178,159.6949 C38.6438,159.5269 39.1528,159.6469 39.5018,159.9689 C40.4928,160.8709 43.1038,161.8349 46.4298,161.5899 C47.0478,161.5439 47.5628,161.4459 47.9878,161.3079 C50.8988,160.3689 49.5068,157.6439 46.7178,158.1309" id="Fill-42" fill="#FFD8C0"></path>
                <path d="M151.709,113.4385 C152.558,113.2015 155.478,112.7405 156.224,112.4945 C156.969,112.2505 158.146,112.1725 158.785,112.0785 C158.943,112.0555 159.089,112.0325 159.23,112.0045 C159.269,111.9975 159.302,111.9915 159.338,111.9835 C159.435,111.9635 159.531,111.9435 159.615,111.9225 C159.66,111.9125 159.697,111.9005 159.735,111.8895 C159.811,111.8705 159.886,111.8515 159.953,111.8285 C159.992,111.8175 160.024,111.8065 160.063,111.7925 C160.122,111.7725 160.185,111.7515 160.24,111.7305 C160.273,111.7175 160.305,111.7045 160.337,111.6905 C160.387,111.6695 160.438,111.6505 160.482,111.6295 C160.516,111.6155 160.538,111.6005 160.569,111.5855 C160.606,111.5665 160.647,111.5445 160.687,111.5255 C160.709,111.5095 160.731,111.4955 160.754,111.4815 C160.786,111.4605 160.82,111.4405 160.85,111.4195 C160.87,111.4075 160.889,111.3925 160.908,111.3755 C160.935,111.3565 160.96,111.3355 160.982,111.3175 C161.001,111.3025 161.012,111.2925 161.025,111.2755 C161.049,111.2555 161.067,111.2385 161.084,111.2205 C161.096,111.2055 161.109,111.1925 161.121,111.1795 C161.135,111.1615 161.149,111.1455 161.16,111.1295 C161.171,111.1155 161.18,111.1035 161.187,111.0895 C161.199,111.0745 161.207,111.0585 161.216,111.0455 C161.221,111.0325 161.228,111.0205 161.234,111.0075 C161.239,110.9985 161.246,110.9845 161.252,110.9735 C161.257,110.9625 161.259,110.9525 161.264,110.9385 C161.269,110.9305 161.269,110.9175 161.273,110.9105 C161.275,110.9015 161.275,110.8905 161.281,110.8835 C161.281,110.8765 161.281,110.8705 161.285,110.8625 C161.287,110.8535 161.292,110.7175 161.299,110.6865 C161.299,110.6735 161.311,110.6645 161.311,110.6515 C161.315,110.6255 161.322,110.5975 161.328,110.5695 C161.328,110.5495 161.333,110.5315 161.333,110.5115 C161.334,110.4835 161.336,110.4535 161.336,110.4205 C161.336,110.4165 161.302,110.0005 161.287,109.9555 C161.285,109.9455 161.273,109.9375 161.269,109.9295 C161.254,109.8775 161.225,109.8225 161.199,109.7695 C161.189,109.7545 161.18,109.7415 161.171,109.7295 C161.147,109.6835 161.117,109.6405 161.084,109.5945 C161.076,109.5845 161.067,109.5735 161.058,109.5615 C161.018,109.5115 160.971,109.4605 160.914,109.4135 C160.903,109.4045 160.889,109.3925 160.877,109.3805 C160.828,109.3425 160.775,109.3035 160.72,109.2685 C160.702,109.2565 160.687,109.2475 160.671,109.2365 C160.598,109.1945 160.518,109.1545 160.43,109.1165 C160.416,109.1125 160.397,109.1065 160.38,109.0995 C160.303,109.0685 160.219,109.0435 160.129,109.0195 C160.101,109.0115 160.074,109.0045 160.046,108.9985 C159.936,108.9705 159.817,108.9475 159.688,108.9295 C159.674,108.9295 159.655,108.9275 159.643,108.9265 C159.523,108.9125 159.395,108.9035 159.258,108.8975 C159.216,108.8955 159.176,108.8955 159.134,108.8925 C159.094,108.8925 159.059,108.8895 159.02,108.8895 C158.896,108.8895 158.767,108.8955 158.631,108.9025 C158.076,108.9295 157.514,108.9465 156.955,108.9595 L152.982,109.0455 C152.982,109.0455 153.047,109.0155 153.154,108.9665 L153.16,108.9605 C153.211,108.9395 153.273,108.9115 153.338,108.8765 C153.35,108.8725 153.361,108.8705 153.371,108.8635 C153.438,108.8295 153.514,108.7925 153.594,108.7535 C153.609,108.7475 153.623,108.7425 153.637,108.7345 C153.721,108.6905 153.809,108.6485 153.903,108.6015 C153.92,108.5905 153.936,108.5855 153.952,108.5755 C154.047,108.5275 154.147,108.4775 154.25,108.4245 C154.266,108.4145 154.283,108.4085 154.298,108.3995 C154.402,108.3455 154.508,108.2905 154.615,108.2305 C154.635,108.2205 154.656,108.2095 154.675,108.1995 C154.782,108.1415 154.893,108.0825 154.999,108.0225 C155.022,108.0125 155.039,108.0015 155.057,107.9915 C155.167,107.9265 155.279,107.8645 155.389,107.7995 C155.403,107.7915 155.422,107.7785 155.438,107.7725 C155.549,107.7045 155.659,107.6375 155.766,107.5745 C155.775,107.5645 155.792,107.5575 155.807,107.5485 C155.914,107.4795 156.018,107.4135 156.117,107.3445 C156.129,107.3375 156.137,107.3325 156.146,107.3245 C156.246,107.2535 156.346,107.1865 156.435,107.1175 L156.441,107.6595 C156.539,107.5865 156.625,108.0005 156.699,108.0005 L156.705,108.0005 C156.78,108.0005 156.844,107.3155 156.898,107.2525 C156.898,107.2525 156.907,106.9705 156.91,106.9665 C156.963,106.9045 157.002,106.7095 157.033,106.6535 C157.036,106.6455 157.043,106.5735 157.043,106.5735 C157.07,106.5165 157.54,106.4275 157.54,106.3805 C157.544,106.3765 158,106.3385 158,106.3385 L158,106.3255 C158,106.2945 157.54,106.2635 157.53,106.2365 C157.499,106.1645 157.234,106.0965 157.191,106.0355 C157.178,106.0125 157.046,105.9975 157.028,105.9755 C156.999,105.9385 156.91,105.9005 156.873,105.8675 C156.851,105.8465 156.798,105.8305 156.773,105.8105 C156.738,105.7855 156.688,105.7535 156.65,105.7285 C156.622,105.7125 156.583,105.7005 156.552,105.6845 C156.514,105.6615 156.469,105.6425 156.426,105.6255 C156.389,105.6105 156.353,105.5995 156.319,105.5885 C156.271,105.5725 156.227,105.5595 156.177,105.5445 C156.138,105.5385 156.1,105.5295 156.06,105.5205 C156.01,105.5095 155.957,105.5015 155.904,105.4955 C155.861,105.4895 155.82,105.4845 155.775,105.4785 C155.721,105.4725 155.666,105.2385 155.609,105.2365 C155.564,105.2345 155.518,105.0005 155.471,105.0005 L155.414,105.0005 C155.361,105.0005 155.308,105.2325 155.255,105.2345 C155.229,105.2345 155.202,105.3495 155.174,105.3515 C155.07,105.3555 154.966,105.4225 154.857,105.4335 C154.83,105.4335 154.801,105.4685 154.771,105.4725 C154.689,105.4815 154.605,105.5075 154.521,105.5175 C154.48,105.5235 154.438,105.5375 154.397,105.5415 C154.32,105.5545 154.24,105.5715 154.16,105.5865 C154.119,105.5915 154.081,105.6055 154.04,105.6085 C153.928,105.6305 153.814,105.6575 153.698,105.6825 C153.674,105.6865 153.648,105.6935 153.623,105.7015 C153.524,105.7245 153.426,105.7455 153.324,105.7735 C153.278,105.7855 153.232,105.7945 153.188,105.8065 C153.107,105.8285 153.028,105.8495 152.949,105.8715 C152.9,105.8855 152.854,105.8965 152.806,105.9105 C152.716,105.9365 152.624,105.9615 152.535,105.9905 C152.501,106.0005 152.467,106.0105 152.434,106.0215 C152.313,106.0565 152.192,106.0935 152.074,106.1315 C152.027,106.1465 151.982,106.1645 151.935,106.1785 C151.857,106.2015 151.777,106.2305 151.7,106.2545 C151.65,106.2735 151.6,106.2925 151.549,106.3065 C151.473,106.3345 151.393,106.3625 151.313,106.3895 C151.271,106.4065 151.227,106.4195 151.186,106.4365 C151.07,106.4765 150.961,106.5185 150.849,106.5595 C150.805,106.5765 150.76,106.5925 150.718,106.6085 C150.641,106.6365 150.57,106.6635 150.496,106.6935 C150.449,106.7105 150.402,106.7305 150.355,106.7475 C150.285,106.7745 150.216,106.8015 150.151,106.8295 C150.108,106.8455 150.063,106.8635 150.021,106.8805 C149.924,106.9185 149.829,106.9575 149.739,106.9945 C149.712,107.0045 149.687,107.0165 149.662,107.0275 C149.579,107.0585 149.497,107.0935 149.417,107.1285 C149.378,107.1455 149.34,107.1625 149.299,107.1775 C149.242,107.2045 149.186,107.2265 149.129,107.2515 C149.094,107.2675 149.057,107.2835 149.021,107.2985 C148.961,107.3235 148.905,107.3475 148.849,107.3735 C148.821,107.3855 148.791,107.3985 148.766,107.4115 C148.684,107.4455 148.613,107.4775 148.547,107.5075 C148.519,107.5195 148.498,107.5305 148.473,107.5415 C148.424,107.5615 148.379,107.5845 148.334,107.6025 C148.309,107.6155 148.289,107.6235 148.266,107.6345 C148.223,107.6545 148.184,107.6715 148.148,107.6895 C148.13,107.6975 148.112,107.7045 148.096,107.7125 C148.048,107.7335 148.01,107.7525 147.972,107.7725 C147.951,107.7785 147.937,107.7875 147.918,107.7955 C147.896,107.8075 147.87,107.8185 147.852,107.8275 C147.845,107.8325 147.84,107.8335 147.833,107.8375 C147.814,107.8445 147.797,107.8525 147.783,107.8615 C147.775,107.8645 147.77,107.8655 147.765,107.8695 C147.757,107.8735 147.75,107.8765 147.75,107.8765 C147.75,107.8765 145.602,107.7465 145.35,107.5155 C145.107,107.2805 141.602,106.5155 141.602,106.5155 C141.602,106.5155 138.809,105.0005 137.461,104.3645 C137.309,104.2945 137.177,104.2115 137.053,104.1255 C137.024,104.1045 136.994,104.0845 136.969,104.0665 C136.855,103.9765 136.748,103.8855 136.659,103.7905 C136.647,103.7765 136.637,103.7615 136.627,103.7495 C136.547,103.6615 136.48,103.5685 136.424,103.4775 C136.41,103.4575 136.394,103.4325 136.382,103.4105 C136.325,103.3085 136.277,103.2085 136.249,103.1055 C136.24,103.0855 136.238,103.0675 136.23,103.0455 C136.208,102.9555 136.191,102.8675 136.188,102.7785 C136.185,102.7635 136.183,102.7475 136.183,102.7305 C136.18,102.6325 136.195,102.5415 136.218,102.4535 C136.223,102.4315 136.23,102.4145 136.238,102.3945 C136.262,102.3285 136.293,102.2655 136.333,102.2095 C136.348,102.1905 136.36,102.1685 136.378,102.1495 C136.435,102.0835 136.499,102.0215 136.582,101.9755 C136.627,101.9505 136.679,101.9125 136.738,101.8675 C136.765,101.8475 136.797,101.8205 136.822,101.7935 C136.861,101.7655 136.897,101.7375 136.938,101.6985 C136.974,101.6655 137.015,101.6235 137.056,101.5855 C137.092,101.5475 137.129,101.5135 137.173,101.4695 C137.211,101.4255 137.258,101.3755 137.302,101.3295 C137.344,101.2815 137.388,101.2375 137.431,101.1835 C137.477,101.1305 137.525,101.0735 137.571,101.0155 C137.618,100.9595 137.665,100.9065 137.712,100.8435 C137.76,100.7835 137.808,100.7165 137.855,100.6505 C137.907,100.5845 137.956,100.5225 138.003,100.4505 C138.052,100.3825 138.104,100.3085 138.15,100.2375 C138.201,100.1615 138.251,100.0895 138.302,100.0095 C138.349,99.9355 138.396,99.8555 138.444,99.7745 C138.494,99.6935 138.547,99.6105 138.598,99.5195 C138.646,99.4395 138.689,99.3545 138.734,99.2685 C138.786,99.1745 138.834,99.0845 138.883,98.9875 C138.928,98.8995 138.969,98.8075 139.014,98.7165 C139.059,98.6175 139.108,98.5165 139.151,98.4125 C139.193,98.3195 139.23,98.2225 139.272,98.1255 C139.314,98.0185 139.355,97.9115 139.398,97.7985 C139.436,97.6985 139.469,97.5975 139.502,97.4955 C139.54,97.3825 139.577,97.2685 139.611,97.1515 C139.642,97.0435 139.67,96.9385 139.699,96.8305 C139.73,96.7105 139.76,96.5905 139.785,96.4665 C139.811,96.3585 139.834,96.2445 139.852,96.1315 C139.875,96.0075 139.896,95.8815 139.914,95.7535 C139.932,95.6385 139.946,95.5215 139.957,95.4025 C139.973,95.2745 139.982,95.1455 139.99,95.0125 C140,94.8935 140.004,94.7715 140.004,94.6475 C140.009,94.5775 140.013,94.5115 140.013,94.4435 C140.013,94.3145 140.009,94.1815 140.004,94.0495 C139.997,93.8115 139.973,93.5925 139.938,93.3845 C139.936,93.3725 139.936,93.3575 139.934,93.3415 C139.9,93.1505 139.859,92.9735 139.808,92.8085 C139.801,92.7895 139.798,92.7675 139.789,92.7505 C139.741,92.5935 139.682,92.4505 139.617,92.3195 C139.609,92.3025 139.599,92.2795 139.588,92.2635 C139.525,92.1405 139.452,92.0275 139.377,91.9265 C139.364,91.9115 139.352,91.8955 139.34,91.8775 C139.262,91.7835 139.18,91.6985 139.094,91.6255 C139.08,91.6155 139.067,91.6035 139.053,91.5935 C138.965,91.5215 138.875,91.4625 138.781,91.4155 C138.77,91.4075 138.755,91.4035 138.741,91.3975 C138.646,91.3525 138.547,91.3145 138.447,91.2915 C138.438,91.2895 138.097,91.1685 138.097,91.1685 C137.98,91.1695 137.871,91.2225 137.763,91.2465 L137.76,91.2665 C137.652,91.2915 137.545,91.3385 137.443,91.3865 C137.438,91.3905 137.431,91.3955 137.431,91.3955 C137.327,91.4415 137.23,91.5015 137.141,91.5665 C137.132,91.5735 137.122,91.5795 137.113,91.5845 C137.026,91.6485 136.945,91.7235 136.866,91.8055 C136.857,91.8155 136.846,91.8245 136.839,91.8345 C136.765,91.9175 136.695,92.0055 136.636,92.1035 C136.627,92.1165 136.616,92.1275 136.612,92.1425 C136.55,92.2415 136.498,92.3435 136.454,92.4555 C136.447,92.4705 136.441,92.4875 136.438,92.5015 C136.394,92.6155 136.363,92.7345 136.339,92.8585 C136.335,92.8765 136.184,92.8935 136.18,92.9115 C136.159,93.0385 136,93.1675 136,93.3065 L136,93.3305 C136,93.3445 136.151,93.3585 136.151,93.3715 C136.153,93.4895 136.057,93.6075 136.078,93.7335 C136.092,93.8445 136,93.9635 136,94.0805 L136,94.1645 C136,94.3085 136.167,94.4555 136.146,94.5995 C136.142,94.6255 136.229,94.6475 136.223,94.6725 C136.197,94.8205 136.206,94.9685 136.16,95.1135 C136.153,95.1385 136.171,95.1605 136.164,95.1815 C136.117,95.3305 136.07,95.4785 136.007,95.6295 C135.998,95.6485 135.996,95.6675 135.987,95.6855 C135.918,95.8375 135.848,95.9885 135.762,96.1365 C135.758,96.1515 135.751,96.1635 135.745,96.1755 C135.659,96.3285 135.566,96.4825 135.47,96.6325 C135.466,96.6375 135.461,96.6435 135.459,96.6485 C135.358,96.7975 135.258,96.9475 135.148,97.0935 C135.144,97.0975 135.137,97.1075 135.134,97.1155 C135.027,97.2565 134.916,97.3955 134.805,97.5335 C134.795,97.5455 134.786,97.5585 134.773,97.5685 C134.666,97.7015 134.557,97.8295 134.447,97.9515 C134.432,97.9655 134.418,97.9845 134.406,97.9985 C134.298,98.1175 134.188,98.2345 134.084,98.3435 C134.068,98.3595 134.051,98.3755 134.037,98.3925 C133.931,98.5005 133.828,98.6025 133.729,98.7025 C133.712,98.7195 133.697,98.7335 133.682,98.7505 C133.584,98.8475 133.486,98.9365 133.395,99.0235 C133.379,99.0345 133.365,99.0485 133.351,99.0625 C133.262,99.1465 133.175,99.2235 133.093,99.2945 C133.08,99.3075 133.067,99.3165 133.058,99.3285 C132.979,99.3965 132.904,99.4595 132.837,99.5165 C132.828,99.5235 132.816,99.5345 132.81,99.5405 C132.747,99.5955 132.689,99.6425 132.64,99.6815 C132.635,99.6875 132.629,99.6935 132.625,99.6985 C132.577,99.7335 132.539,99.7655 132.513,99.7845 L132.506,99.7895 C132.482,99.8085 132.468,99.8205 132.468,99.8205 L124.365,103.8995 L104.797,113.7555 L104.128,105.7515 L90.098,105.8505 C90.098,105.8505 75.898,146.7405 108.708,129.3985 C108.882,129.3045 109.047,129.1695 109.229,129.0475 C109.539,128.8395 109.875,128.6155 110.231,128.3755 C110.37,128.2825 110.511,128.1875 110.654,128.0905 C110.891,127.9325 111.135,127.7715 111.384,127.6045 C111.507,127.5185 111.631,127.4355 111.761,127.3485 C111.811,127.3135 111.864,127.2795 111.918,127.2435 C112.031,127.1675 112.146,127.0905 112.264,127.0115 C115.796,124.6425 120.37,121.5665 123.897,119.1825 C123.951,119.1485 124.002,119.1105 124.056,119.0755 C124.158,119.0045 124.264,118.9335 124.365,118.8665 C124.625,118.6905 124.875,118.5205 125.121,118.3545 C125.161,118.3275 125.201,118.3005 125.238,118.2755 C125.304,118.2295 125.369,118.1885 125.433,118.1425 C125.537,118.0715 125.64,118.0015 125.741,117.9335 C125.748,117.9295 125.755,117.9255 125.763,117.9195 C125.902,117.8265 126.039,117.7335 126.168,117.6445 C126.174,117.6395 126.18,117.6375 126.184,117.6325 C127.004,117.0785 127.701,116.6025 128.23,116.2375 C128.247,116.2275 128.261,116.2155 128.278,116.2075 C128.341,116.1625 128.4,116.1195 128.461,116.0805 C128.491,116.0595 128.519,116.0425 128.546,116.0195 C128.588,115.9905 128.633,115.9595 128.672,115.9335 C128.703,115.9115 128.73,115.8955 128.758,115.8765 C128.789,115.8505 128.824,115.8285 128.855,115.8075 C128.882,115.7895 128.905,115.7705 128.93,115.7545 C128.963,115.7325 128.991,115.7095 129.025,115.6895 C129.041,115.6735 129.059,115.6635 129.072,115.6525 C129.104,115.6325 129.129,115.6145 129.154,115.5975 C129.164,115.5865 129.178,115.5775 129.189,115.5685 C129.222,115.5455 129.249,115.5255 129.271,115.5075 C129.348,115.4515 129.432,115.3915 129.522,115.3305 C129.551,115.3095 129.584,115.2895 129.615,115.2675 C129.676,115.2285 129.734,115.1885 129.799,115.1485 C129.838,115.1255 129.88,115.1015 129.92,115.0775 C129.98,115.0405 130.043,115.0035 130.105,114.9655 C130.149,114.9405 130.195,114.9165 130.242,114.8905 C130.302,114.8555 130.367,114.8195 130.434,114.7845 C130.481,114.7585 130.529,114.7345 130.579,114.7105 C130.646,114.6745 130.716,114.6405 130.783,114.6065 C130.835,114.5835 130.885,114.5575 130.935,114.5335 C131.006,114.5005 131.074,114.4675 131.148,114.4335 C131.201,114.4105 131.254,114.3845 131.308,114.3605 C131.379,114.3305 131.451,114.2975 131.525,114.2675 C131.578,114.2445 131.633,114.2235 131.686,114.2025 C131.763,114.1695 131.84,114.1405 131.919,114.1105 C131.969,114.0905 132.02,114.0715 132.071,114.0515 C132.158,114.0205 132.244,113.9895 132.331,113.9615 C132.375,113.9465 132.417,113.9325 132.461,113.9175 C132.587,113.8775 132.713,113.8365 132.84,113.8005 L132.85,113.7985 C132.981,113.7615 133.107,113.7255 133.236,113.6965 C133.274,113.6865 133.313,113.6775 133.351,113.6705 C133.441,113.6495 133.529,113.6305 133.613,113.6155 C133.66,113.6075 133.706,113.5995 133.75,113.5915 C133.828,113.5795 133.904,113.5685 133.98,113.5565 C134.028,113.5505 134.078,113.5455 134.125,113.5415 C134.193,113.5335 134.266,113.5275 134.335,113.5225 C134.382,113.5205 134.43,113.5195 134.478,113.5195 C134.531,113.5155 134.585,113.5155 134.639,113.5165 C134.786,113.5195 134.928,113.5265 135.061,113.5455 C136.698,113.7985 142.314,114.8755 142.698,114.9235 C142.698,114.9235 143.183,115.8355 151.709,113.4385" id="Fill-44" fill="#FFD8C0"></path>
                <path d="M80.6484,32.4795 C80.6484,32.4675 80.7504,33.3155 80.7504,33.3155 C80.7284,33.2275 80.5074,31.1785 80.4744,31.0915 C80.4634,31.0465 80.4654,31.0135 80.4444,30.9695 C80.3884,30.8375 80.3354,30.7165 80.2804,30.5955 C80.2694,30.5735 80.2594,30.5515 80.2484,30.5295 C80.1934,30.4415 80.1384,30.3425 80.0844,30.2445 C80.0604,30.2105 80.0394,30.1785 80.0054,30.1445 C79.9614,30.0675 79.9184,30.0015 79.8634,29.9355 C79.8304,29.8915 79.7964,29.8595 79.7644,29.8265 C79.7204,29.7605 79.6664,29.6935 79.6214,29.6385 L79.3574,29.3755 C79.3134,29.3315 79.2804,29.2975 79.2474,29.2655 C79.1914,29.2205 79.1364,29.1765 79.0824,29.1225 C79.0384,29.0995 79.0044,29.0665 78.9614,29.0345 L78.7964,28.9025 C78.7524,28.8795 78.7184,28.8475 78.6754,28.8255 C78.6204,28.7815 78.5654,28.7365 78.5094,28.7035 C78.4654,28.6815 78.4334,28.6605 78.4004,28.6375 C78.3354,28.5935 78.2794,28.5605 78.2244,28.5285 C78.1904,28.5055 78.1584,28.4845 78.1144,28.4725 C78.0594,28.4285 77.9934,28.3965 77.9384,28.3745 C77.9054,28.3525 77.8834,28.3415 77.8504,28.3185 C77.7854,28.2855 77.7284,28.2635 77.6634,28.2305 C77.6404,28.2195 77.6194,28.2085 77.5854,28.1975 C77.5314,28.1655 77.4654,28.1425 77.4104,28.1105 C77.3884,28.1105 77.3654,28.0985 77.3554,28.0875 C77.2794,28.0545 77.2114,28.0335 77.1574,28.0105 C77.1464,28.0005 77.1344,28.0005 77.1344,28.0005 C77.0694,27.9785 77.0034,27.9455 76.9484,27.9225 C76.7064,27.8455 76.3204,27.8015 76.3204,27.8015 C76.2874,27.3945 76.0004,26.9885 76.0004,26.5815 L76.0004,26.5375 C76.0004,17.6815 73.0864,9.6965 73.0864,9.6965 L47.3304,12.5005 C46.6484,15.1965 45.3064,24.7775 45.2954,25.0295 C45.2624,25.2065 45.3094,25.2835 45.2874,25.4585 C45.2764,25.6355 45.2784,25.8665 45.2664,26.0645 C45.2664,26.0855 45.2734,26.3675 45.2624,26.3885 C45.2624,26.5865 45.2574,27.0005 45.2474,27.0005 L45.2244,27.0005 C45.1034,27.0005 44.9714,26.7955 44.8294,26.7745 C44.5204,26.7295 42.7154,26.5585 42.6834,26.5705 C42.6394,26.5705 42.5854,26.5485 42.5414,26.5595 C42.5074,26.5595 42.4744,26.5535 42.4414,26.5645 C42.3964,26.5765 42.3414,26.5785 42.2974,26.5895 C42.2654,26.5995 42.2324,26.6075 42.1994,26.6185 C42.1554,26.6285 42.1114,26.6495 42.0674,26.6705 C42.0354,26.6815 42.0124,26.6925 41.9784,26.7035 C41.9234,26.7245 41.8794,26.7575 41.8254,26.7915 C41.8034,26.8005 41.7924,26.8005 41.7704,26.8115 C41.7044,26.8555 41.6384,26.8995 41.5724,26.9555 C41.5614,26.9665 41.5504,26.9885 41.5404,26.9995 C41.4964,27.0425 41.4404,27.0765 41.3964,27.1305 C41.3744,27.1535 41.3634,27.1745 41.3404,27.1975 C41.3084,27.2415 41.2754,27.2855 41.2424,27.3285 C41.2204,27.3615 41.2104,27.3945 41.1874,27.4285 C41.1664,27.4725 41.1324,27.5165 41.1104,27.5715 C41.0884,27.6035 41.0784,27.6365 41.0544,27.6805 C41.0334,27.7355 41.0104,27.7915 40.9894,27.8575 C40.9784,27.8905 40.9664,27.9225 40.9564,27.9665 C40.9344,28.0335 40.9224,28.1105 40.9124,28.1755 C40.9014,28.2195 40.8904,28.2525 40.8784,28.2965 C40.8684,28.3965 40.7714,29.7715 40.7824,29.8805 C40.7934,29.9585 40.8524,30.0235 40.8634,30.1005 C40.8744,30.2225 40.9254,30.3425 40.9484,30.4635 C40.9594,30.5415 40.9914,30.6175 41.0024,30.7065 C41.0354,30.8275 41.0674,30.9585 41.1004,31.0915 C41.1234,31.1785 41.1324,31.2555 41.1544,31.3435 C41.1544,31.3545 41.1664,31.3665 41.1764,31.3765 C41.1874,31.4315 41.1984,31.4865 41.2204,31.5415 C41.2644,31.6965 41.3084,31.8605 41.3524,32.0265 C41.3744,32.1145 41.4074,32.2025 41.4284,32.2785 C41.4844,32.4335 41.5294,32.5975 41.5944,32.7735 C41.6164,32.8505 41.6384,32.9285 41.6714,33.0165 C41.7594,33.2575 41.8464,33.5105 41.9474,33.7745 C41.9684,33.8305 41.9914,33.8855 42.0124,33.9405 C42.1004,34.1605 42.1774,34.3795 42.2764,34.6105 C42.3204,34.7105 42.3644,34.8205 42.3964,34.9185 C42.4854,35.1165 42.5734,35.3265 42.6714,35.5455 C42.7154,35.6445 42.7494,35.7445 42.8034,35.8535 C42.9364,36.1625 43.0904,36.4915 43.2444,36.8225 C43.9374,38.3175 44.9604,39.1315 45.5324,39.8245 C45.6864,40.8155 45.9064,41.6715 46.1604,42.3765 C46.7104,43.9165 47.6554,45.1375 48.7444,46.0945 C48.7444,46.0945 48.4474,48.9885 48.3804,51.9585 C48.3714,52.3105 48.3714,52.6625 48.3714,53.0135 C48.3714,54.8505 48.4914,56.5885 48.8664,57.5355 C50.2734,61.0105 55.2554,62.7715 60.0414,62.7715 C64.4414,62.7715 68.9354,61.2855 70.0914,58.3275 C70.5764,57.0725 71.0004,54.4545 71.0004,52.0895 L71.0004,51.5835 C71.0004,49.3285 70.6194,47.4255 70.6194,47.4255 C72.5444,46.0175 73.8004,44.1035 74.7574,41.8715 C75.2964,41.3425 75.8634,40.7165 76.6004,39.9465 C76.8654,39.6815 77.0654,39.4175 77.2974,39.1655 C77.3624,39.0985 77.4094,39.0335 77.4634,38.9665 C77.6834,38.7135 77.8884,38.4605 78.0854,38.2185 L78.0934,38.2085 C78.2934,37.9665 78.4664,37.7235 78.6424,37.4925 C78.6864,37.4375 78.7194,37.3825 78.7644,37.3285 C78.9294,37.0975 79.0924,36.8665 79.2364,36.6465 C79.2364,36.6355 79.2474,36.6355 79.2474,36.6235 C79.3904,36.4155 79.5104,36.1955 79.6324,35.9975 C79.6544,35.9415 79.6874,35.8865 79.7204,35.8425 C79.8304,35.6345 79.9404,35.4245 80.0294,35.2275 C80.0394,35.2275 80.0394,35.2165 80.0394,35.2055 C80.1274,35.0175 80.2044,34.8315 80.2814,34.6435" id="Fill-46" fill="#FFD8C0"></path>
                <path d="M61.0664,134.2432 C60.8194,132.6122 59.3124,131.6262 57.7184,132.0512 L10.7654,144.5882 C9.1714,145.0132 8.0244,146.7022 8.2154,148.3412 L12.5804,185.6142 C12.7714,187.2532 14.2524,188.3282 15.8704,188.0042 L64.6974,178.2122 C66.3154,177.8882 67.4364,176.2872 67.1894,174.6562 L61.0664,134.2432 Z" id="Fill-48" fill="#1F6ABF"></path>
                <path d="M58.2402,134.9492 C57.9922,133.3182 56.4842,132.3312 54.8902,132.7562 L7.9392,145.2582 C6.3442,145.6812 5.1972,147.3702 5.3892,149.0092 L9.7532,186.1642 C9.9452,187.8032 11.4272,188.8792 13.0442,188.5542 L61.8702,178.7892 C63.4872,178.4652 64.6082,176.8652 64.3612,175.2342 L58.2402,134.9492 Z" id="Fill-50" fill="#1F6ABF"></path>
                <path d="M76.2773,28.7471 L76.0003,26.5811 L76.0003,26.5371 C76.0003,19.6411 76.5293,15.2621 75.9783,11.7641 C73.9453,-1.1499 68.6813,5.5171 68.6813,5.5171 C64.0943,0.1811 49.7203,6.1531 49.7203,6.1531 C49.7203,6.1531 49.4243,6.4731 48.9193,5.2961 C48.4133,4.1191 50.0583,3.0081 50.0583,3.0081 C48.1003,2.0611 46.5633,5.2291 46.5633,5.2291 C46.5633,5.2291 46.0473,4.9771 45.7283,3.8771 C45.3983,2.7771 46.6863,1.2151 46.6863,1.2151 C46.6863,1.2151 45.5533,-0.6989 41.5173,4.3391 C33.9493,13.8101 43.1233,20.6171 45.6093,20.9701 C45.6753,20.9911 45.7413,21.0001 45.7973,21.0001 L45.8073,21.0001 C45.8073,21.0001 45.6093,22.7721 45.3893,24.9061 C45.3673,25.0821 45.3563,25.3201 45.3353,25.4961 C45.3123,25.6721 45.3013,25.8681 45.2793,26.0661 C45.2793,26.0881 45.2793,26.1091 45.2683,26.1311 C45.2683,26.2521 45.2573,26.3611 45.2353,26.4821 C45.2353,26.5371 45.2353,26.5921 45.2243,26.6471 C44.9713,29.2541 44.7413,32.1691 44.7853,33.6321 C44.8293,35.2271 44.7963,38.9221 46.1273,39.5941 C58.0603,45.5561 63.1923,44.0601 74.7543,40.8481 C76.5243,40.3531 76.2773,28.7471 76.2773,28.7471" id="Fill-52" fill="#131D2E"></path>
                <path d="M82.9658,196 L16.2288,196 C16.7128,193 16.9998,190.315 17.9998,187.687 L17.9998,187.665 L17.9998,187.598 L17.9998,187.588 C18.9998,177.742 21.7508,169.063 25.0508,159.922 C25.0948,159.791 25.0738,159.67 25.1168,159.537 C25.1268,159.504 25.1278,159.472 25.1508,159.438 C25.5248,158.778 26.1338,158.129 27.0458,157.491 C27.0688,157.48 27.0878,157.459 27.1108,157.447 C29.4968,155.786 33.4998,154.225 38.3188,152.883 C38.3298,152.872 38.3288,152.976 38.3398,152.976 C44.9168,151.149 52.9348,150 60.3378,149 L60.3498,149 L63.2318,149 L63.2418,149 C73.6268,147 82.3328,148.318 82.5528,150.945 C82.6188,151.771 82.9998,152.354 82.9998,153.191 L82.9998,153.202 C83.9998,166.589 83.5808,181 82.9658,196" id="Fill-54" fill="#131D2E"></path>
                <path d="M105.4502,76.0508 C102.9532,68.5688 76.6872,53.9598 76.6872,53.9598 C74.8462,53.1618 72.7212,52.5208 70.4602,52.0368 C60.5122,54.4318 48.3762,52.3088 48.3802,51.9558 C22.6232,56.4778 16.2032,64.1618 16.2032,64.1618 C16.2032,64.1618 8.2232,81.3528 0.3922,112.5288 C0.3342,112.7658 0.6882,112.8898 1.3372,112.9288 C1.4802,112.9358 1.6372,112.9398 1.8082,112.9398 C3.1582,112.9398 5.3212,112.6968 7.6682,112.3558 C9.8662,112.0388 12.2222,111.4488 14.2192,111.0948 C16.8712,110.6178 18.8852,109.9998 19.0402,109.9998 L19.0512,109.9998 L23.5902,99.8488 C23.5902,99.8488 24.9992,134.3578 24.9992,159.2518 C24.9992,163.1268 82.3042,154.0618 82.3062,154.0478 C84.3552,145.3878 84.2242,130.5248 86.6352,121.4138 C88.2772,115.1998 89.8072,109.3278 90.3152,107.1898 C90.3152,107.1898 95.3842,107.0328 95.5052,107.0328 C99.0122,107.0328 102.9352,106.4658 103.9122,106.3138 C104.0622,106.2888 104.1482,106.2778 104.1482,106.2778 C109.3582,78.2248 105.4502,76.0508 105.4502,76.0508" id="Fill-56" fill="#BCD2F4"></path>
            </g>
        </g>
    </g>
</svg>