<?xml version="1.0" encoding="UTF-8"?>
<svg width="235px" height="223px" viewBox="0 0 235 223" version="1.1" xmlns="http://www.w3.org/2000/svg" xmlns:xlink="http://www.w3.org/1999/xlink">
    <!-- Generator: Sketch 53.2 (72643) - https://sketchapp.com -->
    <title>Group 2stacked</title>
    <desc>Created with Sketch.</desc>
    <g id="Page-1" stroke="none" stroke-width="1" fill="none" fill-rule="evenodd">
        <g id="Group-2" transform="translate(117.500000, 111.500000) scale(1, -1) rotate(90.000000) translate(-117.500000, -111.500000) translate(6.000000, -6.000000)" fill="#332E56" fill-rule="nonzero">
            <path d="M66.482753,214.963403 C66.482753,200.468249 78.2477149,188.725223 92.754951,188.725223 C107.262187,188.725223 119.0358,200.468249 119.0358,214.963403 C118.986283,222.820178 115.567756,230.213199 109.770892,235 L180.18765,235 L180.18765,153.524036 C181.828125,151.876458 184.182106,151.339674 186.3037,152.129377 C188.064502,152.727006 189.544665,154.028325 190.438738,155.764787 C193.751959,161.836202 198.959684,165.750544 204.833515,165.750544 C214.851034,165.750544 223,154.342235 223,140.26548 C223,126.188724 214.885637,114.771118 204.833515,114.771118 C200.110229,114.771118 195.810827,117.309397 192.584113,121.456182 C191.364238,123.049089 190.327334,124.794136 189.495811,126.65361 L189.331447,126.765183 C186.943033,129.445032 183.146129,129.989408 180.18765,128.076162 L180.18765,45.512364 L107.962894,45.512364 C106.730581,43.7774014 106.389495,41.4940253 107.05457,39.4316518 C107.610961,37.5416956 108.821929,35.9538827 110.436997,34.996637 C116.085909,31.4356083 119.727856,25.8290801 119.727856,19.5252226 C119.727856,8.75845697 109.113439,-2.55795385e-13 96.0162677,-2.55795385e-13 C82.9190968,-2.55795385e-13 72.2960283,8.7305638 72.2960283,19.5252226 C72.2960283,24.6017804 74.6576714,29.2227498 78.5158868,32.6908012 C79.9979455,34.0019158 81.6215561,35.1163729 83.3516322,36.010089 L83.4554407,36.1867458 C85.7843275,38.608793 86.3703722,42.3805121 84.9001088,45.4844708 L64,45.4844708 L64,235 L75.7476605,235 C69.9507965,230.213199 66.5322693,222.820178 66.482753,214.963403 L66.482753,214.963403 Z" id="Path"></path>
            <path d="M19.3056085,106.195956 C33.0915681,106.195956 44.2712705,118.764754 44.2712705,134.261038 C44.2712705,149.757322 33.0915681,162.32612 19.3056085,162.32612 C11.7096757,162.282084 4.56901864,158.507644 0,152.121475 L0,230 L79.8550172,230 C73.992375,225.240314 70.5335441,217.909192 70.4742465,210.117104 C70.4742465,195.701311 82.3822968,184.019071 97.0808852,184.019071 C103.630012,183.972415 109.981468,186.378327 115,190.806776 L115,83.2101093 C115.000025,70.9618144 105.577913,61.0254642 93.9393361,61 L64.1033957,61 L64.1033957,64.8602186 C64.1033969,74.9654763 56.3218123,83.1588359 46.7195727,83.1639344 L0.0438763831,83.1639344 L0.0438763831,116.409836 C4.60351849,110.035286 11.7242593,106.259385 19.3056085,106.195956 Z" id="Path"></path>
        </g>
    </g>
</svg>