<?xml version="1.0" encoding="UTF-8"?>
<svg width="536px" height="479px" viewBox="0 0 536 479" version="1.1" xmlns="http://www.w3.org/2000/svg" xmlns:xlink="http://www.w3.org/1999/xlink">
    <!-- Generator: Sketch 53.2 (72643) - https://sketchapp.com -->
    <title>Woman Thinking</title>
    <desc>Created with Sketch.</desc>
    <defs>
        <rect id="path-1" x="0" y="0" width="297" height="207" rx="4"></rect>
        <filter x="-2.0%" y="-2.9%" width="104.0%" height="105.8%" filterUnits="objectBoundingBox" id="filter-3">
            <feOffset dx="0" dy="0" in="SourceAlpha" result="shadowOffsetOuter1"></feOffset>
            <feGaussianBlur stdDeviation="2" in="shadowOffsetOuter1" result="shadowBlurOuter1"></feGaussianBlur>
            <feColorMatrix values="0 0 0 0 0   0 0 0 0 0   0 0 0 0 0  0 0 0 0.102751359 0" type="matrix" in="shadowBlurOuter1"></feColorMatrix>
        </filter>
        <radialGradient cx="50%" cy="0%" fx="50%" fy="0%" r="14958.9844%" gradientTransform="translate(0.500000,0.000000),scale(0.001399,1.000000),rotate(90.000000),translate(-0.500000,-0.000000)" id="radialGradient-4">
            <stop stop-color="#F5F7F8" offset="0%"></stop>
            <stop stop-color="#E7EBEF" offset="100%"></stop>
        </radialGradient>
        <filter x="-59.5%" y="-26.5%" width="218.9%" height="153.1%" filterUnits="objectBoundingBox" id="filter-5">
            <feOffset dx="0" dy="2" in="SourceAlpha" result="shadowOffsetOuter1"></feOffset>
            <feGaussianBlur stdDeviation="13.5" in="shadowOffsetOuter1" result="shadowBlurOuter1"></feGaussianBlur>
            <feColorMatrix values="0 0 0 0 0.780957696   0 0 0 0 0.780957696   0 0 0 0 0.780957696  0 0 0 0.5 0" type="matrix" in="shadowBlurOuter1" result="shadowMatrixOuter1"></feColorMatrix>
            <feMerge>
                <feMergeNode in="shadowMatrixOuter1"></feMergeNode>
                <feMergeNode in="SourceGraphic"></feMergeNode>
            </feMerge>
        </filter>
        <filter x="-50.9%" y="-26.5%" width="201.8%" height="153.1%" filterUnits="objectBoundingBox" id="filter-6">
            <feOffset dx="0" dy="2" in="SourceAlpha" result="shadowOffsetOuter1"></feOffset>
            <feGaussianBlur stdDeviation="13.5" in="shadowOffsetOuter1" result="shadowBlurOuter1"></feGaussianBlur>
            <feColorMatrix values="0 0 0 0 0.780957696   0 0 0 0 0.780957696   0 0 0 0 0.780957696  0 0 0 0.5 0" type="matrix" in="shadowBlurOuter1" result="shadowMatrixOuter1"></feColorMatrix>
            <feMerge>
                <feMergeNode in="shadowMatrixOuter1"></feMergeNode>
                <feMergeNode in="SourceGraphic"></feMergeNode>
            </feMerge>
        </filter>
    </defs>
    <g id="Woman-Thinking" stroke="none" stroke-width="1" fill="none" fill-rule="evenodd">
        <rect fill="#FDFDFD" x="0" y="0" width="536" height="479"></rect>
        <g id="Background-Shape" opacity="0.345889137" transform="translate(-71.000000, 112.000000)">
            <path d="M0.206340551,172.384858 C7.10112455,95.3361561 377.035639,-53.3759549 445.712692,19.6030524 C514.389745,92.5820598 448.365277,229.544566 304.44354,264.617178 C160.521804,299.68979 -6.68844344,249.433559 0.206340551,172.384858 Z" fill="#F2F2F2" transform="translate(236.500000, 138.000000) scale(-1, 1) translate(-236.500000, -138.000000) "></path>
            <path d="M244.144372,222.447681 C250.320429,156.991794 581.692198,30.6550381 643.210212,92.65356 C704.728225,154.652082 689.156816,285.058789 560.237782,314.854345 C431.318748,344.649901 237.968315,287.903567 244.144372,222.447681 Z" fill="#DDE3E9"></path>
        </g>
        <g id="graph_2" transform="translate(94.000000, 77.000000)">
            <mask id="mask-2" fill="white">
                <use xlink:href="#path-1"></use>
            </mask>
            <g id="bg">
                <use fill="black" fill-opacity="1" filter="url(#filter-3)" xlink:href="#path-1"></use>
                <use fill="#FFFFFF" fill-rule="evenodd" xlink:href="#path-1"></use>
            </g>
            <g id="graph" mask="url(#mask-2)">
                <g transform="translate(14.000000, 54.000000)">
                    <g id="Lines" transform="translate(22.360202, 4.017842)" stroke-linecap="square">
                        <path d="M0.0926381455,0.172193214 L246.301008,0.172193214" id="6" stroke="url(#radialGradient-4)" stroke-width="0.6"></path>
                        <path d="M0.0926381455,22.5573111 L246.301008,22.5573111" id="5" stroke="url(#radialGradient-4)" stroke-width="0.6"></path>
                        <path d="M0.0926381455,44.9424289 L246.301008,44.9424289" id="4" stroke="url(#radialGradient-4)" stroke-width="0.6"></path>
                        <path d="M0.0926381455,67.3275467 L246.301008,67.3275467" id="3" stroke="url(#radialGradient-4)" stroke-width="0.6"></path>
                        <path d="M0.0926381455,89.7126646 L246.301008,89.7126646" id="2" stroke="url(#radialGradient-4)" stroke-width="0.6"></path>
                        <path d="M0.0926381455,112.097782 L246.301008,112.097782" id="1" stroke="url(#radialGradient-4)" stroke-width="0.6"></path>
                    </g>
                    <g id="number_and_month" font-family="Helvetica" font-size="10" font-weight="normal" letter-spacing="0.12">
                        <text id="Jan" fill="#485465">
                            <tspan x="40.5443708" y="132.257182">Jan</tspan>
                        </text>
                        <text id="0" fill="#485465">
                            <tspan x="13.9683506" y="121.925589">0</tspan>
                        </text>
                        <text id="500" fill="#485465">
                            <tspan x="2.60530374" y="99.5404714">500</tspan>
                        </text>
                        <text id="1000" fill="#485465">
                            <tspan x="2.60530374" y="77.1553535">100</tspan>
                            <tspan x="13.9683506" y="89.1553535">0</tspan>
                        </text>
                        <text id="1500" fill="#485465">
                            <tspan x="2.60530374" y="54.7702357">150</tspan>
                            <tspan x="13.9683506" y="66.7702357">0</tspan>
                        </text>
                        <text id="2000" fill="#485465">
                            <tspan x="2.60530374" y="32.3851178">200</tspan>
                            <tspan x="13.9683506" y="44.3851178">0</tspan>
                        </text>
                        <text id="2500" fill="#485465">
                            <tspan x="2.60530374" y="10">250</tspan>
                            <tspan x="13.9683506" y="22">0</tspan>
                        </text>
                        <text id="Feb" fill="#485465">
                            <tspan x="79.2899197" y="132.257182">Feb</tspan>
                        </text>
                        <text id="Mar" fill="#485465">
                            <tspan x="119.272132" y="132.257182">Mar</tspan>
                        </text>
                        <text id="Apr" fill="#485465">
                            <tspan x="158.724377" y="132.257182">Apr</tspan>
                        </text>
                        <text id="May" fill="#485465">
                            <tspan x="196.359086" y="132.257182">May</tspan>
                        </text>
                        <text id="Jun" fill="#485465">
                            <tspan x="237.720693" y="132.257182">Jun</tspan>
                        </text>
                    </g>
                    <g id="bars" transform="translate(37.267003, 18.941254)">
                        <path d="M-36.4500668,48.9296144 L-36.4500668,60.1260879 L48.6465403,60.1260879 L48.6465403,48.9296144 L-36.4500668,48.9296144 Z" id="Rectangle" stroke="#66C2F5" fill="#53A8E2" transform="translate(6.098237, 54.527851) rotate(-270.000000) translate(-6.098237, -54.527851) "></path>
                        <polygon id="Rectangle" fill="#67DAFB" opacity="0.9" transform="translate(18.294710, 74.617059) rotate(-270.000000) translate(-18.294710, -74.617059) " points="-4.6643849 68.5188227 41.2538056 68.5188227 41.2538056 80.7152963 -4.6643849 80.7152963"></polygon>
                        <path d="M167.51038,56.3913203 L167.51038,67.5877939 L237.683575,67.5877939 L237.683575,56.3913203 L167.51038,56.3913203 Z" id="Rectangle" stroke="#66C2F5" fill="#53A8E2" transform="translate(202.596977, 61.989557) rotate(-270.000000) translate(-202.596977, -61.989557) "></path>
                        <polygon id="Rectangle" fill="#67DAFB" opacity="0.9" transform="translate(214.793451, 73.469105) rotate(-270.000000) translate(-214.793451, -73.469105) " points="190.686401 67.3708679 238.900501 67.3708679 238.900501 79.5673415 190.686401 79.5673415"></polygon>
                        <path d="M25.5217879,71.6017209 L25.5217879,82.7981945 L65.2741819,82.7981945 L65.2741819,71.6017209 L25.5217879,71.6017209 Z" id="Rectangle" stroke="#66C2F5" fill="#53A8E2" transform="translate(45.397985, 77.199958) rotate(-270.000000) translate(-45.397985, -77.199958) "></path>
                        <polygon id="Rectangle" fill="#67DAFB" opacity="0.9" transform="translate(57.594458, 85.809618) rotate(-270.000000) translate(-57.594458, -85.809618) " points="45.8279221 79.7113816 69.3609947 79.7113816 69.3609947 91.9078552 45.8279221 91.9078552"></polygon>
                        <path d="M67.6914229,74.4716078 L67.6914229,85.6680814 L101.704043,85.6680814 L101.704043,74.4716078 L67.6914229,74.4716078 Z" id="Rectangle" stroke="#66C2F5" fill="#53A8E2" transform="translate(84.697733, 80.069845) rotate(-270.000000) translate(-84.697733, -80.069845) "></path>
                        <polygon id="Rectangle" fill="#67DAFB" opacity="0.9" transform="translate(96.894207, 71.460184) rotate(-270.000000) translate(-96.894207, -71.460184) " points="70.7782357 65.3619471 123.010177 65.3619471 123.010177 77.5584207 70.7782357 77.5584207"></polygon>
                        <path d="M94.6506573,62.1310941 L94.6506573,73.3275677 L153.344305,73.3275677 L153.344305,62.1310941 L94.6506573,62.1310941 Z" id="Rectangle" stroke="#66C2F5" fill="#53A8E2" transform="translate(123.997481, 67.729331) rotate(-270.000000) translate(-123.997481, -67.729331) "></path>
                        <polygon id="Rectangle" fill="#67DAFB" opacity="0.9" transform="translate(136.193955, 73.469105) rotate(-270.000000) translate(-136.193955, -73.469105) " points="112.086905 67.3708679 160.301005 67.3708679 160.301005 79.5673415 112.086905 79.5673415"></polygon>
                        <path d="M115.009152,43.1898406 L115.009152,54.3863141 L211.585307,54.3863141 L211.585307,43.1898406 L115.009152,43.1898406 Z" id="Rectangle" stroke="#66C2F5" fill="#53A8E2" transform="translate(163.297229, 48.788077) rotate(-270.000000) translate(-163.297229, -48.788077) "></path>
                        <polygon id="Rectangle" fill="#67DAFB" opacity="0.9" transform="translate(175.493703, 86.096607) rotate(-270.000000) translate(-175.493703, -86.096607) " points="164.014155 79.9983703 186.97325 79.9983703 186.97325 92.1948439 164.014155 92.1948439"></polygon>
                    </g>
                </g>
            </g>
            <text id="Our-Conclusions" mask="url(#mask-2)" font-family="Helvetica" font-size="13" font-weight="normal" letter-spacing="-0.08411765" fill="#485465">
                <tspan x="13" y="27">Our Conclusions</tspan>
            </text>
        </g>
        <g transform="translate(47.000000, 182.000000)" id="Woman">
            <g filter="url(#filter-5)" transform="translate(0.000000, 11.000000)">
                <path d="M76.8223,212.926 L21.0433,212.926 C21.0433,212.926 14.1373,170.384 21.0433,155.332 C26.8593,142.659 71.0273,142.625 76.8223,155.309 C83.3733,169.653 76.8223,212.926 76.8223,212.926" id="Fill-151" fill="#131D2E"></path>
                <path d="M74.0712071,178.801595 C79.9460746,162.784649 89.73525,148.658968 94.2535056,125.507214 C96.0080192,116.521381 80.1759607,82.1334656 74.6314481,67.0172693 C73.3787106,63.6015383 68.4875287,76.540148 69.53422,80.4372077 C73.4439869,95.0086204 87.1139806,122.945803 87.1139806,122.945803 C87.1139806,122.945803 79.1724085,142.14478 70.1007048,167.703177 C68.8684017,171.173077 72.8184696,182.217326 74.0712071,178.801595" id="Fill-153" fill="#FFD8C0"></path>
                <path d="M5.0712071,176.801595 C10.9460746,160.784649 20.73525,146.658968 25.2535056,123.507214 C27.0080192,114.521381 11.1759607,80.1334656 5.63144809,65.0172693 C4.37871063,61.6015383 -0.512471338,74.540148 0.534220035,78.4372077 C4.44398694,93.0086204 18.1139806,120.945803 18.1139806,120.945803 C18.1139806,120.945803 10.1724085,140.14478 1.10070484,165.703177 C-0.131598284,169.173077 3.81846965,180.217326 5.0712071,176.801595" id="Fill-153" fill="#FFD8C0" transform="translate(12.888467, 120.949071) scale(-1, 1) translate(-12.888467, -120.949071) "></path>
                <path d="M77.2715,155.1565 C84.1325,168.3545 13.9625,170.0335 20.1115,156.4895 C33.5155,126.9625 8.6345,106.5045 26.8855,66.3975 C33.0475,52.8585 67.7535,52.0335 71.6185,66.3975 C82.2265,105.8465 65.9305,133.3325 77.2715,155.1565" id="Fill-155" fill="#FC7B65"></path>
                <path d="M58.3857,62.9895 C57.4647,66.5935 43.1407,66.0185 43.4377,62.3125 C43.8727,56.8855 44.8487,48.0365 44.8487,48.0365 L59.6747,49.2255 C59.6747,49.2255 59.4517,58.8125 58.3857,62.9895" id="Fill-162" fill="#FFD8C0"></path>
                <path d="M71.6182,28.9573 C71.6472,57.8473 62.1232,54.9903 50.4102,54.9903 C38.6972,54.9903 29.2012,43.3363 29.2012,28.9573 C29.2012,14.5813 38.6972,2.9263 50.4102,2.9263 C62.1232,2.9263 71.6012,14.5813 71.6182,28.9573" id="Fill-164" fill="#FFD8C0"></path>
                <path d="M10.3752,121.7524 C10.3752,121.7524 0.695,120.969722 0,105.609722 C0,105.609722 5.8902,107.1654 8.0452,107.9864 C10.2052,108.8064 3.37,106.2204 5,95.2974 C5,95.2974 11.4462,106.8894 13.8492,95.2974 C15.5922,86.8904 15.5922,86.8904 19.3182,62.0584 C22.2632,42.4434 20.4052,14.6964 31.7602,4.3814 C41.0122,-4.0216 58.7992,1.8904 65.7652,8.7634 C72.7302,15.6334 67.1932,16.9154 66.0352,16.0454 C61.8002,12.8344 56.9516,23.5273668 52.3666,24.8103668 C49.3479156,25.6552888 49.7387493,68.2542841 46.1602,89.4494 C39.9462,126.2534 24.2442,135.2804 10.3752,121.7524 Z" id="Fill-166" fill="#131D2E"></path>
            </g>
            <g filter="url(#filter-6)" transform="translate(312.500000, 106.500000) scale(-1, 1) translate(-312.500000, -106.500000) translate(257.000000, 0.000000)">
                <path d="M109.4863,53.7932 C108.4833,54.4972 105.9393,55.3212 105.0053,55.8712 C104.4563,56.1992 103.9823,56.4732 103.6833,56.6472 C103.6703,56.6562 103.6563,56.6632 103.6563,56.6632 C103.4753,56.7732 102.6033,57.2422 102.5593,57.2542 C102.6183,57.2732 102.9843,57.5502 103.3323,58.4502 C103.7063,59.4102 104.0313,61.0972 103.8933,63.9382 C103.8393,65.1342 101.3903,66.9242 100.4963,67.7202 C99.5293,68.5612 90.6963,75.1062 91.5493,76.6842 L89.5493,74.5942 C89.5493,74.5942 90.4053,65.9482 91.1393,61.8302 C91.6603,58.9482 95.6653,57.0312 99.2513,55.5892 C100.7973,54.9782 102.2703,54.4402 103.3363,53.9542 C106.8693,52.3462 107.1453,52.4612 110.0283,51.8832 C110.5133,51.7842 111.5843,52.3242 109.4863,53.7932" id="Fill-149" fill="#FFD8C0"></path>
                <path d="M76.8223,212.926 L21.0433,212.926 C21.0433,212.926 14.1373,170.384 21.0433,155.332 C26.8593,142.659 71.0273,142.625 76.8223,155.309 C83.3733,169.653 76.8223,212.926 76.8223,212.926" id="Fill-151" fill="#131D2E"></path>
                <path d="M66.5947,139.0432 C76.9447,128.6942 94.1907,119.5672 102.1507,104.6082 C105.2417,98.8022 77.3497,76.5832 67.5817,66.8162 C65.3747,64.6092 56.7577,72.9692 58.6017,75.4872 C65.4897,84.9022 89.5727,102.9532 89.5727,102.9532 C89.5727,102.9532 75.5817,115.3582 59.5997,131.8722 C57.4287,134.1142 64.3877,141.2502 66.5947,139.0432" id="Fill-153" fill="#FFD8C0"></path>
                <path d="M77.2715,155.1565 C84.1325,168.3545 13.9625,170.0335 20.1115,156.4895 C33.5155,126.9625 8.6345,106.5045 26.8855,66.3975 C33.0475,52.8585 67.7535,52.0335 71.6185,66.3975 C82.2265,105.8465 65.9305,133.3325 77.2715,155.1565" id="Fill-155" fill="#BCD2F4"></path>
                <path d="M98.123,71.1858 C86.812,82.4978 66.728,111.0198 53.987,115.3238 C52.479,115.8318 49.17,114.4598 47.883,113.5248 C41.1,108.5938 31.739,97.4378 28.936,85.8458 C26.354,75.1628 35.74,73.5688 39.237,78.7928 C45.541,88.2098 54.067,102.0778 54.067,102.0778 C54.067,102.0778 61.814,91.6288 89.703,63.8738 C91.916,61.6708 100.331,68.9788 98.123,71.1858" id="Fill-160" fill="#FFD8C0"></path>
                <path d="M58.3857,62.9895 C57.4647,66.5935 43.1407,66.0185 43.4377,62.3125 C43.8727,56.8855 44.8487,48.0365 44.8487,48.0365 L59.6747,49.2255 C59.6747,49.2255 59.4517,58.8125 58.3857,62.9895" id="Fill-162" fill="#FFD8C0"></path>
                <path d="M71.6182,28.9573 C71.6472,57.8473 62.1232,54.9903 50.4102,54.9903 C38.6972,54.9903 29.2012,43.3363 29.2012,28.9573 C29.2012,14.5813 38.6972,2.9263 50.4102,2.9263 C62.1232,2.9263 71.6012,14.5813 71.6182,28.9573" id="Fill-164" fill="#FFD8C0"></path>
                <path d="M10.3752,121.7524 C10.3752,121.7524 0.695,120.969722 0,105.609722 C0,105.609722 5.8902,107.1654 8.0452,107.9864 C10.2052,108.8064 3.37,106.2204 5,95.2974 C5,95.2974 11.4462,106.8894 13.8492,95.2974 C15.5922,86.8904 15.5922,86.8904 19.3182,62.0584 C22.2632,42.4434 20.4052,14.6964 31.7602,4.3814 C41.0122,-4.0216 58.7992,1.8904 65.7652,8.7634 C72.7302,15.6334 67.1932,16.9154 66.0352,16.0454 C61.8002,12.8344 56.9516,23.5273668 52.3666,24.8103668 C49.3479156,25.6552888 49.7387493,68.2542841 46.1602,89.4494 C39.9462,126.2534 24.2442,135.2804 10.3752,121.7524 Z" id="Fill-166" fill="#FAF0BE"></path>
            </g>
        </g>
    </g>
</svg>