<svg class="main-svg" xmlns="http://www.w3.org/2000/svg" xmlns:xlink="http://www.w3.org/1999/xlink" width="979" height="406" viewBox="0 0 979 406"><rect x="0" y="0" width="979" height="406" style="fill: rgb(255, 255, 255); fill-opacity: 1;"/><defs id="defs-c3e48f"><g class="clips"><clipPath id="clipc3e48fxyplot" class="plotclip"><rect width="819" height="226"/></clipPath><clipPath class="axesclip" id="clipc3e48fx"><rect x="80" y="0" width="819" height="406"/></clipPath><clipPath class="axesclip" id="clipc3e48fy"><rect x="0" y="100" width="979" height="226"/></clipPath><clipPath class="axesclip" id="clipc3e48fxy"><rect x="80" y="100" width="819" height="226"/></clipPath></g><g class="gradients"/></defs><g class="bglayer"/><g class="layer-below"><g class="imagelayer"/><g class="shapelayer"/></g><g class="cartesianlayer"><g class="subplot xy"><g class="layer-subplot"><g class="shapelayer"/><g class="imagelayer"/></g><g class="gridlayer"><g class="x"/><g class="y"/></g><g class="zerolinelayer"/><path class="xlines-below"/><path class="ylines-below"/><g class="overlines-below"/><g class="xaxislayer-below"/><g class="yaxislayer-below"/><g class="overaxes-below"/><g class="plot" transform="translate(80, 100)" clip-path="url(#clipc3e48fxyplot)"><g class="scatterlayer mlayer"><g class="trace scatter traceacf0b4cb-f65e-4caa-9638-a1605dabfa0f" style="stroke-miterlimit: 2;"><g class="fills"><g><path class="js-fill" d="M770.55,226L409.5,226L409.5,96.39L770.55,37.49" style="fill: rgb(252, 123, 101); fill-opacity: 0.4; stroke-width: 0;"/></g></g><g class="errorbars"/><g class="lines"/><g class="points"><path class="point" transform="translate(409.5,96.39)" d="M3,0A3,3 0 1,1 0,-3A3,3 0 0,1 3,0Z" style="opacity: 1; stroke-width: 0px; fill: rgb(162, 213, 242); fill-opacity: 1;"/><path class="point" transform="translate(770.55,37.49)" d="M3,0A3,3 0 1,1 0,-3A3,3 0 0,1 3,0Z" style="opacity: 1; stroke-width: 0px; fill: rgb(162, 213, 242); fill-opacity: 1;"/></g><g class="text"/></g><g class="trace scatter trace8983c5dc-85ba-4687-a7d0-9041ec41c183" style="stroke-miterlimit: 2; opacity: 1;"><g class="fills"/><g class="errorbars"/><g class="lines"><path class="js-line" d="M48.45,115.22L138.71,118.91L228.98,100.45L409.5,96.39L499.76,96.76L590.03,81.99L680.29,69.06L770.55,37.49" style="vector-effect: non-scaling-stroke; fill: none; stroke: rgb(162, 213, 242); stroke-opacity: 1; stroke-width: 5px; opacity: 1;"/></g><g class="points"><path class="point" transform="translate(48.45,115.22)" d="M6,0A6,6 0 1,1 0,-6A6,6 0 0,1 6,0Z" style="opacity: 1; stroke-width: 0px; fill: rgb(162, 213, 242); fill-opacity: 1;"/><path class="point" transform="translate(138.71,118.91)" d="M6,0A6,6 0 1,1 0,-6A6,6 0 0,1 6,0Z" style="opacity: 1; stroke-width: 0px; fill: rgb(162, 213, 242); fill-opacity: 1;"/><path class="point" transform="translate(228.98,100.45)" d="M6,0A6,6 0 1,1 0,-6A6,6 0 0,1 6,0Z" style="opacity: 1; stroke-width: 0px; fill: rgb(162, 213, 242); fill-opacity: 1;"/><path class="point" transform="translate(319.24,98.6)" d="M6,0A6,6 0 1,1 0,-6A6,6 0 0,1 6,0Z" style="opacity: 1; stroke-width: 0px; fill: rgb(162, 213, 242); fill-opacity: 1;"/><path class="point" transform="translate(409.5,96.39)" d="M6,0A6,6 0 1,1 0,-6A6,6 0 0,1 6,0Z" style="opacity: 1; stroke-width: 0px; fill: rgb(162, 213, 242); fill-opacity: 1;"/><path class="point" transform="translate(499.76,96.76)" d="M6,0A6,6 0 1,1 0,-6A6,6 0 0,1 6,0Z" style="opacity: 1; stroke-width: 0px; fill: rgb(162, 213, 242); fill-opacity: 1;"/><path class="point" transform="translate(590.03,81.99)" d="M6,0A6,6 0 1,1 0,-6A6,6 0 0,1 6,0Z" style="opacity: 1; stroke-width: 0px; fill: rgb(162, 213, 242); fill-opacity: 1;"/><path class="point" transform="translate(680.29,69.06)" d="M6,0A6,6 0 1,1 0,-6A6,6 0 0,1 6,0Z" style="opacity: 1; stroke-width: 0px; fill: rgb(162, 213, 242); fill-opacity: 1;"/><path class="point" transform="translate(770.55,37.49)" d="M6,0A6,6 0 1,1 0,-6A6,6 0 0,1 6,0Z" style="opacity: 1; stroke-width: 0px; fill: rgb(162, 213, 242); fill-opacity: 1;"/></g><g class="text"/></g></g></g><g class="overplot"/><path class="xlines-above crisp" d="M0,0" style="fill: none;"/><path class="ylines-above crisp" d="M0,0" style="fill: none;"/><g class="overlines-above"/><g class="xaxislayer-above"><g class="xtick"><text text-anchor="middle" x="0" y="344" transform="translate(128.45,0)" style="font-family: 'Open Sans', verdana, arial, sans-serif; font-size: 17px; fill: rgb(112, 108, 135); fill-opacity: 1; white-space: pre;">Dec 16</text></g><g class="xtick"><text text-anchor="middle" x="0" y="344" transform="translate(489.5,0)" style="font-family: 'Open Sans', verdana, arial, sans-serif; font-size: 17px; fill: rgb(112, 108, 135); fill-opacity: 1; white-space: pre;">Dec 17</text></g><g class="xtick"><text text-anchor="middle" x="0" y="344" transform="translate(850.55,0)" style="font-family: 'Open Sans', verdana, arial, sans-serif; font-size: 17px; fill: rgb(112, 108, 135); fill-opacity: 1; white-space: pre;">Dec 18</text></g></g><g class="yaxislayer-above"/><g class="overaxes-above"/></g></g><g class="polarlayer"/><g class="ternarylayer"/><g class="geolayer"/><g class="pielayer"/><g class="glimages"/><defs id="topdefs-c3e48f"><g class="clips"/></defs><g class="layer-above"><g class="imagelayer"/><g class="shapelayer"/></g><g class="infolayer"><g class="g-gtitle"><text class="gtitle" x="489.5" y="50" text-anchor="middle" dy="0em" style="font-family: 'Open Sans', verdana, arial, sans-serif; font-size: 17px; fill: rgb(112, 108, 135); opacity: 1; font-weight: normal; white-space: pre;">Data Science Job Postings (per 1 million)</text></g><g class="g-xtitle"/><g class="g-ytitle"/><g class="annotation" data-index="0" style="opacity: 1;"><g class="annotation-text-g" transform="rotate(0,674.8,245.94)"><g class="cursor-pointer" transform="translate(575, 232)"><rect class="bg" x="0.5" y="0.5" width="198" height="26" style="stroke-width: 1px; stroke: rgb(0, 0, 0); stroke-opacity: 0; fill: rgb(0, 0, 0); fill-opacity: 0;"/><text class="annotation-text" text-anchor="middle" x="99.375" y="20" style="font-family: 'Open Sans', verdana, arial, sans-serif; font-size: 17px; fill: rgb(112, 108, 135); fill-opacity: 1; white-space: pre;"><tspan class="line" dy="0em" x="99.375" y="20">31% increase in postings</tspan><tspan class="line" dy="1.3em" x="99.375" y="20"></tspan></text></g></g></g><g class="annotation" data-index="1" style="opacity: 1;"><g class="annotation-text-g" transform="rotate(0,274.94,265.95)"><g class="cursor-pointer" transform="translate(173, 241)"><rect class="bg" x="0.5" y="0.5" width="202" height="48" style="stroke-width: 1px; stroke: rgb(0, 0, 0); stroke-opacity: 0; fill: rgb(0, 0, 0); fill-opacity: 0;"/><text class="annotation-text" text-anchor="middle" x="101.59375" y="20" style="font-family: 'Open Sans', verdana, arial, sans-serif; font-size: 17px; fill: rgb(112, 108, 135); fill-opacity: 1; white-space: pre;"><tspan class="line" dy="0em" x="101.59375" y="20">17% increase in postings </tspan><tspan class="line" dy="1.3em" x="101.59375" y="20"> </tspan></text></g></g></g><g class="annotation" data-index="2" style="opacity: 1;"><g class="annotation-text-g" transform="rotate(0,129.5,193.17000000000002)"><g class="cursor-pointer" transform="translate(113, 180)"><rect class="bg" x="0.5" y="0.5" width="32" height="26" style="stroke-width: 1px; stroke: rgb(0, 0, 0); stroke-opacity: 0; fill: rgb(0, 0, 0); fill-opacity: 0;"/><text class="annotation-text" text-anchor="middle" x="16.578125" y="20" style="font-family: 'Open Sans', verdana, arial, sans-serif; font-size: 17px; fill: rgb(112, 108, 135); fill-opacity: 1; white-space: pre;"><tspan class="line" dy="0em" x="16.578125" y="20">600</tspan><tspan class="line" dy="1.3em" x="16.578125" y="20"></tspan></text></g></g></g><g class="annotation" data-index="3" style="opacity: 1;"><g class="annotation-text-g" transform="rotate(0,489.5,159.51)"><g class="cursor-pointer" transform="translate(473, 146)"><rect class="bg" x="0.5" y="0.5" width="32" height="26" style="stroke-width: 1px; stroke: rgb(0, 0, 0); stroke-opacity: 0; fill: rgb(0, 0, 0); fill-opacity: 0;"/><text class="annotation-text" text-anchor="middle" x="16.578125" y="20" style="font-family: 'Open Sans', verdana, arial, sans-serif; font-size: 17px; fill: rgb(112, 108, 135); fill-opacity: 1; white-space: pre;">702</text></g></g></g><g class="annotation" data-index="4" style="opacity: 1;"><g class="annotation-text-g" transform="rotate(0,845.5,113.5)"><g class="cursor-pointer" transform="translate(824, 100)"><rect class="bg" x="0.5" y="0.5" width="42" height="26" style="stroke-width: 1px; stroke: rgb(0, 0, 0); stroke-opacity: 0; fill: rgb(0, 0, 0); fill-opacity: 0;"/><text class="annotation-text" text-anchor="middle" x="21.4375" y="20" style="font-family: 'Open Sans', verdana, arial, sans-serif; font-size: 17px; fill: rgb(112, 108, 135); fill-opacity: 1; white-space: pre;">1021</text></g></g></g></g></svg>