<?xml version="1.0" encoding="UTF-8"?>
<svg width="457px" height="235px" viewBox="0 0 457 235" version="1.1" xmlns="http://www.w3.org/2000/svg" xmlns:xlink="http://www.w3.org/1999/xlink">
    <!-- Generator: Sketch 53.2 (72643) - https://sketchapp.com -->
    <title>Group</title>
    <desc>Created with Sketch.</desc>
    <g id="Page-1" stroke="none" stroke-width="1" fill="none" fill-rule="evenodd">
        <g id="Group" transform="translate(0.000000, -11.000000)" fill="#332E56">
            <path d="M2.48275299,225.963403 C2.48275299,211.468249 14.2477149,199.725223 28.754951,199.725223 C43.2621872,199.725223 55.0357998,211.468249 55.0357998,225.963403 C54.9862834,233.820178 51.5677563,241.213199 45.7708923,246 L116.18765,246 L116.18765,164.524036 C117.828125,162.876458 120.182106,162.339674 122.3037,163.129377 C124.064502,163.727006 125.544665,165.028325 126.438738,166.764787 C129.751959,172.836202 134.959684,176.750544 140.833515,176.750544 C150.851034,176.750544 159,165.342235 159,151.26548 C159,137.188724 150.885637,125.771118 140.833515,125.771118 C136.110229,125.771118 131.810827,128.309397 128.584113,132.456182 C127.364238,134.049089 126.327334,135.794136 125.495811,137.65361 L125.331447,137.765183 C122.943033,140.445032 119.146129,140.989408 116.18765,139.076162 L116.18765,56.512364 L43.9628945,56.512364 C42.7305806,54.7774014 42.3894946,52.4940253 43.0545702,50.4316518 C43.6109611,48.5416956 44.8219289,46.9538827 46.4369967,45.996637 C52.0859086,42.4356083 55.7278564,36.8290801 55.7278564,30.5252226 C55.7278564,19.758457 45.1134385,11 32.0162677,11 C18.9190968,11 8.29602829,19.7305638 8.29602829,30.5252226 C8.29602829,35.6017804 10.6576714,40.2227498 14.5158868,43.6908012 C15.9979455,45.0019158 17.6215561,46.1163729 19.3516322,47.010089 L19.4554407,47.1867458 C21.7843275,49.608793 22.3703722,53.3805121 20.9001088,56.4844708 L0,56.4844708 L0,246 L11.7476605,246 C5.9507965,241.213199 2.53226934,233.820178 2.48275299,225.963403 L2.48275299,225.963403 Z" id="Path" fill-rule="nonzero"></path>
            <text id="Jigsaw" style="mix-blend-mode: lighten;" font-family="Actor-Regular, Actor" font-size="110" font-weight="normal" letter-spacing="-0.711764634">
                <tspan x="159" y="104">Jigsaw</tspan>
            </text>
            <text id="Labs" font-family="Actor-Regular, Actor" font-size="110" font-weight="normal" letter-spacing="-0.7117646">
                <tspan x="236" y="232">Labs</tspan>
            </text>
        </g>
    </g>
</svg>