<?xml version="1.0" encoding="UTF-8" standalone="no"?>
<!DOCTYPE svg PUBLIC "-//W3C//DTD SVG 1.1//EN" "http://www.w3.org/Graphics/SVG/1.1/DTD/svg11.dtd">
<svg xmlns="http://www.w3.org/2000/svg" version="1.1" viewBox="0 0 377 487" width="377.0pt" height="487.0pt" xmlns:xlink="http://www.w3.org/1999/xlink">
<defs>
<path d="M 0.00 0.00 L 377.00 0.00 L 377.00 487.00 L 0.00 487.00 L 0.00 0.00 Z M 246.73 17.00 C 246.61 12.97 247.14 8.69 246.36 4.73 C 244.97 1.66 241.86 1.89 239.00 1.73 C 233.29 1.81 227.54 1.53 221.85 1.93 C 219.33 2.14 217.68 3.63 217.43 6.17 C 216.98 11.75 217.33 17.41 217.21 23.01 C 217.37 25.43 216.88 28.34 218.99 30.08 C 220.71 31.61 223.84 31.26 226.00 31.36 C 231.36 31.22 236.74 31.49 242.09 31.22 C 244.43 31.16 246.63 29.36 246.66 26.93 C 246.90 23.64 246.70 20.30 246.73 17.00 Z M 285.53 55.00 C 285.50 51.32 285.76 47.59 285.48 43.92 C 285.26 41.19 282.71 39.36 280.05 39.51 C 273.70 39.41 267.29 39.37 260.94 39.52 C 257.71 39.49 255.73 41.76 255.72 44.91 C 255.54 51.19 255.57 57.79 255.84 64.06 C 255.95 66.55 257.45 68.68 260.02 69.00 C 263.97 69.48 268.03 69.17 272.00 69.23 C 275.26 69.17 278.69 69.47 281.89 68.86 C 283.46 68.50 284.55 67.36 285.25 65.96 C 285.82 62.38 285.46 58.62 285.53 55.00 Z M 193.33 84.00 C 193.36 93.01 193.15 102.03 193.21 111.04 C 193.33 113.32 193.15 115.38 194.85 117.16 C 196.45 119.18 198.70 118.66 200.99 118.83 C 212.67 118.74 224.35 118.81 236.03 118.79 C 238.24 118.66 240.41 118.86 242.01 117.04 C 243.48 115.23 243.25 112.21 243.34 110.00 C 243.24 98.31 243.41 86.60 243.25 74.92 C 243.30 71.77 241.20 69.34 238.01 69.24 C 226.02 68.97 213.99 69.28 202.00 69.09 C 198.79 69.21 195.72 68.73 194.00 72.07 C 192.66 75.66 193.52 80.19 193.33 84.00 Z M 134.26 164.53 C 134.21 180.69 134.30 196.84 134.30 213.00 C 134.44 226.66 130.24 240.39 122.86 251.86 C 112.69 268.21 102.38 284.47 92.24 300.85 C 105.09 300.89 117.94 300.84 130.79 300.88 C 130.91 295.05 131.38 289.14 132.70 283.45 C 136.11 268.99 145.25 255.85 157.66 247.67 C 168.48 240.27 181.96 236.80 195.00 237.73 C 209.40 238.68 223.38 245.22 233.37 255.63 C 245.12 267.50 251.22 284.26 250.28 300.91 C 261.81 300.80 273.33 300.99 284.86 300.80 C 274.38 284.35 264.21 267.72 253.77 251.24 C 248.52 242.93 245.07 233.70 243.68 223.96 C 242.42 216.23 242.81 208.77 242.93 200.98 C 243.67 188.80 243.00 176.57 243.07 164.42 C 256.05 164.56 269.04 164.58 282.01 164.51 C 286.84 164.54 291.73 162.32 294.02 157.91 C 297.10 152.27 295.06 144.75 289.63 141.35 C 285.91 138.73 281.30 139.60 277.00 139.45 C 219.33 139.52 161.67 139.49 104.00 139.43 C 99.53 139.58 95.31 138.65 91.53 141.54 C 85.31 145.59 84.26 155.28 89.48 160.53 C 92.29 163.45 95.99 164.60 99.99 164.51 C 111.41 164.55 122.84 164.46 134.26 164.53 Z M 149.69 315.66 C 130.95 315.97 112.18 315.51 93.44 315.90 C 93.44 330.62 93.41 345.35 93.53 360.07 C 104.47 355.47 116.72 354.75 127.87 359.06 C 145.40 365.37 157.57 383.39 156.67 402.04 C 156.63 419.50 145.25 435.57 129.19 442.11 C 117.80 446.90 104.81 446.61 93.59 441.47 C 93.53 456.17 93.41 470.88 93.62 485.58 C 100.41 485.83 107.20 485.59 114.00 485.64 C 150.33 485.57 186.67 485.78 223.00 485.59 C 244.62 485.60 266.25 485.57 287.88 485.81 C 287.87 471.06 287.78 456.31 287.80 441.55 C 276.78 446.52 263.95 446.94 252.74 442.32 C 236.12 435.84 224.65 418.81 224.63 401.00 C 224.62 384.90 233.40 369.34 247.69 361.69 C 260.00 354.70 274.71 354.49 287.65 359.91 C 287.70 345.17 287.75 330.43 287.63 315.69 C 269.07 315.69 250.51 315.76 231.95 315.65 C 233.09 311.41 234.50 307.38 235.10 303.00 C 236.78 290.65 232.95 277.63 224.80 268.20 C 213.63 254.93 194.83 249.26 178.17 254.18 C 161.27 258.97 147.97 274.41 146.25 291.96 C 145.99 297.19 145.78 302.87 147.20 307.96 C 147.89 310.56 148.82 313.12 149.69 315.66 Z M 78.65 485.70 C 78.90 463.31 78.64 440.91 78.78 418.52 C 86.56 421.88 94.17 425.67 101.99 428.93 C 114.74 433.86 129.84 428.68 137.21 417.26 C 143.50 407.89 143.78 394.78 137.78 385.21 C 131.41 374.46 117.66 368.65 105.51 371.64 C 96.28 374.32 87.78 379.61 78.79 383.00 C 78.53 362.94 78.82 342.88 78.64 322.82 C 54.41 361.87 30.17 400.89 5.88 439.91 C -1.40 450.93 -0.18 466.44 8.93 476.04 C 14.52 482.31 22.63 485.62 30.97 485.70 C 46.86 485.70 62.75 485.78 78.65 485.70 Z M 302.62 329.48 C 302.09 347.27 302.63 365.12 302.34 382.92 C 297.63 380.95 293.09 378.63 288.39 376.62 C 283.28 374.45 278.73 371.79 273.06 371.26 C 258.19 369.10 243.28 379.34 240.10 394.03 C 238.51 400.15 239.27 406.55 241.65 412.35 C 245.29 421.23 253.66 428.00 263.00 430.03 C 268.78 431.36 274.99 430.70 280.47 428.46 C 287.90 425.37 295.04 421.54 302.54 418.61 C 302.79 441.00 302.58 463.39 302.64 485.78 C 316.43 485.91 330.21 485.75 344.00 485.82 C 347.37 485.84 350.70 485.67 353.97 484.78 C 363.24 482.56 371.11 475.15 374.34 466.25 C 376.09 461.75 376.05 456.72 375.77 451.97 C 375.34 446.10 372.10 440.83 369.01 435.99 C 358.76 419.57 348.47 403.18 338.31 386.70 C 329.98 371.67 320.43 357.30 311.14 342.87 C 308.27 338.41 305.77 333.77 302.62 329.48 Z" id="p0" />
<path d="M 221.85 1.93 C 227.54 1.53 233.29 1.81 239.00 1.73 C 241.86 1.89 244.97 1.66 246.36 4.73 C 247.14 8.69 246.61 12.97 246.73 17.00 C 246.70 20.30 246.90 23.64 246.66 26.93 C 246.63 29.36 244.43 31.16 242.09 31.22 C 236.74 31.49 231.36 31.22 226.00 31.36 C 223.84 31.26 220.71 31.61 218.99 30.08 C 216.88 28.34 217.37 25.43 217.21 23.01 C 217.33 17.41 216.98 11.75 217.43 6.17 C 217.68 3.63 219.33 2.14 221.85 1.93 Z" id="p1" />
<path d="M 260.94 39.52 C 267.29 39.37 273.70 39.41 280.05 39.51 C 282.71 39.36 285.26 41.19 285.48 43.92 C 285.76 47.59 285.50 51.32 285.53 55.00 C 285.46 58.62 285.82 62.38 285.25 65.96 C 284.55 67.36 283.46 68.50 281.89 68.86 C 278.69 69.47 275.26 69.17 272.00 69.23 C 268.03 69.17 263.97 69.48 260.02 69.00 C 257.45 68.68 255.95 66.55 255.84 64.06 C 255.57 57.79 255.54 51.19 255.72 44.91 C 255.73 41.76 257.71 39.49 260.94 39.52 Z" id="p2" />
<path d="M 202.00 69.09 C 213.99 69.28 226.02 68.97 238.01 69.24 C 241.20 69.34 243.30 71.77 243.25 74.92 C 243.41 86.60 243.24 98.31 243.34 110.00 C 243.25 112.21 243.48 115.23 242.01 117.04 C 240.41 118.86 238.24 118.66 236.03 118.79 C 224.35 118.81 212.67 118.74 200.99 118.83 C 198.70 118.66 196.45 119.18 194.85 117.16 C 193.15 115.38 193.33 113.32 193.21 111.04 C 193.15 102.03 193.36 93.01 193.33 84.00 C 193.52 80.19 192.66 75.66 194.00 72.07 C 195.72 68.73 198.79 69.21 202.00 69.09 Z" id="p3" />
<path d="M 104.00 139.43 C 161.67 139.49 219.33 139.52 277.00 139.45 C 281.30 139.60 285.91 138.73 289.63 141.35 C 295.06 144.75 297.10 152.27 294.02 157.91 C 291.73 162.32 286.84 164.54 282.01 164.51 C 269.04 164.58 256.05 164.56 243.07 164.42 C 243.00 176.57 243.67 188.80 242.93 200.98 C 242.81 208.77 242.42 216.23 243.68 223.96 C 245.07 233.70 248.52 242.93 253.77 251.24 C 264.21 267.72 274.38 284.35 284.86 300.80 C 273.33 300.99 261.81 300.80 250.28 300.91 C 251.22 284.26 245.12 267.50 233.37 255.63 C 223.38 245.22 209.40 238.68 195.00 237.73 C 181.96 236.80 168.48 240.27 157.66 247.67 C 145.25 255.85 136.11 268.99 132.70 283.45 C 131.38 289.14 130.91 295.05 130.79 300.88 C 117.94 300.84 105.09 300.89 92.24 300.85 C 102.38 284.47 112.69 268.21 122.86 251.86 C 130.24 240.39 134.44 226.66 134.30 213.00 C 134.30 196.84 134.21 180.69 134.26 164.53 C 122.84 164.46 111.41 164.55 99.99 164.51 C 95.99 164.60 92.29 163.45 89.48 160.53 C 84.26 155.28 85.31 145.59 91.53 141.54 C 95.31 138.65 99.53 139.58 104.00 139.43 Z" id="p4" />
<path d="M 224.80 268.20 C 232.95 277.63 236.78 290.65 235.10 303.00 C 234.50 307.38 233.09 311.41 231.95 315.65 C 250.51 315.76 269.07 315.69 287.63 315.69 C 287.75 330.43 287.70 345.17 287.65 359.91 C 274.71 354.49 260.00 354.70 247.69 361.69 C 233.40 369.34 224.62 384.90 224.63 401.00 C 224.65 418.81 236.12 435.84 252.74 442.32 C 263.95 446.94 276.78 446.52 287.80 441.55 C 287.78 456.31 287.87 471.06 287.88 485.81 C 266.25 485.57 244.62 485.60 223.00 485.59 C 186.67 485.78 150.33 485.57 114.00 485.64 C 107.20 485.59 100.41 485.83 93.62 485.58 C 93.41 470.88 93.53 456.17 93.59 441.47 C 104.81 446.61 117.80 446.90 129.19 442.11 C 145.25 435.57 156.63 419.50 156.67 402.04 C 157.57 383.39 145.40 365.37 127.87 359.06 C 116.72 354.75 104.47 355.47 93.53 360.07 C 93.41 345.35 93.44 330.62 93.44 315.90 C 112.18 315.51 130.95 315.97 149.69 315.66 C 148.82 313.12 147.89 310.56 147.20 307.96 C 145.78 302.87 145.99 297.19 146.25 291.96 C 147.97 274.41 161.27 258.97 178.17 254.18 C 194.83 249.26 213.63 254.93 224.80 268.20 Z" id="p5" />
<path d="M 78.64 322.82 C 78.82 342.88 78.53 362.94 78.79 383.00 C 87.78 379.61 96.28 374.32 105.51 371.64 C 117.66 368.65 131.41 374.46 137.78 385.21 C 143.78 394.78 143.50 407.89 137.21 417.26 C 129.84 428.68 114.74 433.86 101.99 428.93 C 94.17 425.67 86.56 421.88 78.78 418.52 C 78.64 440.91 78.90 463.31 78.65 485.70 C 62.75 485.78 46.86 485.70 30.97 485.70 C 22.63 485.62 14.52 482.31 8.93 476.04 C -0.18 466.44 -1.40 450.93 5.88 439.91 C 30.17 400.89 54.41 361.87 78.64 322.82 Z" id="p6" />
<path d="M 302.62 329.48 C 305.77 333.77 308.27 338.41 311.14 342.87 C 320.43 357.30 329.98 371.67 338.31 386.70 C 348.47 403.18 358.76 419.57 369.01 435.99 C 372.10 440.83 375.34 446.10 375.77 451.97 C 376.05 456.72 376.09 461.75 374.34 466.25 C 371.11 475.15 363.24 482.56 353.97 484.78 C 350.70 485.67 347.37 485.84 344.00 485.82 C 330.21 485.75 316.43 485.91 302.64 485.78 C 302.58 463.39 302.79 441.00 302.54 418.61 C 295.04 421.54 287.90 425.37 280.47 428.46 C 274.99 430.70 268.78 431.36 263.00 430.03 C 253.66 428.00 245.29 421.23 241.65 412.35 C 239.27 406.55 238.51 400.15 240.10 394.03 C 243.28 379.34 258.19 369.10 273.06 371.26 C 278.73 371.79 283.28 374.45 288.39 376.62 C 293.09 378.63 297.63 380.95 302.34 382.92 C 302.63 365.12 302.09 347.27 302.62 329.48 Z" id="p7" />
</defs>
<g stroke-width="10pt">
<use stroke="#ffffff" xlink:href="#p0" />
<use stroke="#556cb2" xlink:href="#p1" />
<use stroke="#da6048" xlink:href="#p2" />
<use stroke="#e4be37" xlink:href="#p3" />
<use stroke="#17b5d0" xlink:href="#p4" />
<use stroke="#556cb2" xlink:href="#p5" />
<use stroke="#da6048" xlink:href="#p6" />
<use stroke="#e4be37" xlink:href="#p7" />
</g>
<g>
<use fill="#ffffff" xlink:href="#p0" />
<use fill="#556cb2" xlink:href="#p1" />
<use fill="#da6048" xlink:href="#p2" />
<use fill="#e4be37" xlink:href="#p3" />
<use fill="#17b5d0" xlink:href="#p4" />
<use fill="#556cb2" xlink:href="#p5" />
<use fill="#da6048" xlink:href="#p6" />
<use fill="#e4be37" xlink:href="#p7" />
</g>
</svg>