<?xml version="1.0" encoding="UTF-8"?>
<svg width="590px" height="262px" viewBox="0 0 590 262" version="1.1" xmlns="http://www.w3.org/2000/svg" xmlns:xlink="http://www.w3.org/1999/xlink">
    <!-- Generator: Sketch 53.2 (72643) - https://sketchapp.com -->
    <title>Group</title>
    <desc>Created with Sketch.</desc>
    <g id="Page-1" stroke="none" stroke-width="1" fill="none" fill-rule="evenodd">
        <g id="Group" transform="translate(-0.500000, -0.500000)" fill="#332E56">
            <g id="Group-2" transform="translate(138.000000, 131.500000) scale(1, -1) rotate(90.000000) translate(-138.000000, -131.500000) translate(7.000000, -6.000000)" fill-rule="nonzero">
                <path d="M77.4199674,251.13818 C77.4199674,234.237448 91.2567465,220.545579 108.318716,220.545579 C125.380686,220.545579 139.227639,234.237448 139.227639,251.13818 C139.169403,260.298846 135.148871,268.918793 128.331175,274.5 L211.148368,274.5 L211.148368,179.502493 C213.077732,177.581488 215.84625,176.95562 218.341458,177.87638 C220.412339,178.57319 222.15316,180.090472 223.204679,182.115114 C227.10136,189.194125 233.22617,193.758081 240.134385,193.758081 C251.915996,193.758081 261.5,180.456479 261.5,164.043581 C261.5,147.630682 251.956692,134.318239 240.134385,134.318239 C234.579325,134.318239 229.522797,137.277765 225.727856,142.11274 C224.29316,143.970002 223.073657,146.004652 222.095702,148.17272 L221.902394,148.302809 C219.093378,151.427399 214.627837,152.062118 211.148368,149.831355 L211.148368,53.5654797 L126.204788,53.5654797 C124.755463,51.5425871 124.354311,48.8802678 125.136507,46.4756281 C125.790879,44.2720195 127.215099,42.4206973 129.114581,41.3045895 C135.75827,37.1525816 140.041567,30.6156083 140.041567,23.2655786 C140.041567,10.7119881 127.557943,0.5 112.154353,0.5 C96.7507617,0.5 84.2569641,10.6794659 84.2569641,23.2655786 C84.2569641,29.1846291 87.034494,34.5724827 91.5721436,38.6160831 C93.3151938,40.1447869 95.2247233,41.4441965 97.2594668,42.4862315 L97.381556,42.6922057 C100.120561,45.5162098 100.809809,49.9138736 99.0806311,53.5329575 L74.5,53.5329575 L74.5,274.5 L88.3164309,274.5 C81.4987355,268.918793 77.4782036,260.298846 77.4199674,251.13818 L77.4199674,251.13818 Z" id="Path"></path>
                <path d="M22.6631057,124.684044 C38.8466234,124.684044 51.9706219,139.335246 51.9706219,157.398962 C51.9706219,175.462678 38.8466234,190.11388 22.6631057,190.11388 C13.746141,190.062548 5.36363058,185.662757 0,178.218525 L0,269 L93.7428462,269 C86.8606141,263.451727 82.8002474,254.905981 82.7306372,245.822896 C82.7306372,229.018689 96.7096528,215.400929 113.964517,215.400929 C121.652622,215.346543 129.108679,218.151068 135,223.313224 L135,97.8898907 C135.00003,83.6122926 123.93929,72.0296832 110.276612,72 L75.2518123,72 L75.2518123,76.4997814 C75.2518137,88.2792831 66.1169101,97.8301223 54.8447158,97.8360656 L0.0515070584,97.8360656 L0.0515070584,136.590164 C5.4041304,129.159475 13.763261,124.757981 22.6631057,124.684044 Z" id="Path"></path>
            </g>
            <text id="Jigsaw" style="mix-blend-mode: lighten;" font-family="Actor-Regular, Actor" font-size="110" font-weight="normal" letter-spacing="-0.711764634">
                <tspan x="292.5" y="129.5">Jigsaw</tspan>
            </text>
            <text id="Labs" font-family="Actor-Regular, Actor" font-size="110" font-weight="normal" letter-spacing="-0.7117646">
                <tspan x="369.5" y="255.5">Labs</tspan>
            </text>
        </g>
    </g>
</svg>