<?xml version="1.0" standalone="no"?>
<!DOCTYPE svg PUBLIC "-//W3C//DTD SVG 20010904//EN"
 "http://www.w3.org/TR/2001/REC-SVG-20010904/DTD/svg10.dtd">
<svg version="1.0" xmlns="http://www.w3.org/2000/svg"
 width="1792.000000pt" height="500.000000pt" viewBox="0 0 1792.000000 500.000000"
 preserveAspectRatio="xMidYMid meet">

<g transform="translate(0.000000,500.000000) scale(0.100000,-0.100000)"
fill="#000000" stroke="none">
<path d="M5875 4735 c-461 -84 -819 -390 -953 -815 -51 -163 -57 -202 -57
-400 1 -166 3 -196 27 -290 66 -261 160 -426 342 -597 249 -233 596 -343 991
-313 301 23 562 123 818 313 l67 51 0 513 0 513 -510 0 -510 0 0 -220 0 -220
258 -2 257 -3 3 -172 2 -172 -44 -26 c-64 -37 -183 -82 -258 -96 -97 -19 -300
-16 -376 5 -206 56 -362 184 -452 371 -53 109 -70 179 -77 315 -18 359 179
659 502 763 59 19 90 22 200 21 206 -3 348 -51 514 -174 l80 -59 158 190 c87
105 159 194 161 199 6 16 -166 132 -283 190 -132 65 -218 92 -370 115 -121 18
-391 18 -490 0z"/>
<path d="M8925 4740 c-235 -21 -449 -131 -573 -295 -95 -127 -139 -280 -129
-459 9 -185 54 -295 162 -401 117 -115 263 -181 594 -270 432 -115 525 -182
496 -356 -9 -54 -69 -119 -135 -148 -98 -42 -306 -43 -453 -1 -135 37 -242 92
-384 197 l-72 53 -124 -148 c-68 -81 -137 -162 -153 -181 l-28 -34 39 -35 c75
-66 248 -171 355 -217 249 -105 520 -145 770 -115 123 15 222 45 330 97 77 38
110 62 176 128 133 132 194 288 194 495 0 195 -52 330 -169 443 -132 127 -269
187 -691 303 -289 79 -379 136 -396 249 -13 92 30 166 124 212 53 26 65 28
182 28 100 0 141 -5 205 -23 87 -25 268 -109 355 -165 l54 -35 15 21 c9 12 69
99 133 192 l118 170 -32 28 c-55 47 -192 126 -292 168 -121 50 -271 86 -416
99 -124 11 -135 11 -255 0z"/>
<path d="M11400 3593 c-266 -626 -494 -1162 -507 -1190 l-23 -53 264 0 264 0
107 265 108 265 502 0 503 0 107 -265 108 -265 269 0 c147 0 268 2 268 4 0 2
-227 537 -503 1188 l-504 1183 -240 3 -239 2 -484 -1137z m880 117 c82 -200
148 -366 146 -367 -2 -2 -143 -2 -314 -1 l-310 3 147 360 c81 198 151 369 155
380 7 17 9 18 18 5 5 -8 76 -179 158 -380z"/>
<path d="M15507 4713 c-3 -5 -123 -366 -267 -802 -158 -479 -265 -789 -269
-780 -4 7 -115 366 -246 797 l-239 782 -276 0 -277 0 111 -328 c61 -180 242
-713 401 -1185 l290 -857 227 0 226 0 12 33 c6 17 124 358 261 756 138 399
253 731 257 738 4 7 123 -324 272 -757 l265 -770 226 0 226 0 36 103 c48 135
767 2259 767 2263 0 2 -121 4 -269 4 l-269 0 -14 -47 c-101 -344 -473 -1541
-477 -1537 -3 3 -123 362 -267 797 l-261 792 -221 3 c-121 1 -223 -1 -225 -5z"/>
<path d="M1410 3898 c0 -877 0 -870 -53 -961 -52 -88 -123 -128 -238 -135
-137 -8 -269 49 -400 174 l-57 55 -45 -48 c-113 -122 -277 -308 -277 -314 0
-4 38 -42 84 -86 200 -187 439 -272 726 -260 146 6 243 25 345 68 183 76 319
216 385 398 60 164 60 164 60 1082 l0 839 -265 0 -265 0 0 -812z"/>
<path d="M3180 3530 l0 -1180 255 0 255 0 0 1180 0 1180 -255 0 -255 0 0
-1180z"/>
<path d="M7565 719 c-110 -259 -201 -475 -203 -480 -2 -5 41 -9 101 -9 l104 0
44 108 44 107 201 3 201 2 44 -107 44 -108 109 -3 c85 -2 107 0 103 10 -38 92
-390 914 -397 929 -9 17 -22 19 -103 19 l-92 0 -200 -471z m359 59 c31 -75 56
-139 56 -142 0 -3 -56 -6 -125 -6 l-125 0 21 53 c63 161 103 247 110 240 4 -4
32 -70 63 -145z"/>
<path d="M12024 1181 c-136 -33 -224 -142 -224 -275 0 -74 17 -122 57 -167 52
-57 88 -73 310 -138 89 -26 133 -61 133 -105 0 -45 -24 -74 -72 -87 -85 -22
-219 11 -305 77 -17 13 -35 24 -40 23 -11 -1 -113 -125 -113 -138 0 -32 160
-114 271 -137 300 -64 528 117 455 360 -31 102 -88 142 -281 201 -66 20 -136
44 -155 53 -70 34 -78 105 -17 142 62 38 195 17 290 -46 21 -14 40 -24 41 -22
2 2 26 37 55 78 49 70 51 75 34 88 -37 28 -135 73 -190 87 -59 16 -195 18
-249 6z"/>
<path d="M5430 705 l0 -475 340 0 340 0 0 95 0 95 -235 0 -235 0 0 380 0 380
-105 0 -105 0 0 -475z"/>
<path d="M9680 705 l0 -477 278 4 c251 5 283 7 345 27 120 39 177 117 177 244
0 85 -39 152 -112 191 -32 17 -58 33 -58 36 0 3 16 15 36 28 53 34 88 116 82
192 -6 91 -45 146 -133 190 l-69 35 -273 3 -273 3 0 -476z m480 282 c77 -27
89 -118 21 -164 -31 -21 -45 -23 -167 -23 l-134 0 0 100 0 100 123 -1 c67 0
138 -5 157 -12z m5 -367 c96 -15 138 -77 101 -149 -24 -45 -57 -54 -228 -59
l-158 -4 0 111 0 111 113 0 c61 0 139 -4 172 -10z"/>
</g>
</svg>
