<?xml version="1.0" encoding="UTF-8" standalone="no"?>
<!DOCTYPE svg PUBLIC "-//W3C//DTD SVG 1.1//EN" "http://www.w3.org/Graphics/SVG/1.1/DTD/svg11.dtd">
<svg xmlns="http://www.w3.org/2000/svg" version="1.1" viewBox="0 0 700 700" width="700.0pt" height="700.0pt" xmlns:xlink="http://www.w3.org/1999/xlink">
<defs>
<path d="M 0.00 0.00 L 700.00 0.00 L 700.00 700.00 L 0.00 700.00 L 0.00 0.00 Z M 409.78 123.00 C 409.72 119.18 410.07 115.23 409.54 111.45 C 409.26 109.69 407.76 108.33 406.01 108.13 C 401.40 107.51 396.64 107.95 392.00 107.81 C 388.94 107.89 385.41 107.51 382.51 108.57 C 380.27 109.84 380.34 112.73 380.20 114.97 C 380.17 120.65 379.96 126.36 380.22 132.03 C 380.28 134.45 381.48 136.60 384.01 137.03 C 389.93 137.74 396.04 137.20 402.00 137.31 C 404.81 137.12 408.07 137.49 409.34 134.35 C 410.14 130.71 409.66 126.72 409.78 123.00 Z M 435.99 174.93 C 439.16 174.78 442.48 175.10 445.60 174.50 C 448.07 173.60 448.38 171.37 448.40 169.05 C 448.38 163.03 448.41 157.00 448.39 150.98 C 448.51 148.35 446.94 145.84 444.13 145.70 C 437.76 145.43 431.35 145.65 424.98 145.61 C 422.37 145.60 419.77 146.10 419.12 149.00 C 418.47 154.93 419.00 161.03 418.76 167.00 C 418.90 169.46 418.56 173.35 421.48 174.35 C 425.96 175.65 431.36 175.05 435.99 174.93 Z M 356.38 221.67 C 358.23 223.09 359.41 224.76 361.97 224.66 C 373.64 224.77 385.33 224.62 397.00 224.73 C 400.04 224.57 403.37 225.16 405.40 222.36 C 406.13 219.04 405.73 215.40 405.84 212.00 C 406.23 200.55 406.68 188.93 405.58 177.51 C 403.45 176.19 401.65 175.10 399.03 175.27 C 387.68 175.24 376.34 175.35 364.99 175.22 C 362.70 175.34 359.60 174.99 357.92 176.88 C 356.20 178.58 356.42 180.73 356.30 182.96 C 356.40 195.87 356.21 208.77 356.38 221.67 Z M 297.26 270.48 C 297.25 286.65 297.22 302.83 297.28 319.00 C 297.32 330.67 294.16 342.40 288.71 352.69 C 285.04 359.51 280.51 365.88 276.53 372.53 C 269.55 384.00 262.35 395.33 255.32 406.76 C 268.14 406.94 280.96 406.84 293.79 406.84 C 293.83 394.75 296.19 382.98 302.59 372.59 C 310.35 359.85 322.65 350.06 337.05 345.94 C 348.72 342.59 361.67 342.69 373.14 346.82 C 388.29 352.06 401.26 363.77 407.90 378.37 C 412.25 387.37 413.50 396.97 413.51 406.87 C 424.97 406.81 436.44 406.93 447.91 406.79 C 439.50 393.30 431.33 379.66 422.70 366.32 C 417.40 357.92 412.06 350.45 409.22 340.76 C 405.53 329.30 405.67 317.89 405.85 306.00 C 406.12 294.13 405.35 282.15 406.25 270.32 C 418.50 270.60 430.75 270.52 443.01 270.54 C 447.19 270.51 451.07 270.23 454.30 267.26 C 459.72 262.37 459.73 253.58 454.35 248.64 C 450.31 244.57 445.20 245.60 440.00 245.45 C 380.68 245.50 321.29 245.46 261.97 245.48 C 258.76 245.43 255.78 246.13 253.37 248.36 C 247.68 253.07 247.68 262.89 253.45 267.54 C 256.48 270.33 260.10 270.45 263.99 270.52 C 275.08 270.50 286.17 270.51 297.26 270.48 Z M 312.69 421.81 C 293.98 421.92 275.26 421.77 256.54 421.89 C 256.45 436.62 256.40 451.36 256.58 466.10 C 264.18 463.11 271.99 461.33 280.19 462.45 C 293.23 463.96 305.48 471.36 312.51 482.51 C 316.82 488.90 319.07 496.35 319.73 504.00 C 320.94 522.23 310.15 540.07 293.43 547.44 C 281.69 552.87 268.38 552.42 256.54 547.52 C 256.42 562.27 256.50 577.02 256.48 591.77 C 321.30 591.60 386.13 591.68 450.95 591.73 C 450.98 576.98 450.98 562.23 450.95 547.48 C 440.44 551.86 428.88 552.78 418.02 549.04 C 400.64 543.32 388.02 526.32 387.76 508.00 C 387.13 492.28 395.60 477.09 408.90 468.85 C 418.29 463.04 430.15 460.67 440.98 463.08 C 444.42 463.77 447.66 464.94 450.95 466.11 C 450.98 451.37 450.97 436.63 450.95 421.89 C 432.21 421.78 413.46 421.88 394.71 421.84 C 398.70 412.04 399.77 401.35 396.92 391.08 C 392.47 374.60 377.93 361.50 361.02 358.97 C 344.10 355.99 326.37 363.55 316.75 377.77 C 307.72 390.70 306.76 407.38 312.69 421.81 Z M 241.64 591.71 C 241.86 569.38 241.57 547.05 241.79 524.71 C 250.01 527.74 257.68 532.07 265.84 535.18 C 278.70 539.57 293.56 534.20 300.58 522.56 C 305.03 515.52 305.90 506.99 304.02 498.97 C 301.09 487.51 290.79 478.54 279.04 477.17 C 273.16 476.34 267.28 477.48 261.93 479.97 C 255.21 482.98 248.60 486.23 241.79 489.02 C 241.55 468.99 241.95 448.94 241.56 428.91 C 236.35 437.81 230.49 446.30 225.27 455.20 C 206.89 485.12 188.17 514.81 169.68 544.67 C 167.43 548.38 165.53 552.20 164.73 556.51 C 163.31 565.09 165.42 574.25 171.09 580.95 C 176.68 587.79 185.18 591.56 193.97 591.65 C 209.86 591.73 225.76 591.65 241.64 591.71 Z M 465.81 436.68 C 465.26 453.82 465.91 471.01 465.45 488.16 C 456.09 486.14 448.54 480.05 439.47 477.84 C 431.13 475.71 422.17 477.24 415.16 482.26 C 406.87 488.08 402.04 497.90 402.36 508.00 C 402.92 518.05 408.40 527.79 417.33 532.71 C 424.52 537.08 433.57 537.63 441.53 535.29 C 449.56 532.34 457.20 527.48 465.45 525.17 C 465.82 547.29 465.53 569.43 465.59 591.56 C 480.04 592.01 494.54 591.63 509.00 591.72 C 517.16 591.80 525.13 588.75 530.67 582.68 C 540.29 573.52 541.76 557.42 534.69 546.33 C 523.60 528.19 512.21 510.15 500.99 492.11 C 493.63 478.97 485.35 466.43 477.26 453.71 C 473.75 448.56 470.94 442.83 467.00 438.00 C 466.61 437.56 466.21 437.12 465.81 436.68 Z" id="p0" />
<path d="M 392.00 107.81 C 396.64 107.95 401.40 107.51 406.01 108.13 C 407.76 108.33 409.26 109.69 409.54 111.45 C 410.07 115.23 409.72 119.18 409.78 123.00 C 409.66 126.72 410.14 130.71 409.34 134.35 C 408.07 137.49 404.81 137.12 402.00 137.31 C 396.04 137.20 389.93 137.74 384.01 137.03 C 381.48 136.60 380.28 134.45 380.22 132.03 C 379.96 126.36 380.17 120.65 380.20 114.97 C 380.34 112.73 380.27 109.84 382.51 108.57 C 385.41 107.51 388.94 107.89 392.00 107.81 Z" id="p1" />
<path d="M 424.98 145.61 C 431.35 145.65 437.76 145.43 444.13 145.70 C 446.94 145.84 448.51 148.35 448.39 150.98 C 448.41 157.00 448.38 163.03 448.40 169.05 C 448.38 171.37 448.07 173.60 445.60 174.50 C 442.48 175.10 439.16 174.78 435.99 174.93 C 431.36 175.05 425.96 175.65 421.48 174.35 C 418.56 173.35 418.90 169.46 418.76 167.00 C 419.00 161.03 418.47 154.93 419.12 149.00 C 419.77 146.10 422.37 145.60 424.98 145.61 Z" id="p2" />
<path d="M 364.99 175.22 C 376.34 175.35 387.68 175.24 399.03 175.27 C 401.65 175.10 403.45 176.19 405.58 177.51 C 406.68 188.93 406.23 200.55 405.84 212.00 C 405.73 215.40 406.13 219.04 405.40 222.36 C 403.37 225.16 400.04 224.57 397.00 224.73 C 385.33 224.62 373.64 224.77 361.97 224.66 C 359.41 224.76 358.23 223.09 356.38 221.67 C 356.21 208.77 356.40 195.87 356.30 182.96 C 356.42 180.73 356.20 178.58 357.92 176.88 C 359.60 174.99 362.70 175.34 364.99 175.22 Z" id="p3" />
<path d="M 261.97 245.48 C 321.29 245.46 380.68 245.50 440.00 245.45 C 445.20 245.60 450.31 244.57 454.35 248.64 C 459.73 253.58 459.72 262.37 454.30 267.26 C 451.07 270.23 447.19 270.51 443.01 270.54 C 430.75 270.52 418.50 270.60 406.25 270.32 C 405.35 282.15 406.12 294.13 405.85 306.00 C 405.67 317.89 405.53 329.30 409.22 340.76 C 412.06 350.45 417.40 357.92 422.70 366.32 C 431.33 379.66 439.50 393.30 447.91 406.79 C 436.44 406.93 424.97 406.81 413.51 406.87 C 413.50 396.97 412.25 387.37 407.90 378.37 C 401.26 363.77 388.29 352.06 373.14 346.82 C 361.67 342.69 348.72 342.59 337.05 345.94 C 322.65 350.06 310.35 359.85 302.59 372.59 C 296.19 382.98 293.83 394.75 293.79 406.84 C 280.96 406.84 268.14 406.94 255.32 406.76 C 262.35 395.33 269.55 384.00 276.53 372.53 C 280.51 365.88 285.04 359.51 288.71 352.69 C 294.16 342.40 297.32 330.67 297.28 319.00 C 297.22 302.83 297.25 286.65 297.26 270.48 C 286.17 270.51 275.08 270.50 263.99 270.52 C 260.10 270.45 256.48 270.33 253.45 267.54 C 247.68 262.89 247.68 253.07 253.37 248.36 C 255.78 246.13 258.76 245.43 261.97 245.48 Z" id="p4" />
<path d="M 361.02 358.97 C 377.93 361.50 392.47 374.60 396.92 391.08 C 399.77 401.35 398.70 412.04 394.71 421.84 C 413.46 421.88 432.21 421.78 450.95 421.89 C 450.97 436.63 450.98 451.37 450.95 466.11 C 447.66 464.94 444.42 463.77 440.98 463.08 C 430.15 460.67 418.29 463.04 408.90 468.85 C 395.60 477.09 387.13 492.28 387.76 508.00 C 388.02 526.32 400.64 543.32 418.02 549.04 C 428.88 552.78 440.44 551.86 450.95 547.48 C 450.98 562.23 450.98 576.98 450.95 591.73 C 386.13 591.68 321.30 591.60 256.48 591.77 C 256.50 577.02 256.42 562.27 256.54 547.52 C 268.38 552.42 281.69 552.87 293.43 547.44 C 310.15 540.07 320.94 522.23 319.73 504.00 C 319.07 496.35 316.82 488.90 312.51 482.51 C 305.48 471.36 293.23 463.96 280.19 462.45 C 271.99 461.33 264.18 463.11 256.58 466.10 C 256.40 451.36 256.45 436.62 256.54 421.89 C 275.26 421.77 293.98 421.92 312.69 421.81 C 306.76 407.38 307.72 390.70 316.75 377.77 C 326.37 363.55 344.10 355.99 361.02 358.97 Z" id="p5" />
<path d="M 241.56 428.91 C 241.95 448.94 241.55 468.99 241.79 489.02 C 248.60 486.23 255.21 482.98 261.93 479.97 C 267.28 477.48 273.16 476.34 279.04 477.17 C 290.79 478.54 301.09 487.51 304.02 498.97 C 305.90 506.99 305.03 515.52 300.58 522.56 C 293.56 534.20 278.70 539.57 265.84 535.18 C 257.68 532.07 250.01 527.74 241.79 524.71 C 241.57 547.05 241.86 569.38 241.64 591.71 C 225.76 591.65 209.86 591.73 193.97 591.65 C 185.18 591.56 176.68 587.79 171.09 580.95 C 165.42 574.25 163.31 565.09 164.73 556.51 C 165.53 552.20 167.43 548.38 169.68 544.67 C 188.17 514.81 206.89 485.12 225.27 455.20 C 230.49 446.30 236.35 437.81 241.56 428.91 Z" id="p6" />
<path d="M 465.81 436.68 C 466.21 437.12 466.61 437.56 467.00 438.00 C 470.94 442.83 473.75 448.56 477.26 453.71 C 485.35 466.43 493.63 478.97 500.99 492.11 C 512.21 510.15 523.60 528.19 534.69 546.33 C 541.76 557.42 540.29 573.52 530.67 582.68 C 525.13 588.75 517.16 591.80 509.00 591.72 C 494.54 591.63 480.04 592.01 465.59 591.56 C 465.53 569.43 465.82 547.29 465.45 525.17 C 457.20 527.48 449.56 532.34 441.53 535.29 C 433.57 537.63 424.52 537.08 417.33 532.71 C 408.40 527.79 402.92 518.05 402.36 508.00 C 402.04 497.90 406.87 488.08 415.16 482.26 C 422.17 477.24 431.13 475.71 439.47 477.84 C 448.54 480.05 456.09 486.14 465.45 488.16 C 465.91 471.01 465.26 453.82 465.81 436.68 Z" id="p7" />
</defs>
<g stroke-width="10pt">
<use stroke="#ffffff" xlink:href="#p0" />
<use stroke="#4163ce" xlink:href="#p1" />
<use stroke="#df5f44" xlink:href="#p2" />
<use stroke="#f2c524" xlink:href="#p3" />
<use stroke="#20c0dd" xlink:href="#p4" />
<use stroke="#4163ce" xlink:href="#p5" />
<use stroke="#df5f44" xlink:href="#p6" />
<use stroke="#f2c524" xlink:href="#p7" />
</g>
<g>
<use fill="#ffffff" xlink:href="#p0" />
<use fill="#4163ce" xlink:href="#p1" />
<use fill="#df5f44" xlink:href="#p2" />
<use fill="#f2c524" xlink:href="#p3" />
<use fill="#20c0dd" xlink:href="#p4" />
<use fill="#4163ce" xlink:href="#p5" />
<use fill="#df5f44" xlink:href="#p6" />
<use fill="#f2c524" xlink:href="#p7" />
</g>
</svg>